<?xml version="1.0" encoding="utf-8"?>
<!-- Generator: Adobe Illustrator 26.2.1, SVG Export Plug-In . SVG Version: 6.00 Build 0)  -->
<svg version="1.1"
	 id="Layer_1" xmlns:cc="http://creativecommons.org/ns#" xmlns:dc="http://purl.org/dc/elements/1.1/" xmlns:rdf="http://www.w3.org/1999/02/22-rdf-syntax-ns#"
	 xmlns="http://www.w3.org/2000/svg" xmlns:xlink="http://www.w3.org/1999/xlink" x="0px" y="0px" viewBox="0 0 1080 1080"
	 style="enable-background:new 0 0 1080 1080;" xml:space="preserve">
<style type="text/css">
	.st0{fill-rule:evenodd;clip-rule:evenodd;fill:#FFB81C;}
	.st1{fill-rule:evenodd;clip-rule:evenodd;fill:#6F2633;}
	.st2{fill-rule:evenodd;clip-rule:evenodd;fill:#041E42;}
</style>
<g transform="matrix(1.25 0 0 -1.25 -37.812 404.35)">
	<g transform="matrix(4.8621 0 0 4.8621 -309.18 -847.02)">
		<path class="st0" d="M160,202.4l-1.2-2.6c-1-2.2-1.5-4.5-1.7-6.9c-0.2-2.3-0.2-4.7-0.2-7.3l-0.2-20.3c-7.3-3-14.2-7.4-18.3-10.8
			c-0.1-0.1-2.1-3.2-3.2-4.9c1.5,0.4,5.5,1.4,5.5,1.4l-1.3-1.6c-7.7-9.7-5.1-15.9-4.7-16.6l0,0l0,0c0.8-2.2,2.7-4,5.5-5.1
			c1.9-0.7,4.2-1,7.1-0.9c2.9,0.1,6,0.8,9,1.8l0-2c-2.6-1.4-4.7-3.9-5.8-6.9c-0.4-1.2-0.7-2.4-0.8-3.7c0-0.2,0-0.9-0.1-1.9
			c-0.1-0.9-0.2-2.1-0.6-3.2l-0.2-0.7l-0.7-1.6c0.1-0.3,1.9,0.4,2.8,0.7c0.1,0,0.3,0.1,0.6,0.3c0.4,0.2,1,0.7,1.7,1.3
			c0.4,0.4,0.8,0.9,1.1,1.3c0.3,0.4,0.6,0.8,0.9,1.2c0.4,0.5,0.7,1,1,1.5l0-4.3l0-2.9v-0.8c-0.1-0.2-0.3-0.4-0.4-0.7
			c-0.4-0.7-1.3-3-1.4-4.3c0-0.3,0.9-0.3,2.2-0.2c0.2,0,0.4,0,0.8,0.1c0.6,0.1,1.4,0.2,2.3,0.5c1.5,0.5,3.9,1.5,4.2,3.9l0.1,0.9
			l0.1,0.4c2.9,2.7,3.7,5.6,3.6,8.1c0,0.9-0.2,1.7-0.4,2.3l1.1-0.2l1.3-0.2l0.2,1.3c0.8,4.6-1.8,8.4-7,9.2v2.6l0,0.8
			c5.1,2.5,9.8,5.6,13.4,8.7l1.1,5.9c-0.8-0.5-1.8-1-1.8-1l0,0c-4.9-2.1-9.3-3.8-12.7-5l0,18.8c0.8,0.5,1.7,0.9,2.5,1.2
			c2.4,1,4.3,1.6,5.1,1.4c0.7-0.2,0.5-1,0.5-1c-0.2-0.7-0.5-1.4-1-2.4c-0.3-0.5-2-4.3-3.1-6.4c3.5,2,10.9,6.7,16.3,9.9v3
			c-0.2,0.2-0.7,0.7-0.7,0.7c-4.8,4.6-12.1,4.6-19.5,2.5l0,18.4c0,2.6,0,5-0.2,7.3c-0.2,2.3-0.7,4.6-1.7,6.6L160,202.4L160,202.4z
			 M156.6,153.8l-0.1-16.3c-4.7-1.4-7.3-1.8-9.3-1.3l0,0l-0.3,0.1l0,0c-0.8,0.3-1,1-1,1.4c-0.1,4.6,8.8,14.2,8.9,14.3
			C155.2,152.6,155.9,153.2,156.6,153.8L156.6,153.8z"/>
		<path class="st1" d="M171.1,168.2c-2.6-0.1-5.3-0.6-8-1.3v-4.3c5.6,2.7,12,3.5,7.7-5l11.4,7C179.3,167.3,175.4,168.3,171.1,168.2
			L171.1,168.2z M156.7,164.6c-7.3-3-14-7.4-17.8-10.6c2.4,0.7,4.9,1.2,7.4,1.8c-27.2-26,0.4-36.4,29.8-11.6
			c-10.4-4.6-18.7-7.1-18.7-7.1c-21.5-6.7-14.6,7.3-4.8,17.7c0.7,0.7,2.2,2.2,4.1,3.7L156.7,164.6L156.7,164.6z"/>
		<path class="st2" d="M175.8,140.3c-7.5-6.5-19-12.5-28.5-13c-2.2-0.1-4.7,0-6.8,0.9c-2.9,1.1-4.5,2.8-5.1,4.8
			c0.9-1.2,2.2-2.2,4.2-2.9c2.1-0.8,4.6-1,6.8-0.9c10.3,0.5,22.9,7.5,30.2,14.5L175.8,140.3L175.8,140.3z M141.2,151.7
			c-1.5-0.4-3-0.7-4.3-1.1c0.2,0.2,1.6,2.1,1.9,2.6c1.6,0.4,3.3,0.8,4.9,1.1C142.9,153.6,142.1,152.7,141.2,151.7 M182.8,164l0-2.4
			l-14.1-8.5c0.2,0.2,1.7,3.2,1.8,3.4L182.8,164L182.8,164z M164.3,162.2c-0.4-0.2-0.8-0.4-1.2-0.6v-2.3c0.7,0.4,1.5,0.8,2.2,1.1
			c2.5,1.1,4.7,1.7,5.9,1.4C171.4,164.6,168.3,163.9,164.3,162.2 M156.6,157.4c-1.3-1-2.4-2.1-3.4-3.2c-2.8-3-9.1-10.7-9-14.8
			c0-1.1,0.4-1.8,1-2.3c0,0.2,0,0.3,0,0.5c-0.1,4.1,6.3,11.8,9,14.8c0.7,0.8,1.5,1.6,2.4,2.3L156.6,157.4L156.6,157.4z M161.7,126.5
			l0,4c-0.6-0.3-1.3-0.6-1.9-0.8l0-4.1c0-0.8-1.3-0.9-1.2-0.3l0,4c-0.3-0.1-0.6-0.2-0.9-0.3l0-3.3l-0.2-0.1
			c-2.5-1.2-4.7-3.5-5.7-6.4c0,0,0-0.1,0-0.1c-0.4-1.1-0.6-2.2-0.7-3.3c0-0.4,0-2.9-0.7-5.4c0,0,0.7,0.1,1.9,1.3
			c0.7,0.7,1.3,1.7,1.9,2.4c1.2,1.6,2.1,3.3,3.5,4l0-1.4c0-2.8,0.1-10.2,0.1-10.3c0,0-1.2-1.3-1.4-3.4c0-0.1,5.8,0.3,6.2,3.3
			c0,0-1.1,0.7-1.1,0.8c8.2,5.7,3.6,12.4,3.6,12.4c2-0.3,3.1-0.5,3.6-0.6C169.4,122.9,167,126.3,161.7,126.5 M158.6,105.1
			c0-0.1-0.7-0.5-1.4-1.5c0.3,0.8,0.6,1.5,1.2,2.2c0.8-0.2,1.8,0.3,2.5,0.7C159.8,105.1,159.2,105.2,158.6,105.1 M158.5,106.7
			l0,11.7c0.1,0.1,0.8,0.4,1.1,0.4l-0.1-12C159.5,106.3,158.5,106.3,158.5,106.7 M160.9,108c2.5,6.1,0.7,10.6,0.7,10.7
			C164.7,118.3,165.8,111.5,160.9,108 M164.1,110.3c1.2,2.5,1.6,7-1.2,9l0.9,0C166.6,117.1,165.4,111.4,164.1,110.3 M167.7,120
			c-4.6,1.2-9.9,0.1-12.3-2.8c-1-1.2-1.9-3-3.7-4.8c0.4,2.2,0.4,2.9,0.4,3.7c0.3,3.5,2.1,6.5,5.8,8.2h0c0,0,0-0.1,0-0.1
			c0.1-0.6,0.9-1,1.8-0.8c0.8,0.1,1.3,0.5,1.5,0.9c0,0,0,0,0,0c1.3-0.3,2.5-1,3-1.8c-2.4,0.1-5.8-0.7-8.7-4
			c3.9,3.1,8.4,3.1,11.3,2.4c0.1,1.7-2.3,3.6-3.6,4.3C165.7,124.5,168.2,122.4,167.7,120 M158.6,138.2l0.2,41l0.1,10.7
			c0.2-0.4,0.9-1.9,1-7.1l-0.1-44.1c0.6,0.2,1.2,0.4,1.9,0.6l0,46.8c0,5,0.1,9.6-1.7,13.2c-1.8-4-1.8-8.6-1.8-13.6l-0.4-47.7
			C158,138,158.3,138.1,158.6,138.2"/>
	</g>
</g>
</svg>
