<?xml version="1.0" encoding="utf-8"?>
<!-- Generator: Adobe Illustrator 26.2.1, SVG Export Plug-In . SVG Version: 6.00 Build 0)  -->
<svg version="1.1" id="Layer_1" xmlns="http://www.w3.org/2000/svg" xmlns:xlink="http://www.w3.org/1999/xlink" x="0px" y="0px"
	 viewBox="0 0 1080 1080" style="enable-background:new 0 0 1080 1080;" xml:space="preserve">
<style type="text/css">
	.st0{fill:#231F20;}
	.st1{fill:#061922;}
	.st2{fill:#008248;}
	.st3{fill:none;stroke:#008248;stroke-width:0.3058;}
	.st4{fill:#FFFFFF;}
	.st5{fill:#A63732;}
	.st6{fill:none;stroke:#A63732;stroke-width:0.3058;}
	.st7{fill:#BA9653;}
	.st8{fill:none;stroke:#BA9653;stroke-width:0.3058;}
	.st9{fill:#F9B282;}
	.st10{fill:none;stroke:#F9B282;stroke-width:0.3058;stroke-linecap:round;}
	.st11{fill:none;stroke:#F9B282;stroke-width:0.3058;}
	.st12{fill:none;stroke:#00A55C;stroke-width:0.3058;}
</style>
<g>
	<path class="st0" d="M869,518.2c0-87.9-34.2-170.5-96.4-232.6c-53.7-53.7-122.6-86.5-197-94.5c-1.7-1.7-3.7-3.3-5.9-4.7
		c-26.3-16.9-48.3-4.4-63.6,3.1c-1.1,0.5-2.4,1.2-3.8,1.9c-28.7,3.3-56.3,10.3-82.2,20.5c-3.1-4.6-6.6-8.9-10.6-12.9
		c-15.9-15.9-37-24.6-59.5-24.6c-46.4,0-84.2,37.8-84.2,84.2c0,19.5,6.6,37.9,18.6,52.8c-45.9,56.6-73.5,128.6-73.5,207
		c0,87.9,34.2,170.5,96.4,232.6c30.4,30.3,65.6,54,104,70.3c-2.2,17.4,0.7,29.2,3.8,34c-4.8,4.1-6.9,6.6-7.6,11.2
		c-7.6,10.4,10.9,23.6,18.6,29.5c15.7,12,23.9,9.9,36.1,9.4c15.1-0.6,29.2-18.3,37.4-29.7c16.3-2.3,19.3,0.2,19.8,2.3
		c5.1-0.8,12.2-2,21.9-6.1c22-9.2,15.8-20.6,13.5-22.6c-0.6-0.5-1.1-1.3-1.5-2.2c52.1-2,102.2-16.2,146.8-41.1
		c1.6,1.8,3.2,3.8,4.8,6.1c4.8,7.1,7.4,30.3,8.4,42.2c1,12,3,20.1,8.9,38.9c5.8,18.8,8.1,5.1,8.4,0c0.2-5.1,1.3-23.4,0.5-36.6
		c-0.8-13.2-1-32.3,1.5-40.4c2.5-8.1-2-10.2-3.3-11.7c-1.3-1.5,0-2-3.3-12.5c-0.2-0.6-0.3-1.2-0.5-1.8
		c16.7-11.5,32.5-24.6,47.2-39.2C834.8,688.7,869,606.1,869,518.2"/>
	<path class="st1" d="M869,518.2c0-87.9-34.2-170.5-96.4-232.6c-53.7-53.7-122.6-86.5-197-94.5c-1.7-1.7-3.7-3.3-5.9-4.7
		c-26.3-16.9-48.3-4.4-63.6,3.1c-1.1,0.5-2.4,1.2-3.8,1.9c-28.7,3.3-56.3,10.3-82.2,20.5c-3.1-4.6-6.6-8.9-10.6-12.9
		c-15.9-15.9-37-24.6-59.5-24.6c-46.4,0-84.2,37.8-84.2,84.2c0,19.5,6.6,37.9,18.6,52.8c-45.9,56.6-73.5,128.6-73.5,207
		c0,87.9,34.2,170.5,96.4,232.6c30.4,30.3,65.6,54,104,70.3c-2.2,17.4,0.7,29.2,3.8,34c-4.8,4.1-6.9,6.6-7.6,11.2
		c-7.6,10.4,10.9,23.6,18.6,29.5c15.7,12,23.9,9.9,36.1,9.4c15.1-0.6,29.2-18.3,37.4-29.7c16.3-2.3,19.3,0.2,19.8,2.3
		c5.1-0.8,12.2-2,21.9-6.1c22-9.2,15.8-20.6,13.5-22.6c-0.6-0.5-1.1-1.3-1.5-2.2c52.1-2,102.2-16.2,146.8-41.1
		c1.6,1.8,3.2,3.8,4.8,6.1c4.8,7.1,7.4,30.3,8.4,42.2c1,12,3,20.1,8.9,38.9c5.8,18.8,8.1,5.1,8.4,0c0.2-5.1,1.3-23.4,0.5-36.6
		c-0.8-13.2-1-32.3,1.5-40.4c2.5-8.1-2-10.2-3.3-11.7c-1.3-1.5,0-2-3.3-12.5c-0.2-0.6-0.3-1.2-0.5-1.8
		c16.7-11.5,32.5-24.6,47.2-39.2C834.8,688.7,869,606.1,869,518.2"/>
	<path class="st2" d="M462.2,825.2c12.2-0.5,29.2-4.3,37-7.6c1,0.3,2.7,1.3,5.2,2.3c1-8.1-4.2-25-7.1-32.8c-1.9-5.2-3.8-8.7-6.1-14
		c-6.9-1.3-15.4-5-21.5-7.5c0,4.8,0.9,17.4,1.9,25.8c-2.5,0.3-6.1,0.5-10.4,0.5C461.7,801,462.7,817.5,462.2,825.2"/>
	<path class="st3" d="M462.2,825.2c12.2-0.5,29.2-4.3,37-7.6c1,0.3,2.7,1.3,5.2,2.3c1-8.1-4.2-25-7.1-32.8c-1.9-5.2-3.8-8.7-6.1-14
		c-6.9-1.3-15.4-5-21.5-7.5c0,4.8,0.9,17.4,1.9,25.8c-2.5,0.3-6.1,0.5-10.4,0.5C461.7,801,462.7,817.5,462.2,825.2z"/>
	<path class="st2" d="M692.3,798.2c-2.3-2.3,2.8-9.4,5.1-22.6c2.3-13.2,2.5-35.3-7.1-47.8c-4.7-6.1-7-9.9-7.8-12.6
		c-30.1,21.9-64.6,36.4-101.3,42.7c-0.4,0.8-0.9,1.5-1.3,2c-5.3,6.9-15.8,16.8-23.4,20.8c-7.6,4.1-16.5,7.1-21.4,8.7
		c-1,8.1-2.3,26.3-0.2,32.6c0.8,2.3,10.2,7.9,13.5,14c0.3,0.6,0.7,1.3,1,1.9c51.9-1.5,100.7-15.4,143.6-38.9
		C692.7,798.6,692.5,798.4,692.3,798.2"/>
	<path class="st3" d="M692.3,798.2c-2.3-2.3,2.8-9.4,5.1-22.6c2.3-13.2,2.5-35.3-7.1-47.8c-4.7-6.1-7-9.9-7.8-12.6
		c-30.1,21.9-64.6,36.4-101.3,42.7c-0.4,0.8-0.9,1.5-1.3,2c-5.3,6.9-15.8,16.8-23.4,20.8c-7.6,4.1-16.5,7.1-21.4,8.7
		c-1,8.1-2.3,26.3-0.2,32.6c0.8,2.3,10.2,7.9,13.5,14c0.3,0.6,0.7,1.3,1,1.9c51.9-1.5,100.7-15.4,143.6-38.9
		C692.7,798.6,692.5,798.4,692.3,798.2z"/>
	<path class="st2" d="M766,292.2c-50.1-50.1-114-81.5-183.1-90.8c5.5,10.9,6.4,23.5,6.9,31.5c9.9-4.3,17.6-6.6,21.6-13.2
		c4.1-6.6,9.7-5.3,13.2-0.5c3.6,4.8,3.6,10.9-5.8,16.8c-9.4,5.9-16.3,8.6-18.3,9.7c-2,1-0.2,2.8,2,6.6c2.3,3.8,8.1,13.2,9.1,33.1
		c0,0.2,0,0.4,0,0.6c37.4,11.5,71.6,32,100.1,60.5c45.9,45.9,71.2,106.9,71.2,171.9c0,37.3-8.4,73.3-24.2,105.9
		c2.1,1.1,4.9,8.5,5.9,18.2c0.5,5.1,0.3,10.7-1.3,14.2c-1.5,3.6-13.5,21.6-19.6,27c-2.3,2-7.6,1.8-9.9-1.5c-2.3-3.3-2.5-1.5-4.3,0.2
		c-1.8,1.8-7.9,10.7-9.4,13c-1.5,2.3-6.6,4.6-3.3,13.7c3.3,9.2,7.1,16,5.8,21.1c-1.3,5.1-1.8,6.6,5.1,12.4c6.9,5.9,6.6,13,3.6,17.6
		c-1.9,2.9-4.9,10.5-6.1,18.4c81.2-58,134.3-153.1,134.3-260.3C859.7,432.8,826.4,352.5,766,292.2"/>
	<path class="st3" d="M766,292.2c-50.1-50.1-114-81.5-183.1-90.8c5.5,10.9,6.4,23.5,6.9,31.5c9.9-4.3,17.6-6.6,21.6-13.2
		c4.1-6.6,9.7-5.3,13.2-0.5c3.6,4.8,3.6,10.9-5.8,16.8c-9.4,5.9-16.3,8.6-18.3,9.7c-2,1-0.2,2.8,2,6.6c2.3,3.8,8.1,13.2,9.1,33.1
		c0,0.2,0,0.4,0,0.6c37.4,11.5,71.6,32,100.1,60.5c45.9,45.9,71.2,106.9,71.2,171.9c0,37.3-8.4,73.3-24.2,105.9
		c2.1,1.1,4.9,8.5,5.9,18.2c0.5,5.1,0.3,10.7-1.3,14.2c-1.5,3.6-13.5,21.6-19.6,27c-2.3,2-7.6,1.8-9.9-1.5c-2.3-3.3-2.5-1.5-4.3,0.2
		c-1.8,1.8-7.9,10.7-9.4,13c-1.5,2.3-6.6,4.6-3.3,13.7c3.3,9.2,7.1,16,5.8,21.1c-1.3,5.1-1.8,6.6,5.1,12.4c6.9,5.9,6.6,13,3.6,17.6
		c-1.9,2.9-4.9,10.5-6.1,18.4c81.2-58,134.3-153.1,134.3-260.3C859.7,432.8,826.4,352.5,766,292.2z"/>
	<path class="st2" d="M398.9,754.2c-0.9-8.6-2.2-24.2,3.8-35.3c-12.3-8.4-23.9-18-34.6-28.8c-45.9-45.9-71.2-107-71.2-171.9
		c0-69.5,29.3-132.3,76.3-176.7c0.4-0.9,1-1.8,1.7-2.7c-7.9,2.4-16.3,3.7-24.9,3.7c-22.4,0-43.5-8.7-59.3-24.5
		c-45.6,56.6-70.3,126.4-70.3,200.1c0,85.4,33.2,165.7,93.6,226c28.9,28.9,62.5,51.6,98.9,67.4c1.4-6.8,3.5-14.3,6.6-22.4
		c2.8-7.4-1.5-24.4-8.6-33.3C407,755,402.2,754.5,398.9,754.2"/>
	<path class="st3" d="M398.9,754.2c-0.9-8.6-2.2-24.2,3.8-35.3c-12.3-8.4-23.9-18-34.6-28.8c-45.9-45.9-71.2-107-71.2-171.9
		c0-69.5,29.3-132.3,76.3-176.7c0.4-0.9,1-1.8,1.7-2.7c-7.9,2.4-16.3,3.7-24.9,3.7c-22.4,0-43.5-8.7-59.3-24.5
		c-45.6,56.6-70.3,126.4-70.3,200.1c0,85.4,33.2,165.7,93.6,226c28.9,28.9,62.5,51.6,98.9,67.4c1.4-6.8,3.5-14.3,6.6-22.4
		c2.8-7.4-1.5-24.4-8.6-33.3C407,755,402.2,754.5,398.9,754.2z"/>
	<path class="st2" d="M483.6,203.5c-20.2,3.6-39.9,9.1-58.8,16.4c6.1,11.8,9.4,24.9,9.4,38.6c0,18.1-5.7,35.3-16.2,49.7
		c17.6-10.2,36.6-18.4,56.6-24c1.3-1.3,2.6-2.5,3.9-3.6c-7.4-12.2-17.3-31.8-8.6-58.2C472.3,214.8,477.6,208.6,483.6,203.5"/>
	<path class="st3" d="M483.6,203.5c-20.2,3.6-39.9,9.1-58.8,16.4c6.1,11.8,9.4,24.9,9.4,38.6c0,18.1-5.7,35.3-16.2,49.7
		c17.6-10.2,36.6-18.4,56.6-24c1.3-1.3,2.6-2.5,3.9-3.6c-7.4-12.2-17.3-31.8-8.6-58.2C472.3,214.8,477.6,208.6,483.6,203.5z"/>
	<path class="st4" d="M611.5,299.8c7.1,3.6,15.1,11.3,11.9,25.7c-1.3,5.9-6.2,11.5-6.6,13.7c-0.8,3.8-8.8,10.3-11.3,15.4
		c-2.5,5-2.9,9.3-2.2,11.5c0,0,0,0,0,0.1c4.1,3.8,13.2,8.9,18.3,10.7c4,1.4,3.7,2.5,2,5.1c2.8,0.3,4.2,2,6.9,5.1
		c2.8,3.3,10.2,1.3,14.8-1c4.6-2.3,10.4-3.1,15,2.5c4.6,5.6,11.4,16,14.8,25.7c3.3,9.7,6.9,17.5,7.9,19.1c1,1.5-3.6,29.5-4.8,40.7
		c-1.3,11.2-2.3,16-2.5,17.8c-0.3,1.8,7.1-6.4,7.4,3.3c0.2,7.7,3.8,32.4,8,50.7c1,4.7,2.1,8.9,3.2,12.3c3,0.5,5.6,6.6,7.4,16
		c1.8,9.4,5.6,15.3,5.8,19.8c0.2,4.6,1.5,5.3,3,6.1c1.5,0.8,1,3-3.6,8.4c1,0.8,2.5,2.3,3.6,3.3c1.3-1.3,4.8-5.3,4.8-5.3
		s14,5.6,17,6.6c3.1,1,6.7-6.5,15.8-2.5c2.5,1.1,5.2,4.5,7.2,7.9c14.3-30.5,22.2-64.4,22.2-100.2c0-63.4-24.7-123.1-69.6-167.9
		c-27.4-27.4-60.2-47.2-96.1-58.5C611.7,295.3,611.5,298.6,611.5,299.8"/>
	<path class="st4" d="M685,699.8c-3.6-1.8-5.9,0.8-7.6-13.2c-0.5-4.1-3.8-9.4-6.4-11.9c-2.5-2.5-2.8-7.3-1.5-11.4
		c2-6.4,2.5-12.2,2.3-17.3c-0.2-5.1,0.8-11.4,7.9-14.5c-2.5-2.8-3.8-6.4-4.6-9.2c-10.4-3.4-12.5-3.7-14.6-8.8
		c-3.5-8.5-5.7-20.8-6.8-27.6c-0.5-3.3-0.9-6.4-1-9.2c-3.3-6.3-10.8-20.4-16.5-30.9c-2.1-4-4-7.4-5.4-9.8c-5.1-8.9,0-20.6,2.5-27.5
		c2.5-6.9,4.6-13,2.3-19.8c-2.3-6.9-2.3-8.4-2.8-11.2c-0.5-2.8-2.8-6.4-5.9,3.3c-3,9.7-8.9,23.9-12.2,38.6
		c-1.9,8.4-3.2,17.5-2.7,26.3c0.3,6.7,1.7,13.3,4.5,19.2c6.6,13.7,14.5,26.4,13.5,34.1c-1,7.6-2.7,7.9-2.8,9.2
		c-1.3,14.8-7.6,43-10.9,51.1c-3.3,8.1-16.3,37.6-19.1,50.1c-2.1,9.5-8,30-13,42.1c38.1-7.2,72.9-23.5,102.3-46.5
		C687.3,702.9,687.2,700.9,685,699.8"/>
	<path class="st4" d="M402.3,366.1c2.8,3.7,6.5,7,11.3,9.5c12.5,6.4,15,10.9,15,21.9c0,10.9,2,33.3,5.6,37.1
		c2.3-2.3,4.8-5.6,5.3-6.6c3.6,6.6,10.7,18.8,22.1,26.4c0.8,0.5,0.4,3.3,2.3,3.8c3.8,1,28.5,4.8,29.2,9.9
		c5.1-5.1,13.2-17.8,14.8-22.1c1.5-4.3,10.4-18.1,17-25.7c0-3.1,0-4.8,0.3-5.6c-1.8,1.5-4.6,5.3-8.6,7.1c-4.1,1.8-18.3,7.9-28.5,13
		c-3.6,1.8-9.9,3.8-12.5-14.7c-2.5-18.6,0-28.2,1.8-32.5c1.8-4.3,5.1-8.1,11.4-6.4c6.4,1.8,16.5,5.6,19.3,5.6c0.5-2,2.3-5.8-4.6-6.6
		c-4.9-0.5-17.6-4.2-24.8-14c-2.9-4-4.9-9-5.2-15.2c-14.5,2.3-47.8,6.6-55.2,8.4c-7.4,1.8-13.6,3.3-16-13.5c-1-7.1-2.8-17,2.3-13.5
		c4.1-3.1,9.7-6.7,19.6-5.1c1.8,0.3,4.1,1.8,4.8,3.2c0.6,2.5-0.5,6.5-1.7,10.3c-2.2,6.8-6.5,11.7,7.4,8.5
		c14.5-3.3,32.9-6.1,37.8-7.1c0.6-5,4.7-12.6,9.5-18.2c4.9-5.6,5.6-10.2,5.8-11.9c0.3-1.8-1.4-2.2-3.8,0c-2.8,2.5-11.2,7.6-19.1,5.6
		c-3-0.8-6.9-6.6-8.9-9.9c1.7-3.5,5.9-9.5,11.1-15.6c-27.1,8.7-52.4,22.2-74.9,40.2c-0.1,2.8,0.2,9.4,2.1,16.6
		C395.6,353.7,397.9,360.3,402.3,366.1"/>
	<path class="st4" d="M420,713.5c10.4-4.1,18.6-3.9,26.7,6.9c2.3,3.1,4.1,12,23.7,4.1c-10.4-12.5-16.7-27.2-22.4-47
		c-9-31.3-29.4-66.9-21.9-83.2c-4.3-4.1-9.4-19.8-14.7-18.1c-3.6,1.2-8.6,1.3-4.6-10.7c1.8-5.4,4.9-11.9,10.6-19.7
		c7-9.5,18-21,35.7-34.7c1.5-1.3,1.8-2.3,0.8-3.3c-1.8-1.8-3.6-3.8-5.3-4.8c-1.8-1-3.6-0.5-5.1,1c-1.5,1.5-4.1,3.3-5.6,4.3
		c-1.5,1-13.7-10.9-20.1-19.6c-6.4-8.6-13-11.4-15-12.5c2.5-2.8,8.3-8.9,6.1-8.1c-3.8,1.3-10.5,2.1-17.3-5.1
		c-8.4-8.9-5.1-13.5-6.9-14.7c-1.8-1.3-10.9,0.8-17.8-9.9c-6.9-10.7-9.6-15.3-4.1-22.9c2.8-3.8,3.8-5.6,3.1-10.4
		c-0.8-4.8,0-7.9,6.4-14c6.4-6.1,10.2-11.7,13-11.2c2.2,0.4-4.2-7.7-8.1-13.8c-1-1.6-1.9-3.1-2.3-4.3c-1-2.5-2.6-6.7-3-11.3
		c-44.7,44.8-69.3,104.3-69.3,167.6c0,63.4,24.7,123.1,69.6,167.9c10.5,10.5,21.9,19.9,33.9,28.2C411.1,708.7,417.3,710.9,420,713.5
		"/>
	<path class="st5" d="M284.9,212c20.9,5.3,36.5,22.2,43.3,31.6c1.7,2.4,3.6,2,4.3,0.2c1.6-3.8,4.6-16,4.6-25.4
		c0-21.4,2.9-29.8,8.3-39.7C320.4,180.1,298.5,192.9,284.9,212"/>
	<path class="st6" d="M284.9,212c20.9,5.3,36.5,22.2,43.3,31.6c1.7,2.4,3.6,2,4.3,0.2c1.6-3.8,4.6-16,4.6-25.4
		c0-21.4,2.9-29.8,8.3-39.7C320.4,180.1,298.5,192.9,284.9,212z"/>
	<path class="st5" d="M272.3,277.5c39.2,3.6,51.3-18.3,53.9-21.6c2.5-3.3-0.5-5.3-1.8-7.1c-6.8-9.5-21.9-26.2-42.8-31.6
		c-7.3,12.1-11.6,26.2-11.6,41.3C270,265,270.8,271.4,272.3,277.5"/>
	<path class="st6" d="M272.3,277.5c39.2,3.6,51.3-18.3,53.9-21.6c2.5-3.3-0.5-5.3-1.8-7.1c-6.8-9.5-21.9-26.2-42.8-31.6
		c-7.3,12.1-11.6,26.2-11.6,41.3C270,265,270.8,271.4,272.3,277.5z"/>
	<path class="st5" d="M427.7,275.9c-16.5-6.9-36.1-0.5-50.1,11.7c-14,12.2-21.1,21.6-25.9,50.6c-0.6,0-1.2,0-1.8,0
		c-20.7,0-39.5-7.9-53.7-20.8c23.9-6.1,44-17,66.7-38.4c22.6-21.4,33.8-46.3,36.9-58c3.1-11.7-1.3-4.8-3.6,0.5
		c-3.5,8.3-15.3,30.5-38.4,52.1c-23.1,21.6-40.9,32.3-65.1,40.4c-8.1-8.3-14.3-18.3-18.1-29.5c8.1,0.5,33.8-2.4,46.6-13
		c16.9-13.8,18.8-30.3,21.1-53.7c2.3-23.4,5.7-30.3,11.3-39.2c42.4,1.9,76.1,36.9,76.1,79.7C429.6,264.4,428.9,270.3,427.7,275.9"/>
	<path class="st6" d="M427.7,275.9c-16.5-6.9-36.1-0.5-50.1,11.7c-14,12.2-21.1,21.6-25.9,50.6c-0.6,0-1.2,0-1.8,0
		c-20.7,0-39.5-7.9-53.7-20.8c23.9-6.1,44-17,66.7-38.4c22.6-21.4,33.8-46.3,36.9-58c3.1-11.7-1.3-4.8-3.6,0.5
		c-3.5,8.3-15.3,30.5-38.4,52.1c-23.1,21.6-40.9,32.3-65.1,40.4c-8.1-8.3-14.3-18.3-18.1-29.5c8.1,0.5,33.8-2.4,46.6-13
		c16.9-13.8,18.8-30.3,21.1-53.7c2.3-23.4,5.7-30.3,11.3-39.2c42.4,1.9,76.1,36.9,76.1,79.7C429.6,264.4,428.9,270.3,427.7,275.9z"
		/>
	<path class="st5" d="M425.4,283.9c-3.8-5.3-17.4-7.9-39,5.6c-2,1.3-3.4,2.2-1,4.6c4.6,4.6,11.5,13.2,16.3,24.9
		C412.5,309.8,420.8,297.7,425.4,283.9"/>
	<path class="st6" d="M425.4,283.9c-3.8-5.3-17.4-7.9-39,5.6c-2,1.3-3.4,2.2-1,4.6c4.6,4.6,11.5,13.2,16.3,24.9
		C412.5,309.8,420.8,297.7,425.4,283.9z"/>
	<path class="st5" d="M395.3,324c-4.6-11.2-8.4-19.3-12.7-24.9c-2.3-3-2.8-4.3-7.1-0.5c-12,10.6-16.7,26.7-19.2,39.4
		C370.7,336.8,384.1,331.8,395.3,324"/>
	<path class="st6" d="M395.3,324c-4.6-11.2-8.4-19.3-12.7-24.9c-2.3-3-2.8-4.3-7.1-0.5c-12,10.6-16.7,26.7-19.2,39.4
		C370.7,336.8,384.1,331.8,395.3,324z"/>
	<path class="st7" d="M493.4,824.2c1.7-0.8,3.9-1.8,5-1c1,0.8,7.1,5.1,10.9,8.4c3.8,3.3,5.1,4.3,2,6.1c-3.1,1.8-5.8,3.6-5.3,2
		c0.5-1.5,1.3-3.8-0.8-5.8c-2-2-7-5.9-9.1-7.6C494.6,825.1,493.4,824.2,493.4,824.2"/>
	<path class="st8" d="M493.4,824.2c1.7-0.8,3.9-1.8,5-1c1,0.8,7.1,5.1,10.9,8.4c3.8,3.3,5.1,4.3,2,6.1c-3.1,1.8-5.8,3.6-5.3,2
		c0.5-1.5,1.3-3.8-0.8-5.8c-2-2-7-5.9-9.1-7.6C494.6,825.1,493.4,824.2,493.4,824.2z"/>
	<path class="st7" d="M479,828.3c-1.3,1.1-1.5,3.1,0,4.6c1.5,1.5,10,8.6,11.4,10c1.4,1.4,3.4,1.9,5.7,1.4c2.3-0.5-2.7,2.8-4.6,3.2
		c-1.9,0.4-4.1,0.4-6.1-1.5c-2-1.9-13.5-12.7-15.8-14.9c-2.3-2.2,0.6-2.2,2.7-2.4C474.4,828.5,476.2,828.6,479,828.3"/>
	<path class="st8" d="M479,828.3c-1.3,1.1-1.5,3.1,0,4.6c1.5,1.5,10,8.6,11.4,10c1.4,1.4,3.4,1.9,5.7,1.4c2.3-0.5-2.7,2.8-4.6,3.2
		c-1.9,0.4-4.1,0.4-6.1-1.5c-2-1.9-13.5-12.7-15.8-14.9c-2.3-2.2,0.6-2.2,2.7-2.4C474.4,828.5,476.2,828.6,479,828.3z"/>
	<path class="st7" d="M464.7,763.3c0.8,2.3,1,4.4-2.5,3.9c-3.6-0.5-18.6-1.9-22.9-1.9c-1,0-0.6-2.5-2.2-1.5c-1.5,1-0.9,3.3-0.9,5.8
		s-0.2,4.1-0.1,5.8c0.1,2.7,1.8,6.4,8.6,6.7c6.9,0.4,13.3-0.4,15.4-1.8c2-1.4-0.1-3.7-2-3.7c-1.9,0-13.3,0.9-15.8,0
		c-2.4-0.9-4-3.7-2.3-4.8c2-1.4,6,0.4,9.9,0.4c3.9,0,8.1-1,9.2-0.4c1,0.6,2.4,0.4,2.4,5.2c0,1,2.4,1.4,3.6,1.4
		c1.1,0,1.7,1.9,1.5,4.5c-0.1,2.5,0.1,3-4.5,3c-4.6,0-24.3-0.2-27.2-0.2c-1.1,0-1.3-0.9-1.4-3.2c-0.1-2.3-0.9-18.2-1.1-19.5
		c-0.3-1.3,3.1-1.4,5.7-0.9c2.7,0.5,6,1,10.3,1.3c4.3,0.2,10.9,0.9,10.9,0.9s3.3,0.4,3.7-0.6C463.5,762.7,464.5,762.5,464.7,763.3"
		/>
	<path class="st8" d="M464.7,763.3c0.8,2.3,1,4.4-2.5,3.9c-3.6-0.5-18.6-1.9-22.9-1.9c-1,0-0.6-2.5-2.2-1.5c-1.5,1-0.9,3.3-0.9,5.8
		s-0.2,4.1-0.1,5.8c0.1,2.7,1.8,6.4,8.6,6.7c6.9,0.4,13.3-0.4,15.4-1.8c2-1.4-0.1-3.7-2-3.7c-1.9,0-13.3,0.9-15.8,0
		c-2.4-0.9-4-3.7-2.3-4.8c2-1.4,6,0.4,9.9,0.4c3.9,0,8.1-1,9.2-0.4c1,0.6,2.4,0.4,2.4,5.2c0,1,2.4,1.4,3.6,1.4
		c1.1,0,1.7,1.9,1.5,4.5c-0.1,2.5,0.1,3-4.5,3c-4.6,0-24.3-0.2-27.2-0.2c-1.1,0-1.3-0.9-1.4-3.2c-0.1-2.3-0.9-18.2-1.1-19.5
		c-0.3-1.3,3.1-1.4,5.7-0.9c2.7,0.5,6,1,10.3,1.3c4.3,0.2,10.9,0.9,10.9,0.9s3.3,0.4,3.7-0.6C463.5,762.7,464.5,762.5,464.7,763.3z"
		/>
	<path class="st9" d="M373.5,413.2c-3.3-1-5.8,2.8-7.4,5.8c-1.5,3-3.3,6.4,1.5,13.2c4.8,6.9,7.8,11,16.3,10.4
		c4.1-0.2,7.6-3.3,8.9-5.1c1.3-1.8,1.5,1.3-0.5,4.3c-2,3.1-3.6,10.2,0.3,15c3.8,4.8,11.7,8.9,22.1,2.8c10.4-6.1,14.8-13.5,16.5-16.8
		c1.8-3.3,1.8-4.8,0-6.9c-1.8-2-7.6-11.7-8.9-30.8c-0.8-11.4,1.3-18.8-5.8-22.9c-7.1-4.1-23.4-13.7-25.4-32.6
		c-0.8-7.1-0.3-18.1-7.4-12.2c-7.1,5.9-7.1,9.9-7.9,14.2c-0.8,4.3,2.8,10.2,5.8,14.2c3,4.1,6.6,13,9.4,15.3c2.8,2.3,4.6,4.1,6.9,4.3
		c2.3,0.3,11.4,0.3,13.7,1c2.3,0.8,3.6,3.6-2,3.6c-5.6,0-14.2,1.5-18.1,2c-3.8,0.5-7.4,0.8-9.1,8.4c-1.8,7.6-4.3,16.5-4.6,19.3
		c-0.2,2.8-1.8,4.3-1.8,5.9s3,8.9,9.9,1.5c6.9-7.4,9.7-14.8,10.9-18.3c1.3-3.6,2.8-3.1,1.5,2.5c-1.3,5.6-1.7,19.6,1,24.4
		c2.9,5.2,8.7,10.5,16,6.9c1.5-0.8,4.1-2,6.1-1.8c2,0.3-0.4,3.8-2.2,5.3c-1.8,1.5-7.6,8-17.9-1.3c-2.5-2.3-6.1-7.4-6.9-13.7
		c-0.3-2-3.1-2.8-4.3-1c-1.3,1.8-8.1,8.1-13,3.6s-6.8-7.1-4.1-16.8C373.7,415.5,374.7,413.6,373.5,413.2"/>
	<path class="st10" d="M373.5,413.2c-3.3-1-5.8,2.8-7.4,5.8c-1.5,3-3.3,6.4,1.5,13.2c4.8,6.9,7.8,11,16.3,10.4
		c4.1-0.2,7.6-3.3,8.9-5.1c1.3-1.8,1.5,1.3-0.5,4.3c-2,3.1-3.6,10.2,0.3,15c3.8,4.8,11.7,8.9,22.1,2.8c10.4-6.1,14.8-13.5,16.5-16.8
		c1.8-3.3,1.8-4.8,0-6.9c-1.8-2-7.6-11.7-8.9-30.8c-0.8-11.4,1.3-18.8-5.8-22.9c-7.1-4.1-23.4-13.7-25.4-32.6
		c-0.8-7.1-0.3-18.1-7.4-12.2c-7.1,5.9-7.1,9.9-7.9,14.2c-0.8,4.3,2.8,10.2,5.8,14.2c3,4.1,6.6,13,9.4,15.3c2.8,2.3,4.6,4.1,6.9,4.3
		c2.3,0.3,11.4,0.3,13.7,1c2.3,0.8,3.6,3.6-2,3.6c-5.6,0-14.2,1.5-18.1,2c-3.8,0.5-7.4,0.8-9.1,8.4c-1.8,7.6-4.3,16.5-4.6,19.3
		c-0.2,2.8-1.8,4.3-1.8,5.9s3,8.9,9.9,1.5c6.9-7.4,9.7-14.8,10.9-18.3c1.3-3.6,2.8-3.1,1.5,2.5c-1.3,5.6-1.7,19.6,1,24.4
		c2.9,5.2,8.7,10.5,16,6.9c1.5-0.8,4.1-2,6.1-1.8c2,0.3-0.4,3.8-2.2,5.3c-1.8,1.5-7.6,8-17.9-1.3c-2.5-2.3-6.1-7.4-6.9-13.7
		c-0.3-2-3.1-2.8-4.3-1c-1.3,1.8-8.1,8.1-13,3.6s-6.8-7.1-4.1-16.8C373.7,415.5,374.7,413.6,373.5,413.2z"/>
	<path class="st9" d="M378.5,399c-1.1,3.3-2,7.6-2.5,9.1c-0.5,1.5-2.8,4.8-4.8,0.5c-2-4.3-1.9-7.7,1.3-10.9c1-1,2.5-3.1,3.6-2
		C377,396.7,378.8,398.2,378.5,399"/>
	<path class="st10" d="M378.5,399c-1.1,3.3-2,7.6-2.5,9.1c-0.5,1.5-2.8,4.8-4.8,0.5c-2-4.3-1.9-7.7,1.3-10.9c1-1,2.5-3.1,3.6-2
		C377,396.7,378.8,398.2,378.5,399z"/>
	<path class="st9" d="M390,387.3c-2.1,1-6.6,1-8.1,4.6c-1,2.3-5.1-0.3-3.1-3.1c2-2.8,3.6-2.5,4.8-3.3c1.3-0.8,1.8-3.1,4.3-1.8
		C390.5,385,391,386.8,390,387.3"/>
	<path class="st10" d="M390,387.3c-2.1,1-6.6,1-8.1,4.6c-1,2.3-5.1-0.3-3.1-3.1c2-2.8,3.6-2.5,4.8-3.3c1.3-0.8,1.8-3.1,4.3-1.8
		C390.5,385,391,386.8,390,387.3z"/>
	<path class="st9" d="M557.6,261.4c-7.1,0.8-13.7,5.1-20.3,9.7c-6.6,4.6-30.5,24.7-36.1,28.7c5.9,3.1,7.4,9.2,5.3,19.3
		c-0.5,2.3,0,3.1,1.5,1.5c1.5-1.5,8.6-9.2,8.4-15.3c-0.3-6.1-3.1-9.7-3.6-10.4c-0.5-0.8,2-3.8,4.8,2.5c2.8,6.4,2,15.3-6.4,25.2
		c-8.4,9.9-15,9.7-18.6,11.4c-3.6,1.8-7.1,4.6-3.8,9.9c3.3,5.3,9.7,3.3,12.2,1.5c2.5-1.8,6.1-3.8,14.2-3.1c8.1,0.8,10.8-4.4,5.3-9.9
		c-1.8-1.8-6.4-5.8-0.8-5.8c3.3,0,7.4,7.4,9.7,9.4c2.3,2,7.4,2.8,14.2,3.3c6.9,0.5,17.5,3.1,17.5,9.7c0,4.1-2.2,5.3-5.1,2
		c-1.1-1.3-2.8,0.7-4.1,2c-4.3,4.3-15.4,16-23.3,18.1c-7.9,2-10.8-0.2-21.2-5.8c-10.4-5.6-20.1-11.2-22.9-13
		c-2.8-1.8-8.6-5.8-5.9,2.3c2.8,8.1,9.7,16.5,23.4,21.1c13.7,4.6,15.8,6.1,18.8,7.6c3,1.5,1.3,3.1-2.8,2.5c-3.5-0.4-7.4-3.6-4.3,3.3
		c3.1,6.9,7.6,14.2,21.6,12.5c14-1.8,14.4-4.7,23.1-19.3c1.5-2.5,3.1-0.8,2,5.8c6.9-3.3,10.7-4.3,14.7-5.3c4.1-1,14.7-4.6,21.6-17.5
		c3.6-6.6,5.5-8.9,4.8-15.8c-0.2-2.6,3.6-7.6,7.4-11.2c3.8-3.6,14.2-17,8.9-26.7c-5.3-9.7-14.2-4.8-18.6,2.3
		c-4.3,7.1-9.1,15-9.4,27.2c-3-1-6.2,0.1-7.6,2.5c-0.8,1.3-12-0.2-15.8,0.8c-3.8,1-5.1-1.3-1-6.6c4.1-5.3,18.4-24.7,17.5-39.2
		c-0.2-4.3,0.3-5.1,1-8.4c0.9-4.2,1.3-4.3-3.9-7.1c-3.4-1.9-3.6-7.2-4.2-11.2c-0.6-4.3-1.5-4.3-6.4-3.3
		C566.4,269.6,560.4,266,557.6,261.4"/>
	<path class="st11" d="M557.6,261.4c-7.1,0.8-13.7,5.1-20.3,9.7c-6.6,4.6-30.5,24.7-36.1,28.7c5.9,3.1,7.4,9.2,5.3,19.3
		c-0.5,2.3,0,3.1,1.5,1.5c1.5-1.5,8.6-9.2,8.4-15.3c-0.3-6.1-3.1-9.7-3.6-10.4c-0.5-0.8,2-3.8,4.8,2.5c2.8,6.4,2,15.3-6.4,25.2
		c-8.4,9.9-15,9.7-18.6,11.4c-3.6,1.8-7.1,4.6-3.8,9.9c3.3,5.3,9.7,3.3,12.2,1.5c2.5-1.8,6.1-3.8,14.2-3.1c8.1,0.8,10.8-4.4,5.3-9.9
		c-1.8-1.8-6.4-5.8-0.8-5.8c3.3,0,7.4,7.4,9.7,9.4c2.3,2,7.4,2.8,14.2,3.3c6.9,0.5,17.5,3.1,17.5,9.7c0,4.1-2.2,5.3-5.1,2
		c-1.1-1.3-2.8,0.7-4.1,2c-4.3,4.3-15.4,16-23.3,18.1c-7.9,2-10.8-0.2-21.2-5.8c-10.4-5.6-20.1-11.2-22.9-13
		c-2.8-1.8-8.6-5.8-5.9,2.3c2.8,8.1,9.7,16.5,23.4,21.1c13.7,4.6,15.8,6.1,18.8,7.6c3,1.5,1.3,3.1-2.8,2.5c-3.5-0.4-7.4-3.6-4.3,3.3
		c3.1,6.9,7.6,14.2,21.6,12.5c14-1.8,14.4-4.7,23.1-19.3c1.5-2.5,3.1-0.8,2,5.8c6.9-3.3,10.7-4.3,14.7-5.3c4.1-1,14.7-4.6,21.6-17.5
		c3.6-6.6,5.5-8.9,4.8-15.8c-0.2-2.6,3.6-7.6,7.4-11.2c3.8-3.6,14.2-17,8.9-26.7c-5.3-9.7-14.2-4.8-18.6,2.3
		c-4.3,7.1-9.1,15-9.4,27.2c-3-1-6.2,0.1-7.6,2.5c-0.8,1.3-12-0.2-15.8,0.8c-3.8,1-5.1-1.3-1-6.6c4.1-5.3,18.4-24.7,17.5-39.2
		c-0.2-4.3,0.3-5.1,1-8.4c0.9-4.2,1.3-4.3-3.9-7.1c-3.4-1.9-3.6-7.2-4.2-11.2c-0.6-4.3-1.5-4.3-6.4-3.3
		C566.4,269.6,560.4,266,557.6,261.4z"/>
	<path class="st9" d="M527.8,341c-1.4,3.2-5.2,6.2-14.1,5.2c-4.5-0.5-8.8-0.6-9.5,2.9c-0.5,2.4-2.5,2.3-5.3,2.2
		c-2.9-0.1-6.1-0.9-6.2,0.1c-0.1,1,12.5,8.5,16.7,10.4c4.2,1.9,10.3,6.5,15.3,6c6.6-0.6,12.4-3.9,22.1-14.2c4-4.3,7.2-6.5,3.4-8.3
		c-2.6-1.2-5.2-1.5-8.6-1.5C538,343.8,530.6,343.3,527.8,341"/>
	<path class="st11" d="M527.8,341c-1.4,3.2-5.2,6.2-14.1,5.2c-4.5-0.5-8.8-0.6-9.5,2.9c-0.5,2.4-2.5,2.3-5.3,2.2
		c-2.9-0.1-6.1-0.9-6.2,0.1c-0.1,1,12.5,8.5,16.7,10.4c4.2,1.9,10.3,6.5,15.3,6c6.6-0.6,12.4-3.9,22.1-14.2c4-4.3,7.2-6.5,3.4-8.3
		c-2.6-1.2-5.2-1.5-8.6-1.5C538,343.8,530.6,343.3,527.8,341z"/>
	<path class="st9" d="M480.4,341.1c-3.4-0.1-3.8-2.7-1.5-6.5c2.3-3.8,4.4-7.4,7.5-9.7c0.5,1.7,1.5,3.7,3.1,4.6
		c-2,2.2-4.7,4.9-4.2,10.2"/>
	<path class="st11" d="M480.4,341.1c-3.4-0.1-3.8-2.7-1.5-6.5c2.3-3.8,4.4-7.4,7.5-9.7c0.5,1.7,1.5,3.7,3.1,4.6
		c-2,2.2-4.7,4.9-4.2,10.2L480.4,341.1z"/>
	<path class="st1" d="M537.5,303.6c0.6-3.6,0.1-6.5-5.1-2.3c-4.8-3.6-9.1-7.9-10.7-8.9c-1.5-1-2.3-2.5-0.5-4.3
		c1.8-1.8,5,1.3,4.2-3.9c-0.2-1.8,3.9-0.6,5-1.1c1-0.5-0.5-3,4.3-1.8c1.5,0.4,0.9-2.5,3.9-2c3,0.5,4.6,1.7,5.2-0.8
		c0.6-2.4,1.3-3.9,5.2-1.5c2.7,1.7,3.7,0.6,3.9-0.6c0.3-1.3,2.7-0.5,4.8,0.8c2.2,1.3,7.5,3.9,13.9,11.3c1.5,1.8,2.3,3.7,1.3,3.9
		c-1,0.3-2.2,0-2.4,2c-0.3,2-1.3,3.8-2.4,1.5c-1.1-2.3-1.4,0.4-2.3-2c-0.9-2.4-2,0.9-2.7-0.8c-0.8-2.1-1.6,0.4-2.4-1.5
		c-0.4-0.9-2.8,1.1-3.6-0.3c-0.8-1.4-2.4,1.5-3.7-0.1c-1.3-1.7-1.3,1.8-3.3,1c-2-0.8-1.1,1.9-3.2,1c-2-0.9-1.4,2.5-3.3,2
		c-1.9-0.5-1.8,0.4-2.2,2.5c-0.4,2.2-1.3,10.5-1.1,12.6c0.1,2,4.3,1.5,10.7,0.6c6.4-0.9,17.7-4.4,23.4-9.1c2.3-1.9,4.3-1.8,4.7-1.1
		c0.4,0.6-0.6,2.7-2.3,4.1c-1.6,1.4-6,5.8-15.8,7.8c-9.8,1.9-17.9,3.4-19.6,3.1c-1.7-0.4,0.6,2.4,3.6,1.8c1.5-0.3,4.8,5.7,10.2,5.7
		c4.3,0,10.8-4.8,12.6-6.2c1.8-1.4,8.3-4.3,3.9,0c-4.3,4.3-8.9,9-13.5,9.1c-4.6,0.1-11.6-1.4-16.4-4.7c-4.8-3.3-6.6-5.1-5.7-10.2
		C537.1,306.1,537.2,305,537.5,303.6"/>
	<path class="st11" d="M537.5,303.6c0.6-3.6,0.1-6.5-5.1-2.3c-4.8-3.6-9.1-7.9-10.7-8.9c-1.5-1-2.3-2.5-0.5-4.3
		c1.8-1.8,5,1.3,4.2-3.9c-0.2-1.8,3.9-0.6,5-1.1c1-0.5-0.5-3,4.3-1.8c1.5,0.4,0.9-2.5,3.9-2c3,0.5,4.6,1.7,5.2-0.8
		c0.6-2.4,1.3-3.9,5.2-1.5c2.7,1.7,3.7,0.6,3.9-0.6c0.3-1.3,2.7-0.5,4.8,0.8c2.2,1.3,7.5,3.9,13.9,11.3c1.5,1.8,2.3,3.7,1.3,3.9
		c-1,0.3-2.2,0-2.4,2c-0.3,2-1.3,3.8-2.4,1.5c-1.1-2.3-1.4,0.4-2.3-2c-0.9-2.4-2,0.9-2.7-0.8c-0.8-2.1-1.6,0.4-2.4-1.5
		c-0.4-0.9-2.8,1.1-3.6-0.3c-0.8-1.4-2.4,1.5-3.7-0.1c-1.3-1.7-1.3,1.8-3.3,1c-2-0.8-1.1,1.9-3.2,1c-2-0.9-1.4,2.5-3.3,2
		c-1.9-0.5-1.8,0.4-2.2,2.5c-0.4,2.2-1.3,10.5-1.1,12.6c0.1,2,4.3,1.5,10.7,0.6c6.4-0.9,17.7-4.4,23.4-9.1c2.3-1.9,4.3-1.8,4.7-1.1
		c0.4,0.6-0.6,2.7-2.3,4.1c-1.6,1.4-6,5.8-15.8,7.8c-9.8,1.9-17.9,3.4-19.6,3.1c-1.7-0.4,0.6,2.4,3.6,1.8c1.5-0.3,4.8,5.7,10.2,5.7
		c4.3,0,10.8-4.8,12.6-6.2c1.8-1.4,8.3-4.3,3.9,0c-4.3,4.3-8.9,9-13.5,9.1c-4.6,0.1-11.6-1.4-16.4-4.7c-4.8-3.3-6.6-5.1-5.7-10.2
		C537.1,306.1,537.2,305,537.5,303.6z"/>
	<path class="st1" d="M611.5,319.7c-3,2.1-4.6,2.8-4.8,6.4c-0.2,3.6-1,9.6-2.3,10.2c-1.7,0.7-1.5-3.3-2-2c-0.8,1.8-2.9,1-3.6-0.6
		c-0.3-0.7-6.6-0.6-1.5-8c4.6-6.7,8.1-10.2,11.4-11.7C612,312.3,617.6,315.3,611.5,319.7"/>
	<path class="st11" d="M611.5,319.7c-3,2.1-4.6,2.8-4.8,6.4c-0.2,3.6-1,9.6-2.3,10.2c-1.7,0.7-1.5-3.3-2-2c-0.8,1.8-2.9,1-3.6-0.6
		c-0.3-0.7-6.6-0.6-1.5-8c4.6-6.7,8.1-10.2,11.4-11.7C612,312.3,617.6,315.3,611.5,319.7z"/>
	<path class="st9" d="M735.9,621.9c-1.2-3,0.9-8,7.2-4.4c6.4,3.6,11.2,6.6,6.6,20.6c-4.6,14-7.9,22.1-9.6,28
		c-1.8,5.8-8.7,13.2-6.4,3.3c2.3-9.9,3.5-21.9,2.5-28c-1.8-11.2,1.8-10.5,0.6-15.6C736.6,624.1,736.4,623,735.9,621.9"/>
	<path class="st10" d="M735.9,621.9c-1.2-3,0.9-8,7.2-4.4c6.4,3.6,11.2,6.6,6.6,20.6c-4.6,14-7.9,22.1-9.6,28
		c-1.8,5.8-8.7,13.2-6.4,3.3c2.3-9.9,3.5-21.9,2.5-28c-1.8-11.2,1.8-10.5,0.6-15.6C736.6,624.1,736.4,623,735.9,621.9z"/>
	<path class="st9" d="M760,634c1.8,5.5,3.8,18.1,0.8,23.1c-3,5.1-12.5,19.1-16,22.6c-3.6,3.6-6.4,2-4.1-1.8
		c2.3-3.8,5.3-8.9,5.3-10.7c0-1.8-0.2-3.8,2.8-9.7c3.1-5.8,8.4-25.4,8.9-27C758.2,629.1,759.5,632.4,760,634"/>
	<path class="st10" d="M760,634c1.8,5.5,3.8,18.1,0.8,23.1c-3,5.1-12.5,19.1-16,22.6c-3.6,3.6-6.4,2-4.1-1.8
		c2.3-3.8,5.3-8.9,5.3-10.7c0-1.8-0.2-3.8,2.8-9.7c3.1-5.8,8.4-25.4,8.9-27C758.2,629.1,759.5,632.4,760,634z"/>
	<path class="st9" d="M694.4,681c-1.5-4.6-2.3-11.2-4.8-15c2-5.6,8.7-20.6,20.1-25.2c1.3-0.5,2-1.8,1.5-2.8c-0.5-1,1.5-1.8,2.5,1.8
		c1,3.6,2.8,13.7,2.8,13.7c0.5,2.3-0.5,4.1-1,7.1c-0.5,3.1-1.8,9.9-1,13.5c0.8,3.6,2,6.1,9.2,4.6c3.6-0.8,3.3-1.8,4.3-4.8
		c1-3,3.8-11.7,4.8-16.5c1-4.8,0.1-16.7-0.9-19.7c-1-3.1,0.4-13.4-0.4-15.4c-0.8-2-1.3-5.1-7.6-7.1c-6.4-2-8.1-2.5-12.5,1.8
		c-4.3,4.3-5.9,6.1-7.9,8.1c-2,2-7.1,0.2-2.8-3.8c4.3-4.1,8.4-8.1,9.7-9.4l-1.3-3.3h-2.3c-6.9,6.9-16,10.9-22.1,12.2
		c-2.3,0.5-6.6,0.8-3.6,4.8c0.8,1,1,3.8,2.8,2.8c1.8-1,4.6-5.6,7.1-3.6c2.5,2-0.5,6.9-3.6,9.1c-3,2.3-6.4,4.6-8.6,5.8
		c-2.3,1.3-3.6,2.5-3.3,6.6c0.2,4.1,0.5,11.4-1.8,17c-2.3,5.6-1,7.1,1,10.9c2,3.8,5.3,7.1,6.4,13.2c1,6.1,1.5,7.6,5.6,7.1
		c4.1-0.5,5.6-2.3,7.1-4.8"/>
	<path class="st10" d="M694.4,681c-1.5-4.6-2.3-11.2-4.8-15c2-5.6,8.7-20.6,20.1-25.2c1.3-0.5,2-1.8,1.5-2.8c-0.5-1,1.5-1.8,2.5,1.8
		c1,3.6,2.8,13.7,2.8,13.7c0.5,2.3-0.5,4.1-1,7.1c-0.5,3.1-1.8,9.9-1,13.5c0.8,3.6,2,6.1,9.2,4.6c3.6-0.8,3.3-1.8,4.3-4.8
		c1-3,3.8-11.7,4.8-16.5c1-4.8,0.1-16.7-0.9-19.7c-1-3.1,0.4-13.4-0.4-15.4c-0.8-2-1.3-5.1-7.6-7.1c-6.4-2-8.1-2.5-12.5,1.8
		c-4.3,4.3-5.9,6.1-7.9,8.1c-2,2-7.1,0.2-2.8-3.8c4.3-4.1,8.4-8.1,9.7-9.4l-1.3-3.3h-2.3c-6.9,6.9-16,10.9-22.1,12.2
		c-2.3,0.5-6.6,0.8-3.6,4.8c0.8,1,1,3.8,2.8,2.8c1.8-1,4.6-5.6,7.1-3.6c2.5,2-0.5,6.9-3.6,9.1c-3,2.3-6.4,4.6-8.6,5.8
		c-2.3,1.3-3.6,2.5-3.3,6.6c0.2,4.1,0.5,11.4-1.8,17c-2.3,5.6-1,7.1,1,10.9c2,3.8,5.3,7.1,6.4,13.2c1,6.1,1.5,7.6,5.6,7.1
		c4.1-0.5,5.6-2.3,7.1-4.8L694.4,681z"/>
	<path class="st5" d="M695.9,692.7c-1.8,3.1-4.8,7.9-4.8,12.2c0,4.3-4.3,8.9-3.8,10.9c0.5,2,6.1,7.4,9.4,13c3.3,5.6,7.6,14,7.6,28
		c0,14-4.6,33.1-5.1,35.6c-0.5,2.5-1.8,4.6,2,8.1c3.8,3.6,9.9,10.2,12.2,25.2c2.3,15,3.8,22.9,4.8,23.7c1,0.8,0.8,2,0.8,4.8
		s2.5,18.8,4.3,21.9c1.8,3.1,1.5-17.3,1.3-23.1c-0.3-5.8,0.3-33.8,1.3-37.9c1-4.1,2-8.6-1.5-13.7c-3.6-5.1-9.7-14-5.1-28.7
		c4.6-14.8,11.9-14.5,9.7-20.3c-2.3-5.8-6.4-9.9-9.4-13.2c-3.1-3.3-0.6-11.2-0.8-14.5c-0.2-6.1-5.1-7.1-5.6-14
		c-0.5-6.9-1-12.5,4.1-19.3c5.1-6.9-1.8-6.6-4.1-10.9c-2.3-4.3-3.5-10.1-1.5-19.1c1-4.6,0.5-5.8-0.8-6.4c-1.3-0.5-6.6-1.5-6.6-1.5
		l-7.9,15.8c1.3,3.1,1.8,7.6,1.8,10.7"/>
	<path class="st6" d="M695.9,692.7c-1.8,3.1-4.8,7.9-4.8,12.2c0,4.3-4.3,8.9-3.8,10.9c0.5,2,6.1,7.4,9.4,13c3.3,5.6,7.6,14,7.6,28
		c0,14-4.6,33.1-5.1,35.6c-0.5,2.5-1.8,4.6,2,8.1c3.8,3.6,9.9,10.2,12.2,25.2c2.3,15,3.8,22.9,4.8,23.7c1,0.8,0.8,2,0.8,4.8
		s2.5,18.8,4.3,21.9c1.8,3.1,1.5-17.3,1.3-23.1c-0.3-5.8,0.3-33.8,1.3-37.9c1-4.1,2-8.6-1.5-13.7c-3.6-5.1-9.7-14-5.1-28.7
		c4.6-14.8,11.9-14.5,9.7-20.3c-2.3-5.8-6.4-9.9-9.4-13.2c-3.1-3.3-0.6-11.2-0.8-14.5c-0.2-6.1-5.1-7.1-5.6-14
		c-0.5-6.9-1-12.5,4.1-19.3c5.1-6.9-1.8-6.6-4.1-10.9c-2.3-4.3-3.5-10.1-1.5-19.1c1-4.6,0.5-5.8-0.8-6.4c-1.3-0.5-6.6-1.5-6.6-1.5
		l-7.9,15.8c1.3,3.1,1.8,7.6,1.8,10.7L695.9,692.7z"/>
	<path class="st4" d="M622.4,383.2c-6.3,8.4-16,29.5-20.6,42.7c-4.6,13.2-15,44.8-7.6,65.6c7.4,20.8,21.9,7.6,25.2-0.3
		c3.3-7.9,8.4-21.4,9.9-24.9c1.5-3.6,2.3-5.6,5.1,2.8c2.8,8.4,6.9,28.5,6.9,30.3c0,1.8-2.8,6.9-5.8,14.7c-3.1,7.9-4.8,13.5-1.8,18.3
		c3,4.8,15,25.4,18.8,34.3c2.3,5.3,4.3,6.4,10.4,4.8c6.1-1.5,20.8-6.6,25.2-8.6c4.3-2,2.3-5.6,1-9.9c-1.9-6.6-9.7-43.2-9.7-48.1
		c0-4.8,1.3-11.2-5.1-4.1c-2.3,2.5-5.3,0-4.6-3.6c0.8-3.6,8.4-53.1,8.9-59.3c-4.3-9.4-17-39.2-20.6-44.5c-3.6-5.3-4.8-5.6-10.2-2.8
		c-5.3,2.8-17.3,7.1-21.6-3.1c-0.8-1.8-2-5.8,1-6.4l-2.3-0.8C625,380.7,623.2,382.2,622.4,383.2"/>
	<path class="st4" d="M689,566.1c-4.7,2.7-20.8,9.7-27.5,10.7c-6.8,1-5.1,2.8-3.8,7.9c1.3,5.1,5.1,20.4,7.1,25.7
		c2,5.3,4.8,5.3,10.2,5.1c8.1-0.3,21.9-3.8,31.8-13c-2.8-3.3-7.7-19.2-9.1-25.9C696.1,569.4,696.1,562,689,566.1"/>
	<path class="st4" d="M543.3,419.3c-0.5,1-2.3,4.1-6.4,4.1c-4.1,0-7.4-1.3-9.9,2.3c-2.5,3.6-16.5,20.6-19.6,31
		c3.1,6.4,7.1,17.8,10.2,25.9c9.9-8.4,41.6-39.3,47.6-45.3c2.3-2.3,2.5-4.3-0.8-6.6c-3.3-2.3-15.5-9.9-17.6-11.2
		C544.8,418.3,543.8,418.3,543.3,419.3"/>
	<path class="st4" d="M463.2,464.1c-2,7.8-5.8,21.6-12.2,32.3c2.5,4.1,4.6,7.6,7.6,8.9c7.1-5.1,20.6-17.5,24.4-22.1
		c3.8-4.6,8.6-11.4,8.6-13c0-1.5-1.8-2-4.1-1.5c-2.3,0.5-11.7-3.3-20.9-5.1C464.2,463.1,463.5,463.1,463.2,464.1"/>
	<path class="st4" d="M457.6,456.5c-2.8-0.6-12.5-10.9-15.8-16.5c-3.3-5.6-3.8-5.1-5.1-1c-1.3,4.1-6.1,13-9.4,17.3
		c-3.3,4.3-12,15.5-14.2,18.1c-2.3,2.5,0,3.6,2,5.6c2,2,12.5,14.8,14.8,17.6c2.3,2.8,4.8,7.9,10.9,2.3c6.1-5.6,13.5-15.8,16.8-26.2
		c3.3-10.4,3.6-15.9,6.4-15.3l0.1-2.2l-0.8-1.3l-1.5-1.3c0.4,0.9,0.4,1.7-0.2,2.7C460.9,457.2,458.9,456.7,457.6,456.5"/>
	<path class="st4" d="M613.2,222.5c-6.8,8.1-20.6,15.3-43.7,21.1c-23.1,5.8-45.3,22.1-54.7,30c-9.4,7.9-33.1,27.3-44.5,32
		c-3.1,1.3-9.5,5.6-1.3,6.6c6.1,0.8,10.4-2.8,23.7-12.5c13.2-9.7,23.5-16.6,33.6-26.4c9.4-9.2,26.4-17.8,44.7-22.9
		c18.3-5.1,42.4-13.1,49.3-20.6c3.3-3.6,3.6-5.3,0.5-8.4C617.8,218.5,616,219.2,613.2,222.5"/>
	<path class="st4" d="M496.5,302.5c-2,1.1-2.8,2.3-5.1,9.7c-2.3,7.4-2,11.7-0.1,13.5c1.4,1.3,3.4,1.4,4.4,1.4c0.8,0,1.5,0.3,1.4-1.9
		c-0.1-2.2-0.3-11.4,6.6-15.5c1.3-0.8-0.2-6.1-4.7-5.3C497.5,304.5,499.1,301.1,496.5,302.5"/>
	<path class="st4" d="M418,331.6c3.6,0,5.9,0,5.6,4.1c-0.2,4.1-2,9.7-2.3,13.5c-0.3,3.8-0.3,5.3,2,5.3c2.3,0-3.3,2.3-6.4,2.8
		c-3.1,0.5-7.8,2.3-10.2-10.7c-0.8-4.1-0.5-10.4-1-12C409.1,333.1,413.6,331.6,418,331.6"/>
	<path class="st4" d="M485.6,342.5c0.9,5.1,2.3,5,1.3,5.8c-1,0.8-2.1-1.9-6.2-1.3c-3.9,0.6-36,5.6-38.3,5.9
		c-7.1,0.8-7.5-0.4-0.9-1.8c6.6-1.4,30.8-5.8,38-7.3"/>
	<path class="st4" d="M446.9,731.3c3.3,2,11.2,4.3,24.7-1.3c13.5-5.6,28.5-1.8,30.8,7.9c2.3,9.7,2.4,22.1-1.8,27.5
		c-3.6,4.6-6.9,4.1-10.9,2.8c-7.4-2.3-24.4-10.2-29.2-12.5c-4.8-2.3-13-4.8-18.8-4.8c-2.3-4.8-2-13.2-0.5-16.3
		c1.5-3,1.5-6.1,2.8-5.3C445.2,730.1,446.9,731.3,446.9,731.3"/>
	<path class="st4" d="M500.4,776.3c3.3,0,9.3,1.4,11.2,7.4c1.5,4.8,11.4,6.1,15.8,5.9c4.3-0.3,3.6,2,3.3,4.6c-0.3,2.5-1,10.2-1,13.2
		c0,3.1,0.8,13.7,1.3,15.8c0.5,2-1.3,3.1-3.6,4.1c-2.3,1-10.7,3.6-16-0.2c-2.8-2-6.1-4.8-2.8-5.1c3.3-0.3-4.1-29-6.1-34.1
		C500.4,782.7,494.5,776.3,500.4,776.3"/>
	<path class="st4" d="M412.9,716.3c1.4,0.5,2,1.8,3.1,3.6c1,1.8,1.4,3.3-0.3,5.1c-2.8,3-6.1,17-5.6,27c-1.8-0.5-5.6-1.3-7.6-0.8
		c-0.8-5.6-0.3-23.1,2.3-28.7C407.3,716.9,409.8,715.3,412.9,716.3"/>
	<path class="st4" d="M413.4,871.5c6.3,7.1,18.3,18.1,27.2,21.9c8.9,3.8,14.7,5.1,22.6,4.3c6.4-0.6,5.1,2,0,2.8
		c-5.1,0.8-16.8,0.8-24.4-3.3c-7.6-4.1-19.7-11.6-27.5-22.6C409.6,872,411.3,869.2,413.4,871.5"/>
	<path class="st4" d="M545.9,853.7c-5.2,2.3-14.7,7.1-23.9,9.4c1,4.6,1.3,6.6,1.3,7.9c5.6,0,16.4-3.9,25.2-9.4c2-1.3,2.8-2.8,2-4.6
		C549.7,855.2,548.7,852.4,545.9,853.7"/>
	<path class="st4" d="M485.6,832.8c-1.3-1.3,6-2.8,7.5-2.8c1.8,1.1,5,4,6.2,5.2c0.8,0.8,0.4,1.3-0.4,1.8c-0.8,0.5-5.2,1.6-7.3,1.8
		C489.4,836.7,486.2,833.4,485.6,832.8"/>
	<path class="st4" d="M499.1,727c-2-1.5-1.8-2.3-0.8-3.8c1-1.5,2-2.5,3-3.1c1-0.5,2.5-0.8,4.3,1.8c1.8,2.5,11.4,18.6,13.5,22.9
		c2,4.3,4.6,1.5,3.6-1c-1-2.5-3.1-6.9-3.8-8.1c2.8-8.6,5.6-21.9,5.6-30.5c0-8.6-2-17.3-3.6-20.3c6.9,0.3,21.9,0,27.7-1.8
		c5.8-1.8,1-2.3-1.3-2c-2.3,0.3-18.7,0.2-30.8-1.3c-20.8-2.5-41.3-14.3-47.8-22.4c-1-1.3-7.1-0.8-2,3.3c5.1,4.1,18.1,16.2,37.1,19.6
		c4.3,0.8,11.2,2,12.2,17.8c1,15.8-0.5,25.9-0.5,27.5c0,1.5-1,2-2.3,0.2c-1.3-1.8-5.6-7.6-7.9-8.9c-2.3-1.3-3.8-1-5.8,0.5
		c-2,1.5-5.1,4.6-6.4,6.1"/>
	<path class="st4" d="M458.1,776.7c-1.9,0-13.3,0.9-15.8,0c-2.4-0.9-4-3.7-2.3-4.8c2-1.4,6,0.4,9.9,0.4c3.9,0,8.1-1,9.2-0.4
		c1,0.6,2.4,0.4,2.4,5.2"/>
	<path class="st4" d="M430.4,846.5c-3.3-2-7.1-11.5-7.9-30.3c-0.3-6.4,2.3-17,4.3-22.1c2-5.1-1.3-3.1-2-1.3
		c-0.8,1.8-3.3,8.9-4.1,14.2c-0.8,5.3-2,13.2,0,24.7c2,11.4,3.1,15,3.6,17"/>
	<path class="st7" d="M534.5,222c0.5-1.2,0.9-2.6,1.4-3.7c-1.9,1-3.6,1.9-5.3,2.9C531.7,222.8,533.3,225.3,534.5,222"/>
	<path class="st8" d="M534.5,222c0.5-1.2,0.9-2.6,1.4-3.7c-1.9,1-3.6,1.9-5.3,2.9C531.7,222.8,533.3,225.3,534.5,222z"/>
	<path class="st7" d="M580.4,224.6c-0.8-2.7-3.2,1.5-6.4,5.3c-3.2,3.8-7.8,1.5-8.3-0.4c-0.5-1.9-1.4-4.1-4.2-7.8
		c-2.8-3.7,2.7-8.8,5-9.4c2.3-0.6,5.2-1.1,6-1.8c0.6-0.5-0.5-4.3-1.1-7.2c-9.1,2.6-20.3,7.4-30.1,12.2c3,1.1,2.1,7,1.8,7.8
		c-0.4,0.9-1.4,6,0.9,2.9c2.3-3.1,3.2-4.2,5.6-5c2.4-0.8,5.1-0.6,5.2,2.9c0.1,3.6-1.5,3.3-2,5.6c-0.5,2.3,0,2.2,1.1,2.7
		c1.1,0.5,1.9,2,1,4.5c-0.9,2.4-4.7,2.7-8.1,2.3c-3.4-0.4-3.8,0.1-2.7,1.3c0.9,0.9,2.2,3,2.6,5.1c8.3-4,18.3-7.4,33.8-10.5
		C580.9,232.2,581.1,226.8,580.4,224.6"/>
	<path class="st8" d="M580.4,224.6c-0.8-2.7-3.2,1.5-6.4,5.3c-3.2,3.8-7.8,1.5-8.3-0.4c-0.5-1.9-1.4-4.1-4.2-7.8
		c-2.8-3.7,2.7-8.8,5-9.4c2.3-0.6,5.2-1.1,6-1.8c0.6-0.5-0.5-4.3-1.1-7.2c-9.1,2.6-20.3,7.4-30.1,12.2c3,1.1,2.1,7,1.8,7.8
		c-0.4,0.9-1.4,6,0.9,2.9c2.3-3.1,3.2-4.2,5.6-5c2.4-0.8,5.1-0.6,5.2,2.9c0.1,3.6-1.5,3.3-2,5.6c-0.5,2.3,0,2.2,1.1,2.7
		c1.1,0.5,1.9,2,1,4.5c-0.9,2.4-4.7,2.7-8.1,2.3c-3.4-0.4-3.8,0.1-2.7,1.3c0.9,0.9,2.2,3,2.6,5.1c8.3-4,18.3-7.4,33.8-10.5
		C580.9,232.2,581.1,226.8,580.4,224.6z"/>
	<path class="st7" d="M500.1,274.8c-1.1-2.3-2.8-2.7-3.4-0.9c-0.6,1.8-1.9,7.8-5.9,9.4c-1.3,0.5-2.3,0.9-3,1.1
		c1.4,1.5,2.9,2.8,4.6,4c3.1-3.3,6-6.3,8.8-9.1C501.2,277.9,500.9,276.4,500.1,274.8"/>
	<path class="st8" d="M500.1,274.8c-1.1-2.3-2.8-2.7-3.4-0.9c-0.6,1.8-1.9,7.8-5.9,9.4c-1.3,0.5-2.3,0.9-3,1.1
		c1.4,1.5,2.9,2.8,4.6,4c3.1-3.3,6-6.3,8.8-9.1C501.2,277.9,500.9,276.4,500.1,274.8z"/>
	<path class="st7" d="M538.1,244.4c-1.4-0.5-2.5,1.7-3.4,3.2c-0.9,1.5-2.8,4.1-6.1,3.7c-3.3-0.4-4.1-1.5-5-4.3
		c-0.9-2.8-2.9-3.7-5.3-3.7c-2.4,0-4.1-2.9-1.5-6c2.5-3.1,5.1-1.7,7.1-1.7c2,0,3.1-2.2,1.4-3.3c-1.3-0.9-3.6-3.5-4-5.5
		c-7.2,4.8-17.6,12.1-26.7,20.3c1.7,0.1,3.6,0.7,4.4,1.1c1.1,0.5,3.2,2,2.9,4.3c-0.3,2.3,0.5,2.8,1.9,1.3c1.4-1.5-0.3-6.1,4.4-7.9
		c4.7-1.8,5.3,1.8,5.1,4.2c-0.3,2.4,0,4.7,2.4,5.7c2.4,1,5.2,5-0.1,7.3c-5.3,2.3-8.3,2.8-10.4,3.4c-2.2,0.6-1.7,2.8,0.1,4.2
		c1.1,0.9,1.9,1.7,2.5,2.3c6.7-6.2,13.1-11.3,20.3-16.2c3.9-2.6,7.5-5,11.3-7.2C539.9,247.4,540.1,245.1,538.1,244.4"/>
	<path class="st8" d="M538.1,244.4c-1.4-0.5-2.5,1.7-3.4,3.2c-0.9,1.5-2.8,4.1-6.1,3.7c-3.3-0.4-4.1-1.5-5-4.3
		c-0.9-2.8-2.9-3.7-5.3-3.7c-2.4,0-4.1-2.9-1.5-6c2.5-3.1,5.1-1.7,7.1-1.7c2,0,3.1-2.2,1.4-3.3c-1.3-0.9-3.6-3.5-4-5.5
		c-7.2,4.8-17.6,12.1-26.7,20.3c1.7,0.1,3.6,0.7,4.4,1.1c1.1,0.5,3.2,2,2.9,4.3c-0.3,2.3,0.5,2.8,1.9,1.3c1.4-1.5-0.3-6.1,4.4-7.9
		c4.7-1.8,5.3,1.8,5.1,4.2c-0.3,2.4,0,4.7,2.4,5.7c2.4,1,5.2,5-0.1,7.3c-5.3,2.3-8.3,2.8-10.4,3.4c-2.2,0.6-1.7,2.8,0.1,4.2
		c1.1,0.9,1.9,1.7,2.5,2.3c6.7-6.2,13.1-11.3,20.3-16.2c3.9-2.6,7.5-5,11.3-7.2C539.9,247.4,540.1,245.1,538.1,244.4z"/>
	<path class="st7" d="M488.3,268.2c0.1-2.5-1.8-3.4-3.1-3.8c-0.9-0.3-2.7-2.1-3.4-3.6c-1.3,1.7-2.4,3.4-3.3,5
		c0.6,1.7,1.1,3.3,1.7,4.8C483.3,270.5,488.2,270.3,488.3,268.2"/>
	<path class="st8" d="M488.3,268.2c0.1-2.5-1.8-3.4-3.1-3.8c-0.9-0.3-2.7-2.1-3.4-3.6c-1.3,1.7-2.4,3.4-3.3,5
		c0.6,1.7,1.1,3.3,1.7,4.8C483.3,270.5,488.2,270.3,488.3,268.2z"/>
	<path class="st7" d="M595.7,386.8c-8.3-0.5-18.2,1.2-27.7,4.8c1.7,1,3.4,3.2,6.8,2.1c4.8-1.7,6.5,3.4,4.2,4.8
		c-2.3,1.4-3.1,5,1.3,2.3c4.3-2.7,8.1,1.1,6.4,3.9c-1.8,2.8-4.1,0.6-3.6,4.6c0.5,3.9-0.4,7.5-3.9,8.1c-3.6,0.6-4.3-4.7-6-4.3
		c-1.7,0.4,0.4,9.4-0.4,9.5c-2.5,0.4-4.9,2.6-6.1,3.9c0.1,0.1,0.2,0.1,0.3,0.2c14,10,17.6,4.6,19.6-0.3c2-4.8,6.5-19.1,7.9-26.7
		C595.2,395.4,596.2,390.9,595.7,386.8"/>
	<path class="st8" d="M595.7,386.8c-8.3-0.5-18.2,1.2-27.7,4.8c1.7,1,3.4,3.2,6.8,2.1c4.8-1.7,6.5,3.4,4.2,4.8
		c-2.3,1.4-3.1,5,1.3,2.3c4.3-2.7,8.1,1.1,6.4,3.9c-1.8,2.8-4.1,0.6-3.6,4.6c0.5,3.9-0.4,7.5-3.9,8.1c-3.6,0.6-4.3-4.7-6-4.3
		c-1.7,0.4,0.4,9.4-0.4,9.5c-2.5,0.4-4.9,2.6-6.1,3.9c0.1,0.1,0.2,0.1,0.3,0.2c14,10,17.6,4.6,19.6-0.3c2-4.8,6.5-19.1,7.9-26.7
		C595.2,395.4,596.2,390.9,595.7,386.8z"/>
	<path class="st7" d="M565.3,414.5c0.8-1.9-1.3-3.6-3.4-2.2c-2.2,1.4-5.3,3.4-7.5-0.2c-2.2-3.7,2.4-4.1,2.7-5.8c0.2-1.8-1.5-2-0.6-5
		c0.9-2.9,4-2.1,6.4-0.5c2.7,1.8,1.9-2.4,1.5-4.1c-0.3-1.2-0.5-2.5-0.2-3.5c-2.8,1.2-5.4,2.6-8,4.2c-13.1,8-13.5,14.7-10.4,17.3
		c2.7,2.3,8.3,3.3,17.8,9.5C563.5,421,564.7,416,565.3,414.5"/>
	<path class="st8" d="M565.3,414.5c0.8-1.9-1.3-3.6-3.4-2.2c-2.2,1.4-5.3,3.4-7.5-0.2c-2.2-3.7,2.4-4.1,2.7-5.8c0.2-1.8-1.5-2-0.6-5
		c0.9-2.9,4-2.1,6.4-0.5c2.7,1.8,1.9-2.4,1.5-4.1c-0.3-1.2-0.5-2.5-0.2-3.5c-2.8,1.2-5.4,2.6-8,4.2c-13.1,8-13.5,14.7-10.4,17.3
		c2.7,2.3,8.3,3.3,17.8,9.5C563.5,421,564.7,416,565.3,414.5z"/>
	<path class="st7" d="M523.7,406.9c-5.4-2.7-10.7-8.6-14.2-15.5c0,0,0.2-1-1.3-1s-7.1-0.5-16.5-3.8c-9.4-3.3-10.7-1.3-11.9,2.8
		c-1.3,4.1-2.3,11.4-2.5,23.7c-0.2,12.2,5.1,19.8,8.4,18.6c1.6-0.6,5.8-2.7,10.2-4.9c0.1-2.4,0.2-6.6,0.5-8.6
		c0.4-2.9-2.7-1.8-3.9-0.3c-1.3,1.5-3.7,4.1-6,3.7c-2.3-0.4-3.8-4.4-3.4-8.3c0.4-3.8-4.1-5.3-1.3-10.4c2.8-5.1,5.1,1.3,7.5,0.8
		c2.4-0.5,1.1-1.8,0-5.7c-1.1-3.9,3.6-5.1,6.6-2.3c1.9,1.8,2.8-2.2,5.6-1.7c2.8,0.5,4.4,2.4,2.8,5.2c-1.3,2.2-2.2,7.3,0.3,4.6
		c2.4-2.7,4.8-4.3,7.1-2.5c2.3,1.8,0.8,5.5,0.1,7.4c-0.6,1.9,4.1,4.2,0.8,6.5c-3.3,2.3-7-1.7-8.9-1.1c-1.9,0.5-2.3,2.8,0.3,4.6
		c1.7,1.2,3.4,2.1,4.7,2.6c5.3-1.8,11.5-5.3,13.5-6.5l3.3,0.3C525.5,410.4,525.3,407.6,523.7,406.9"/>
	<path class="st8" d="M523.7,406.9c-5.4-2.7-10.7-8.6-14.2-15.5c0,0,0.2-1-1.3-1s-7.1-0.5-16.5-3.8c-9.4-3.3-10.7-1.3-11.9,2.8
		c-1.3,4.1-2.3,11.4-2.5,23.7c-0.2,12.2,5.1,19.8,8.4,18.6c1.6-0.6,5.8-2.7,10.2-4.9c0.1-2.4,0.2-6.6,0.5-8.6
		c0.4-2.9-2.7-1.8-3.9-0.3c-1.3,1.5-3.7,4.1-6,3.7c-2.3-0.4-3.8-4.4-3.4-8.3c0.4-3.8-4.1-5.3-1.3-10.4c2.8-5.1,5.1,1.3,7.5,0.8
		c2.4-0.5,1.1-1.8,0-5.7c-1.1-3.9,3.6-5.1,6.6-2.3c1.9,1.8,2.8-2.2,5.6-1.7c2.8,0.5,4.4,2.4,2.8,5.2c-1.3,2.2-2.2,7.3,0.3,4.6
		c2.4-2.7,4.8-4.3,7.1-2.5c2.3,1.8,0.8,5.5,0.1,7.4c-0.6,1.9,4.1,4.2,0.8,6.5c-3.3,2.3-7-1.7-8.9-1.1c-1.9,0.5-2.3,2.8,0.3,4.6
		c1.7,1.2,3.4,2.1,4.7,2.6c5.3-1.8,11.5-5.3,13.5-6.5l3.3,0.3C525.5,410.4,525.3,407.6,523.7,406.9z"/>
	<path class="st7" d="M504.9,462.8c-2-4.6-2.7-1.1-8.4,7.9c-2.9,4.5-10.1,12.9-19.1,22.4c6.3,1.3,19.7,4.6,11.7,11.2
		c-8.6,7.1-4.8,6.6-1,6.1c3.8-0.5,10.2,1.8,5.3,10.4c-4.8,8.6-8.1,14.7-12.7,17.5c-4.6,2.8-11.2,2.5-12.7-4.1
		c-1.5-6.6-5.8,0-6.1,4.3c-0.3,4.3-0.8,11.7-0.3,14.2l-9.7-0.5c-0.3-4.1-0.3-12.2,0.5-16c0.8-3.8,0.5-8.4-5.3-6.6
		c-3.8,1.2-6.4,0.2-7.8-0.6c-11.4,10.1-17.1,17.1-21,23.3c2.9,2.6,7.6,4.5,12.5,2.5c5.6-2.3,14.7,0.5,9.1,9.2
		c-5.6,8.6-5.3,13,0.3,7.6c5.6-5.3,14.6-14.5,17.3-4.8c1.8,6.4-4.1,8.4-3.8,13.5c0.2,5.1,5.3,10.2-1.8,16.3
		c-7.1,6.1-10.2-4.3-15-2.8c-2.9,0.9-3.5,3.6-3.3,6c6.3,9,15.5,21.6,18.9,27.1c5.1,8.4,5.1,18.6,7.1,17c2-1.5,6.9-6.1,8.4-7.4
		c1.5-1.3,3.1-2.8,2.3-5.6c-0.8-2.8-3.7-17.8-2.8-28.2c1-11.9,6.6-25,10.7-32.5c3.9-7.2,15.8-30.3,18.6-36.4
		c2.8-6.1,7.9-13.2,9.2-18.8c1.3-5.6,6.1-18.6,8.1-24.7C513.6,485.2,510.3,474.9,504.9,462.8"/>
	<path class="st8" d="M504.9,462.8c-2-4.6-2.7-1.1-8.4,7.9c-2.9,4.5-10.1,12.9-19.1,22.4c6.3,1.3,19.7,4.6,11.7,11.2
		c-8.6,7.1-4.8,6.6-1,6.1c3.8-0.5,10.2,1.8,5.3,10.4c-4.8,8.6-8.1,14.7-12.7,17.5c-4.6,2.8-11.2,2.5-12.7-4.1
		c-1.5-6.6-5.8,0-6.1,4.3c-0.3,4.3-0.8,11.7-0.3,14.2l-9.7-0.5c-0.3-4.1-0.3-12.2,0.5-16c0.8-3.8,0.5-8.4-5.3-6.6
		c-3.8,1.2-6.4,0.2-7.8-0.6c-11.4,10.1-17.1,17.1-21,23.3c2.9,2.6,7.6,4.5,12.5,2.5c5.6-2.3,14.7,0.5,9.1,9.2
		c-5.6,8.6-5.3,13,0.3,7.6c5.6-5.3,14.6-14.5,17.3-4.8c1.8,6.4-4.1,8.4-3.8,13.5c0.2,5.1,5.3,10.2-1.8,16.3
		c-7.1,6.1-10.2-4.3-15-2.8c-2.9,0.9-3.5,3.6-3.3,6c6.3,9,15.5,21.6,18.9,27.1c5.1,8.4,5.1,18.6,7.1,17c2-1.5,6.9-6.1,8.4-7.4
		c1.5-1.3,3.1-2.8,2.3-5.6c-0.8-2.8-3.7-17.8-2.8-28.2c1-11.9,6.6-25,10.7-32.5c3.9-7.2,15.8-30.3,18.6-36.4
		c2.8-6.1,7.9-13.2,9.2-18.8c1.3-5.6,6.1-18.6,8.1-24.7C513.6,485.2,510.3,474.9,504.9,462.8z"/>
	<path class="st7" d="M615.8,575.7c-6.6-10.9-7.9-15.3-8.9-26.4c-0.6-7.1-0.1-16.2,1-25.1c-2-0.2-4.6,0.2-4.8,3.2
		c-0.3,4.8-2.5,11.7-4.1,15.3c-1.5,3.6-6.6,3.3-9.7,3.6c-3.1,0.3-3.1-1.8-1-6.4c2-4.6,2.8-6.6,2.3-10.7c-0.5-4.1-2.5-0.5-4.3,3
		c-1.8,3.6-6.9,10.7-12.7,9.9c-5.8-0.8-4.3-9.7-3.8-12.7c0.5-3.1-1.3-3.6-3.6-4.1c-2.3-0.5-6.9-1.5-4.3-8.9c2.5-7.4,5.3-6.6,8.9-5.3
		c3.6,1.3,4.1-1,0.8-2.3c-3.3-1.3-6.9-4.1-6.6-7.6c0.7-9.4,6.6-8.6,11.2-7.6c4,0.9,9-1.5,12.4-5.2c-0.1-0.2-0.1-0.5-0.2-0.7
		c-6.8-25.9,6.1-57.7,9.7-66.6c3.6-8.9,17.3-33.9,22-41.4c-2.5-1.3-9.3-4.7-13-6.6c-3.7-1.9-5.7-2.8-6.7-1.4c-1,1.4-2.3,2.2-4.1,4.7
		c-3.6,5.1-0.5,4.3,0.5,4.3c1,0,5.3,5.6,6.1,6.9c0.8,1.3,0,2.3-1.8,6.4c-2.3,5.3-3.8,17.5-5.9,24.9c-6.2,22.3-15.8,20.1-20.1,17.3
		c-4.3-2.8-5.6,1.5-9.9,7.6c-1,1.5-3.6,4.2-7,7.7c4.1,1.9,9.7,7.2,3,12.4c-7.9,6.1-9.4,9.4-5.6,8.6c3.8-0.8,7.6-6.6,11.9-2.5
		c4.3,4.1-1.5,8.6-3.8,9.9c-2.3,1.3-6.9,3.6-5.6,8.4c1.3,4.8,2,11.4-4.3,13c-6.4,1.5-8.9-1.3-10.7-4.6c-1.8-3.3-3.6-1-4.3,3.1
		c-0.8,4.1-1.3,7.1-1.3,8.6c0,1.5-4.6-0.8-6.6-2.8c-2-2-4.6,3.6-6.9,0.8c-2.3-2.8,2.8-11.4,4.6-14.5c1.7-2.9,1-6.9-9.1-2.2
		c-3.3,5.5-5.9,13.4-9.9,25.8c-5.6,17-18.3,40.2-23.5,48.7c-13.7,22-16.1,42.8-14.1,55.8c2,12.9,3.8,11.9,6.6,11.9
		c2.8,0,9.7,8.6,14.2,14c4.6,5.3,6.4,3.1,8.6,1.3c7.3-5.7,22.1-15.3,43-25.2c8.9-4.2,20.7-8.7,32.3-12.4c0.2-4.8,1.3-10.6,1.8-12.7
		c0.5-2.5-2-3.3-4.6,0c-2.5,3.3-9.4,11.4-14,9.4c-4.6-2-8.4-7.1-5.8-11.4c2.5-4.3-1-5.6-2.8-7.9c-1.8-2.3-1.8-11.2,3.8-12
		c5.6-0.8,7.4,4.1,11.2,5.3c3.8,1.3,6.9,1,2-4.3c-4.8-5.3-10.7-3.3-7.6-10.7c3.1-7.4,7.4-6.9,12.5-5.3c5.1,1.5,7.6-1.3,10.9-3.6
		c3.3-2.3,9.9-5.3,14.5,0c4.6,5.3-3.3,10.2-5.1,12c-3.4,3.4-4.1,9.9-0.3,6.1c3.8-3.8,10.3-17.6,14.8-6.1c2.5,6.6-2.3,9.2-1.5,13.2
		c0.8,4.1,7.6,9.7,2,14.7c-5.6,5.1-13.5,0.8-16.8-2.3c-3.3-3-6.9-4.6-5.3,1c1.1,4.1,1.7,8.4,1.7,11.1c11.1-3.1,20.8-4.9,25.8-4.5
		c7.3,0.6,12.7,2.8,12.5-3.8C626,591.2,622.4,586.7,615.8,575.7 M525.5,621.2c-6.1,1.8-7.1-1-11.2-2.5c-4.1-1.5-4.3,2-1.5,6.4
		c2.8,4.3,5.9,8.4,2.5,8.4c-3.3,0-5.8,0.5-6.4,3c-0.5,2.6-5.8-0.5-7.1-5.8c-1.3-5.3-2.5-15.5-5.3-10.4c-2.8,5.1-5.3,13.5-12.5,9.7
		c-7.1-3.8-2.3-8.9-5.8-12.5c-3.6-3.6-6.9-8.1-3.3-14.5c3.6-6.4,6.6-1,9.9-1c3.3,0,3.8-3,0.8-5.3c-3.1-2.3-6.9-13.2,7.1-12.5
		c5.4,0.3,11.2-1.5,15.8-4.8c4.6-3.3,16.5-1.5,11.7,6.9c-4.8,8.4-3.3,10.2-0.5,7.1c2.8-3.1,6.4-8.7,11.7-7.1
		c5.3,1.5,3.1,5.6-0.2,10.2c-3.3,4.6-1.3,7.6,1.3,9.4C534.9,607.5,539.6,617.1,525.5,621.2 M551.5,561.2c-4.6,0.3-10.2-1-10.2-1
		c-0.5,4.8-5.2,11.8-9.9,18.8c-0.5,0.8-3.3,0.8-4.6-0.2c-1.3-1-4.8-2.8-2-5.9c2.8-3.1,7.4-9.4,6.6-12.2c-0.8-2.8-2.8-5.3-5.8-1.5
		c-3.1,3.8-7.9,11.7-13.2,12c-5.3,0.2-10.7-4.6-8.1-9.4c2.5-4.8,3.3-7.4-0.3-11.7c-3.6-4.3-2.2-9.9,5.3-13.2c2.3-1,6.4,0,9.2,2.3
		c2.8,2.3,4.3,0,0.5-2.3c-3.8-2.3-6.9-5.1-7.4-10.2c-0.5-4.8,2.5-9.9,9.1-7.1c6.6,2.8,10.7,0.5,13.5-1.8c2.8-2.3,14.7-5.1,13,5.3
		c-1.3,7.6-4.8,7.9-5.8,11.9c-1,4.1,2,1.5,3.8-1.5s5.8-15.5,14.2-6.1c2,2.3,1.3,6.1-1.3,10.4c-2.5,4.3-0.5,6.9,1,9.2
		C560.6,549.3,564.2,560.5,551.5,561.2"/>
	<path class="st8" d="M551.5,561.2c-4.6,0.3-10.2-1-10.2-1c-0.5,4.8-5.2,11.8-9.9,18.8c-0.5,0.8-3.3,0.8-4.6-0.2
		c-1.3-1-4.8-2.8-2-5.9c2.8-3.1,7.4-9.4,6.6-12.2c-0.8-2.8-2.8-5.3-5.8-1.5c-3.1,3.8-7.9,11.7-13.2,12c-5.3,0.2-10.7-4.6-8.1-9.4
		c2.5-4.8,3.3-7.4-0.3-11.7c-3.6-4.3-2.2-9.9,5.3-13.2c2.3-1,6.4,0,9.2,2.3c2.8,2.3,4.3,0,0.5-2.3c-3.8-2.3-6.9-5.1-7.4-10.2
		c-0.5-4.8,2.5-9.9,9.1-7.1c6.6,2.8,10.7,0.5,13.5-1.8c2.8-2.3,14.7-5.1,13,5.3c-1.3,7.6-4.8,7.9-5.8,11.9c-1,4.1,2,1.5,3.8-1.5
		s5.8-15.5,14.2-6.1c2,2.3,1.3,6.1-1.3,10.4c-2.5,4.3-0.5,6.9,1,9.2C560.6,549.3,564.2,560.5,551.5,561.2z"/>
	<path class="st8" d="M525.5,621.2c-6.1,1.8-7.1-1-11.2-2.5c-4.1-1.5-4.3,2-1.5,6.4c2.8,4.3,5.9,8.4,2.5,8.4c-3.3,0-5.8,0.5-6.4,3
		c-0.5,2.6-5.8-0.5-7.1-5.8c-1.3-5.3-2.5-15.5-5.3-10.4c-2.8,5.1-5.3,13.5-12.5,9.7c-7.1-3.8-2.3-8.9-5.8-12.5
		c-3.6-3.6-6.9-8.1-3.3-14.5c3.6-6.4,6.6-1,9.9-1c3.3,0,3.8-3,0.8-5.3c-3.1-2.3-6.9-13.2,7.1-12.5c5.4,0.3,11.2-1.5,15.8-4.8
		c4.6-3.3,16.5-1.5,11.7,6.9c-4.8,8.4-3.3,10.2-0.5,7.1c2.8-3.1,6.4-8.7,11.7-7.1c5.3,1.5,3.1,5.6-0.2,10.2
		c-3.3,4.6-1.3,7.6,1.3,9.4C534.9,607.5,539.6,617.1,525.5,621.2z"/>
	<path class="st8" d="M615.8,575.7c-6.6-10.9-7.9-15.3-8.9-26.4c-0.6-7.1-0.1-16.2,1-25.1c-2-0.2-4.6,0.2-4.8,3.2
		c-0.3,4.8-2.5,11.7-4.1,15.3c-1.5,3.6-6.6,3.3-9.7,3.6c-3.1,0.3-3.1-1.8-1-6.4c2-4.6,2.8-6.6,2.3-10.7c-0.5-4.1-2.5-0.5-4.3,3
		c-1.8,3.6-6.9,10.7-12.7,9.9c-5.8-0.8-4.3-9.7-3.8-12.7c0.5-3.1-1.3-3.6-3.6-4.1c-2.3-0.5-6.9-1.5-4.3-8.9c2.5-7.4,5.3-6.6,8.9-5.3
		c3.6,1.3,4.1-1,0.8-2.3c-3.3-1.3-6.9-4.1-6.6-7.6c0.7-9.4,6.6-8.6,11.2-7.6c4,0.9,9-1.5,12.4-5.2c-0.1-0.2-0.1-0.5-0.2-0.7
		c-6.8-25.9,6.1-57.7,9.7-66.6c3.6-8.9,17.3-33.9,22-41.4c-2.5-1.3-9.3-4.7-13-6.6c-3.7-1.9-5.7-2.8-6.7-1.4c-1,1.4-2.3,2.2-4.1,4.7
		c-3.6,5.1-0.5,4.3,0.5,4.3c1,0,5.3,5.6,6.1,6.9c0.8,1.3,0,2.3-1.8,6.4c-2.3,5.3-3.8,17.5-5.9,24.9c-6.2,22.3-15.8,20.1-20.1,17.3
		c-4.3-2.8-5.6,1.5-9.9,7.6c-1,1.5-3.6,4.2-7,7.7c4.1,1.9,9.7,7.2,3,12.4c-7.9,6.1-9.4,9.4-5.6,8.6c3.8-0.8,7.6-6.6,11.9-2.5
		c4.3,4.1-1.5,8.6-3.8,9.9c-2.3,1.3-6.9,3.6-5.6,8.4c1.3,4.8,2,11.4-4.3,13c-6.4,1.5-8.9-1.3-10.7-4.6c-1.8-3.3-3.6-1-4.3,3.1
		c-0.8,4.1-1.3,7.1-1.3,8.6c0,1.5-4.6-0.8-6.6-2.8c-2-2-4.6,3.6-6.9,0.8c-2.3-2.8,2.8-11.4,4.6-14.5c1.7-2.9,1-6.9-9.1-2.2
		c-3.3,5.5-5.9,13.4-9.9,25.8c-5.6,17-18.3,40.2-23.5,48.7c-13.7,22-16.1,42.8-14.1,55.8c2,12.9,3.8,11.9,6.6,11.9
		c2.8,0,9.7,8.6,14.2,14c4.6,5.3,6.4,3.1,8.6,1.3c7.3-5.7,22.1-15.3,43-25.2c8.9-4.2,20.7-8.7,32.3-12.4c0.2-4.8,1.3-10.6,1.8-12.7
		c0.5-2.5-2-3.3-4.6,0c-2.5,3.3-9.4,11.4-14,9.4c-4.6-2-8.4-7.1-5.8-11.4c2.5-4.3-1-5.6-2.8-7.9c-1.8-2.3-1.8-11.2,3.8-12
		c5.6-0.8,7.4,4.1,11.2,5.3c3.8,1.3,6.9,1,2-4.3c-4.8-5.3-10.7-3.3-7.6-10.7c3.1-7.4,7.4-6.9,12.5-5.3c5.1,1.5,7.6-1.3,10.9-3.6
		c3.3-2.3,9.9-5.3,14.5,0c4.6,5.3-3.3,10.2-5.1,12c-3.4,3.4-4.1,9.9-0.3,6.1c3.8-3.8,10.3-17.6,14.8-6.1c2.5,6.6-2.3,9.2-1.5,13.2
		c0.8,4.1,7.6,9.7,2,14.7c-5.6,5.1-13.5,0.8-16.8-2.3c-3.3-3-6.9-4.6-5.3,1c1.1,4.1,1.7,8.4,1.7,11.1c11.1-3.1,20.8-4.9,25.8-4.5
		c7.3,0.6,12.7,2.8,12.5-3.8C626,591.2,622.4,586.7,615.8,575.7z"/>
	<path class="st2" d="M546.7,239.3c3.4,0.4,7.3,0.1,8.1-2.3c0.9-2.4,0.1-3.9-1-4.5c-1.1-0.5-1.7-0.4-1.1-2.7c0.5-2.3,2.2-2,2-5.6
		c-0.1-3.6-2.8-3.7-5.2-2.9c-2.4,0.8-3.3,1.9-5.6,5c-2.3,3-1.3-2-0.9-2.9c0.4-0.8,1.3-6.7-1.8-7.7c-1.8,0.9-3.5,1.8-5.2,2.6
		c-0.6,1.1-1,2.4-1.5,3.7c-1.3,3.3-2.8,0.8-3.9-0.8c0,0,0,0,0,0c-3.4,1.9-6.4,3.6-8.6,5.1c-0.2,0.2-0.5,0.3-0.8,0.5
		c0.3,2,2.7,4.5,4.1,5.5c1.7,1.1,0.6,3.3-1.4,3.3c-2,0-4.6-1.4-7.1,1.7c-2.5,3-0.9,6,1.5,6c2.4,0,4.4,0.9,5.3,3.7
		c0.9,2.8,1.7,3.9,5,4.3c3.3,0.4,5.2-2.2,6.1-3.7c0.9-1.5,2-3.7,3.4-3.2c2.1,0.8,1.8,2.9,1.2,5.3c2.4-1.4,4.8-2.7,7.4-4
		c-0.4-2.2-1.7-4.1-2.6-5.1C542.9,239.4,543.3,238.9,546.7,239.3"/>
	<path class="st12" d="M546.7,239.3c3.4,0.4,7.3,0.1,8.1-2.3c0.9-2.4,0.1-3.9-1-4.5c-1.1-0.5-1.7-0.4-1.1-2.7c0.5-2.3,2.2-2,2-5.6
		c-0.1-3.6-2.8-3.7-5.2-2.9c-2.4,0.8-3.3,1.9-5.6,5c-2.3,3-1.3-2-0.9-2.9c0.4-0.8,1.3-6.7-1.8-7.7c-1.8,0.9-3.5,1.8-5.2,2.6
		c-0.6,1.1-1,2.4-1.5,3.7c-1.3,3.3-2.8,0.8-3.9-0.8c0,0,0,0,0,0c-3.4,1.9-6.4,3.6-8.6,5.1c-0.2,0.2-0.5,0.3-0.8,0.5
		c0.3,2,2.7,4.5,4.1,5.5c1.7,1.1,0.6,3.3-1.4,3.3c-2,0-4.6-1.4-7.1,1.7c-2.5,3-0.9,6,1.5,6c2.4,0,4.4,0.9,5.3,3.7
		c0.9,2.8,1.7,3.9,5,4.3c3.3,0.4,5.2-2.2,6.1-3.7c0.9-1.5,2-3.7,3.4-3.2c2.1,0.8,1.8,2.9,1.2,5.3c2.4-1.4,4.8-2.7,7.4-4
		c-0.4-2.2-1.7-4.1-2.6-5.1C542.9,239.4,543.3,238.9,546.7,239.3z"/>
	<path class="st2" d="M575.1,202.4c-1.2,0.3-2.4,0.6-3.7,1c0.6,2.9,1.8,6.6,1.1,7.2c-0.8,0.6-3.7,1.1-6,1.8c-2.3,0.6-7.8,5.7-5,9.4
		c2.8,3.7,3.7,5.8,4.2,7.8c0.5,1.9,5.1,4.2,8.3,0.4c3.2-3.8,5.6-8,6.4-5.3c0.6,2.2,0.5,7.7,0,10.6c0.7-0.1,1.3-0.3,2-0.4
		C583.8,220.5,580.2,210.3,575.1,202.4"/>
	<path class="st12" d="M575.1,202.4c-1.2,0.3-2.4,0.6-3.7,1c0.6,2.9,1.8,6.6,1.1,7.2c-0.8,0.6-3.7,1.1-6,1.8c-2.3,0.6-7.8,5.7-5,9.4
		c2.8,3.7,3.7,5.8,4.2,7.8c0.5,1.9,5.1,4.2,8.3,0.4c3.2-3.8,5.6-8,6.4-5.3c0.6,2.2,0.5,7.7,0,10.6c0.7-0.1,1.3-0.3,2-0.4
		C583.8,220.5,580.2,210.3,575.1,202.4z"/>
	<path class="st2" d="M505.3,270.7c-1.8-1.4-2.3-3.6-0.1-4.2c2.2-0.6,5.1-1.1,10.4-3.4c5.3-2.3,2.5-6.2,0.1-7.3
		c-2.4-1-2.7-3.3-2.4-5.7c0.3-2.4-0.4-6-5.1-4.2c-4.7,1.8-3.1,6.4-4.4,7.9c-1.4,1.5-2.2,1-1.9-1.3c0.2-2.3-1.8-3.8-2.9-4.3
		c-0.9-0.4-2.9-0.9-4.5-1c-4.9,4.4-9.3,9-12.7,13.5c0.8,1.6,2.5,3.3,3.5,3.6c1.3,0.4,3.2,1.3,3.1,3.8c-0.1,2.1-5,2.3-8.1,2.4
		c2.2,6.1,4.5,10.4,7.7,13.8c0.7-0.2,1.7-0.5,3-1.1c3.9-1.7,5.2-7.6,5.8-9.4c0.6-1.8,2.3-1.4,3.4,0.9c0.8,1.6,1.1,3.1,1.2,4.5
		c2.2-2.2,4.4-4.3,6.6-6.3C507.2,272.3,506.4,271.6,505.3,270.7"/>
	<path class="st12" d="M505.3,270.7c-1.8-1.4-2.3-3.6-0.1-4.2c2.2-0.6,5.1-1.1,10.4-3.4c5.3-2.3,2.5-6.2,0.1-7.3
		c-2.4-1-2.7-3.3-2.4-5.7c0.3-2.4-0.4-6-5.1-4.2c-4.7,1.8-3.1,6.4-4.4,7.9c-1.4,1.5-2.2,1-1.9-1.3c0.2-2.3-1.8-3.8-2.9-4.3
		c-0.9-0.4-2.9-0.9-4.5-1c-4.9,4.4-9.3,9-12.7,13.5c0.8,1.6,2.5,3.3,3.5,3.6c1.3,0.4,3.2,1.3,3.1,3.8c-0.1,2.1-5,2.3-8.1,2.4
		c2.2,6.1,4.5,10.4,7.7,13.8c0.7-0.2,1.7-0.5,3-1.1c3.9-1.7,5.2-7.6,5.8-9.4c0.6-1.8,2.3-1.4,3.4,0.9c0.8,1.6,1.1,3.1,1.2,4.5
		c2.2-2.2,4.4-4.3,6.6-6.3C507.2,272.3,506.4,271.6,505.3,270.7z"/>
	<path class="st2" d="M572.8,422.6c0.8-0.1-1.3-9.1,0.4-9.5c1.6-0.4,2.4,5,6,4.3c3.6-0.6,4.4-4.2,3.9-8.1c-0.5-3.9,1.8-1.8,3.6-4.6
		c1.8-2.8-2-6.6-6.4-3.9c-4.3,2.7-3.6-0.9-1.3-2.3c2.3-1.4,0.6-6.5-4.2-4.8c-3.5,1.2-5.3-1.1-6.9-2c-1.3,0.5-2.6,1-3.8,1.6
		c-0.3,1-0.1,2.2,0.2,3.5c0.4,1.6,1.1,5.8-1.5,4.1c-2.3-1.5-5.5-2.4-6.4,0.5c-0.9,2.9,0.9,3.2,0.6,5c-0.3,1.8-4.8,2.2-2.7,5.8
		c2.2,3.7,5.3,1.7,7.5,0.2c2.2-1.4,4.2,0.3,3.4,2.2c-0.6,1.5-1.8,6.5-1.9,9.8c1,0.7,2.1,1.4,3.2,2.2
		C567.9,425.2,570.3,423.1,572.8,422.6"/>
	<path class="st12" d="M572.8,422.6c0.8-0.1-1.3-9.1,0.4-9.5c1.6-0.4,2.4,5,6,4.3c3.6-0.6,4.4-4.2,3.9-8.1c-0.5-3.9,1.8-1.8,3.6-4.6
		c1.8-2.8-2-6.6-6.4-3.9c-4.3,2.7-3.6-0.9-1.3-2.3c2.3-1.4,0.6-6.5-4.2-4.8c-3.5,1.2-5.3-1.1-6.9-2c-1.3,0.5-2.6,1-3.8,1.6
		c-0.3,1-0.1,2.2,0.2,3.5c0.4,1.6,1.1,5.8-1.5,4.1c-2.3-1.5-5.5-2.4-6.4,0.5c-0.9,2.9,0.9,3.2,0.6,5c-0.3,1.8-4.8,2.2-2.7,5.8
		c2.2,3.7,5.3,1.7,7.5,0.2c2.2-1.4,4.2,0.3,3.4,2.2c-0.6,1.5-1.8,6.5-1.9,9.8c1,0.7,2.1,1.4,3.2,2.2
		C567.9,425.2,570.3,423.1,572.8,422.6z"/>
	<path class="st2" d="M503.5,413.9c1.9-0.5,5.6,3.4,8.9,1.1c3.3-2.3-1.4-4.6-0.8-6.5c0.6-1.9,2.2-5.6-0.1-7.4
		c-2.3-1.8-4.7-0.1-7.1,2.5c-2.4,2.7-1.5-2.4-0.3-4.6c1.6-2.8,0-4.7-2.8-5.2c-2.8-0.5-3.7,3.4-5.6,1.7c-3-2.8-7.8-1.7-6.6,2.3
		c1.1,3.9,2.4,5.2,0,5.7c-2.4,0.5-4.7-5.8-7.5-0.8c-2.8,5.1,1.7,6.6,1.3,10.4c-0.4,3.8,1.1,7.9,3.4,8.3c2.3,0.4,4.7-2.2,6-3.7
		c1.3-1.5,4.3-2.7,3.9,0.3c-0.3,2-0.4,6.2-0.5,8.6c4.7-2.3,9.7-4.7,12.4-5.6c0.1,0,0.2-0.1,0.3-0.1c-1.3-0.5-3.1-1.4-4.8-2.5
		C501.2,416.7,501.6,414.4,503.5,413.9"/>
	<path class="st12" d="M503.5,413.9c1.9-0.5,5.6,3.4,8.9,1.1c3.3-2.3-1.4-4.6-0.8-6.5c0.6-1.9,2.2-5.6-0.1-7.4
		c-2.3-1.8-4.7-0.1-7.1,2.5c-2.4,2.7-1.5-2.4-0.3-4.6c1.6-2.8,0-4.7-2.8-5.2c-2.8-0.5-3.7,3.4-5.6,1.7c-3-2.8-7.8-1.7-6.6,2.3
		c1.1,3.9,2.4,5.2,0,5.7c-2.4,0.5-4.7-5.8-7.5-0.8c-2.8,5.1,1.7,6.6,1.3,10.4c-0.4,3.8,1.1,7.9,3.4,8.3c2.3,0.4,4.7-2.2,6-3.7
		c1.3-1.5,4.3-2.7,3.9,0.3c-0.3,2-0.4,6.2-0.5,8.6c4.7-2.3,9.7-4.7,12.4-5.6c0.1,0,0.2-0.1,0.3-0.1c-1.3-0.5-3.1-1.4-4.8-2.5
		C501.2,416.7,501.6,414.4,503.5,413.9z"/>
	<path class="st2" d="M447.2,529.7c5.8-1.8,6.1,2.8,5.3,6.6c-0.8,3.8-0.8,12-0.5,16l9.7,0.5c-0.5-2.5,0-9.9,0.3-14.2
		c0.3-4.3,4.6-10.9,6.1-4.3c1.5,6.6,8.1,6.9,12.7,4.1c4.6-2.8,7.9-8.9,12.7-17.5c4.8-8.6-1.5-10.9-5.3-10.4c-3.8,0.5-7.6,1,1-6.1
		c8-6.6-5.5-10-11.7-11.2c-10.2,10.8-22.8,22.9-34.1,32.6c-1.4,1.2-2.8,2.4-4,3.5C440.7,529.9,443.3,530.9,447.2,529.7"/>
	<path class="st12" d="M447.2,529.7c5.8-1.8,6.1,2.8,5.3,6.6c-0.8,3.8-0.8,12-0.5,16l9.7,0.5c-0.5-2.5,0-9.9,0.3-14.2
		c0.3-4.3,4.6-10.9,6.1-4.3c1.5,6.6,8.1,6.9,12.7,4.1c4.6-2.8,7.9-8.9,12.7-17.5c4.8-8.6-1.5-10.9-5.3-10.4c-3.8,0.5-7.6,1,1-6.1
		c8-6.6-5.5-10-11.7-11.2c-10.2,10.8-22.8,22.9-34.1,32.6c-1.4,1.2-2.8,2.4-4,3.5C440.7,529.9,443.3,530.9,447.2,529.7z"/>
	<path class="st2" d="M437,593.8c4.8-1.5,7.9,8.9,15,2.8c7.1-6.1,2-11.2,1.8-16.3s5.6-7.1,3.8-13.5c-2.7-9.7-11.7-0.5-17.3,4.8
		c-5.6,5.3-5.8,1-0.3-7.6c5.6-8.6-3.6-11.4-9.1-9.2c-5,2-9.5,0-12.5-2.6c-2.1,3.4-3.7,6.6-5.3,9.9c-4.8,9.9-1.5,10.2,2,10.2
		c3.6,0,11.2,15,12.2,17.8c0.4,1,3,4.8,6.4,9.7C433.6,597.5,434.1,594.7,437,593.8"/>
	<path class="st12" d="M437,593.8c4.8-1.5,7.9,8.9,15,2.8c7.1-6.1,2-11.2,1.8-16.3s5.6-7.1,3.8-13.5c-2.7-9.7-11.7-0.5-17.3,4.8
		c-5.6,5.3-5.8,1-0.3-7.6c5.6-8.6-3.6-11.4-9.1-9.2c-5,2-9.5,0-12.5-2.6c-2.1,3.4-3.7,6.6-5.3,9.9c-4.8,9.9-1.5,10.2,2,10.2
		c3.6,0,11.2,15,12.2,17.8c0.4,1,3,4.8,6.4,9.7C433.6,597.5,434.1,594.7,437,593.8z"/>
	<path class="st2" d="M511.5,526.6c-0.5-4.8,2.5-9.9,9.1-7.1c6.6,2.8,10.7,0.5,13.5-1.8c2.8-2.3,14.7-5.1,13,5.3
		c-1.3,7.6-4.8,7.9-5.8,11.9c-1,4.1,2,1.5,3.8-1.5s5.8-15.5,14.2-6.1c2,2.3,1.3,6.1-1.3,10.4c-2.5,4.3-0.5,6.9,1,9.2
		c1.5,2.3,5.1,13.5-7.6,14.2c-4.6,0.3-10.2-1-10.2-1c-0.5,4.8-5.2,11.8-9.9,18.8c-0.5,0.8-3.3,0.8-4.6-0.2c-1.3-1-4.8-2.8-2-5.9
		c2.8-3.1,7.4-9.4,6.6-12.2c-0.8-2.8-2.8-5.3-5.8-1.5c-3.1,3.8-7.9,11.7-13.2,12c-5.3,0.3-10.7-4.6-8.1-9.4
		c2.5-4.8,3.3-7.4-0.3-11.7c-3.6-4.3-2.2-9.9,5.3-13.2c2.3-1,6.4,0,9.2,2.3c2.8,2.3,4.3,0,0.5-2.3
		C515.1,534.5,512,531.7,511.5,526.6"/>
	<path class="st12" d="M511.5,526.6c-0.5-4.8,2.5-9.9,9.1-7.1c6.6,2.8,10.7,0.5,13.5-1.8c2.8-2.3,14.7-5.1,13,5.3
		c-1.3,7.6-4.8,7.9-5.8,11.9c-1,4.1,2,1.5,3.8-1.5s5.8-15.5,14.2-6.1c2,2.3,1.3,6.1-1.3,10.4c-2.5,4.3-0.5,6.9,1,9.2
		c1.5,2.3,5.1,13.5-7.6,14.2c-4.6,0.3-10.2-1-10.2-1c-0.5,4.8-5.2,11.8-9.9,18.8c-0.5,0.8-3.3,0.8-4.6-0.2c-1.3-1-4.8-2.8-2-5.9
		c2.8-3.1,7.4-9.4,6.6-12.2c-0.8-2.8-2.8-5.3-5.8-1.5c-3.1,3.8-7.9,11.7-13.2,12c-5.3,0.3-10.7-4.6-8.1-9.4
		c2.5-4.8,3.3-7.4-0.3-11.7c-3.6-4.3-2.2-9.9,5.3-13.2c2.3-1,6.4,0,9.2,2.3c2.8,2.3,4.3,0,0.5-2.3
		C515.1,534.5,512,531.7,511.5,526.6z"/>
	<path class="st2" d="M576.1,493.6c-4.6-1-10.5-1.8-11.2,7.6c-0.3,3.6,3.3,6.4,6.6,7.6c3.3,1.3,2.8,3.6-0.8,2.3s-6.3-2-8.9,5.3
		c-2.5,7.4,2,8.4,4.3,8.9c2.3,0.5,4.1,1,3.6,4.1c-0.5,3-2,11.9,3.8,12.7c5.9,0.8,10.9-6.4,12.7-9.9c1.8-3.6,3.8-7.1,4.3-3
		c0.5,4.1-0.3,6.1-2.3,10.7c-2,4.6-2,6.6,1,6.4c3-0.3,8.1,0,9.7-3.6c1.5-3.6,3.8-10.4,4.1-15.3c0.2-3,2.8-3.4,4.8-3.2
		c0.6-5.2,1.4-10.2,2.1-14.6c-10,1.5-18.5-10.7-21.4-21.3C585.1,492.1,580.1,494.5,576.1,493.6"/>
	<path class="st12" d="M576.1,493.6c-4.6-1-10.5-1.8-11.2,7.6c-0.3,3.6,3.3,6.4,6.6,7.6c3.3,1.3,2.8,3.6-0.8,2.3s-6.3-2-8.9,5.3
		c-2.5,7.4,2,8.4,4.3,8.9c2.3,0.5,4.1,1,3.6,4.1c-0.5,3-2,11.9,3.8,12.7c5.9,0.8,10.9-6.4,12.7-9.9c1.8-3.6,3.8-7.1,4.3-3
		c0.5,4.1-0.3,6.1-2.3,10.7c-2,4.6-2,6.6,1,6.4c3-0.3,8.1,0,9.7-3.6c1.5-3.6,3.8-10.4,4.1-15.3c0.2-3,2.8-3.4,4.8-3.2
		c0.6-5.2,1.4-10.2,2.1-14.6c-10,1.5-18.5-10.7-21.4-21.3C585.1,492.1,580.1,494.5,576.1,493.6z"/>
	<path class="st2" d="M528.6,491.8c-1.8,3.1-6.9,11.7-4.6,14.5s4.8-2.8,6.9-0.8c2,2,6.6,4.3,6.6,2.8s0.5-4.6,1.3-8.6
		c0.8-4.1,2.5-6.4,4.3-3.1c1.8,3.3,4.3,6.1,10.7,4.6c6.4-1.5,5.6-8.1,4.3-13c-1.3-4.8,3.3-7.1,5.6-8.4c2.3-1.3,8.1-5.8,3.8-9.9
		c-4.3-4.1-8.1,1.8-11.9,2.5c-3.8,0.8-2.3-2.5,5.6-8.6c6.8-5.3,1.1-10.5-3-12.4c-10.9,11-30.3,28.9-34.6,33
		c-1.5,1.5-2.8,3.2-4.1,5.2C529.6,484.9,530.3,488.9,528.6,491.8"/>
	<path class="st12" d="M528.6,491.8c-1.8,3.1-6.9,11.7-4.6,14.5s4.8-2.8,6.9-0.8c2,2,6.6,4.3,6.6,2.8s0.5-4.6,1.3-8.6
		c0.8-4.1,2.5-6.4,4.3-3.1c1.8,3.3,4.3,6.1,10.7,4.6c6.4-1.5,5.6-8.1,4.3-13c-1.3-4.8,3.3-7.1,5.6-8.4c2.3-1.3,8.1-5.8,3.8-9.9
		c-4.3-4.1-8.1,1.8-11.9,2.5c-3.8,0.8-2.3-2.5,5.6-8.6c6.8-5.3,1.1-10.5-3-12.4c-10.9,11-30.3,28.9-34.6,33
		c-1.5,1.5-2.8,3.2-4.1,5.2C529.6,484.9,530.3,488.9,528.6,491.8z"/>
	<path class="st2" d="M591.6,594c3.3,3,11.2,7.4,16.8,2.3c5.6-5.1-1.3-10.7-2-14.7c-0.8-4.1,4.1-6.6,1.5-13.2
		c-4.4-11.5-10.9,2.3-14.8,6.1c-3.8,3.8-3.2-2.7,0.3-6.1c1.8-1.8,9.7-6.6,5.1-12c-4.6-5.3-11.2-2.3-14.5,0
		c-3.3,2.3-5.8,5.1-10.9,3.6c-5.1-1.5-9.4-2-12.5,5.3c-3.1,7.4,2.8,5.3,7.6,10.7c4.8,5.3,1.8,5.6-2,4.3c-3.8-1.3-5.6-6.1-11.2-5.3
		c-5.6,0.8-5.6,9.7-3.8,12c1.8,2.3,5.3,3.6,2.8,7.9c-2.5,4.3,1.3,9.4,5.8,11.4c4.6,2,11.4-6.1,14-9.4c2.5-3.3,5.1-2.5,4.6,0
		c-0.4,2.2-1.6,7.9-1.8,12.7c3.9-1.2,7.7-2.4,11.4-3.4c0-2.7-0.6-7-1.7-11.1C584.8,589.5,588.3,591,591.6,594"/>
	<path class="st12" d="M591.6,594c3.3,3,11.2,7.4,16.8,2.3c5.6-5.1-1.3-10.7-2-14.7c-0.8-4.1,4.1-6.6,1.5-13.2
		c-4.4-11.5-10.9,2.3-14.8,6.1c-3.8,3.8-3.2-2.7,0.3-6.1c1.8-1.8,9.7-6.6,5.1-12c-4.6-5.3-11.2-2.3-14.5,0
		c-3.3,2.3-5.8,5.1-10.9,3.6c-5.1-1.5-9.4-2-12.5,5.3c-3.1,7.4,2.8,5.3,7.6,10.7c4.8,5.3,1.8,5.6-2,4.3c-3.8-1.3-5.6-6.1-11.2-5.3
		c-5.6,0.8-5.6,9.7-3.8,12c1.8,2.3,5.3,3.6,2.8,7.9c-2.5,4.3,1.3,9.4,5.8,11.4c4.6,2,11.4-6.1,14-9.4c2.5-3.3,5.1-2.5,4.6,0
		c-0.4,2.2-1.6,7.9-1.8,12.7c3.9-1.2,7.7-2.4,11.4-3.4c0-2.7-0.6-7-1.7-11.1C584.8,589.5,588.3,591,591.6,594z"/>
	<path class="st2" d="M492.7,584.1c5.4,0.3,11.2-1.5,15.8-4.8c4.6-3.3,16.5-1.5,11.7,6.9c-4.8,8.4-3.3,10.2-0.5,7.1
		c2.8-3.1,6.4-8.7,11.7-7.1c5.3,1.5,3.1,5.6-0.2,10.2c-3.3,4.6-1.3,7.6,1.3,9.4c2.5,1.8,7.2,11.4-6.9,15.5c-6.1,1.8-7.1-1-11.2-2.5
		c-4.1-1.5-4.3,2-1.5,6.4c2.8,4.3,5.9,8.4,2.5,8.4c-3.3,0-5.8,0.5-6.4,3c-0.5,2.6-5.8-0.5-7.1-5.8c-1.3-5.3-2.5-15.5-5.3-10.4
		c-2.8,5.1-5.3,13.5-12.5,9.7c-7.1-3.8-2.3-8.9-5.8-12.5c-3.6-3.6-6.9-8.1-3.3-14.5c3.6-6.4,6.6-1,9.9-1c3.3,0,3.8-3,0.8-5.3
		C482.5,594.3,478.7,583.4,492.7,584.1"/>
	<path class="st12" d="M492.7,584.1c5.4,0.3,11.2-1.5,15.8-4.8c4.6-3.3,16.5-1.5,11.7,6.9c-4.8,8.4-3.3,10.2-0.5,7.1
		c2.8-3.1,6.4-8.7,11.7-7.1c5.3,1.5,3.1,5.6-0.2,10.2c-3.3,4.6-1.3,7.6,1.3,9.4c2.5,1.8,7.2,11.4-6.9,15.5c-6.1,1.8-7.1-1-11.2-2.5
		c-4.1-1.5-4.3,2-1.5,6.4c2.8,4.3,5.9,8.4,2.5,8.4c-3.3,0-5.8,0.5-6.4,3c-0.5,2.6-5.8-0.5-7.1-5.8c-1.3-5.3-2.5-15.5-5.3-10.4
		c-2.8,5.1-5.3,13.5-12.5,9.7c-7.1-3.8-2.3-8.9-5.8-12.5c-3.6-3.6-6.9-8.1-3.3-14.5c3.6-6.4,6.6-1,9.9-1c3.3,0,3.8-3,0.8-5.3
		C482.5,594.3,478.7,583.4,492.7,584.1z"/>
	<path class="st7" d="M543.1,406.1c-1.5,4.1-3.6,9.2-4.6,11.7c-1,2.5-5.7,1.6-5.3-0.3c0.8-3.8-4.7-1.3-4.1-4.3
		c0.5-2.5-0.5-6.6,2.3-6.6S539.5,406.1,543.1,406.1"/>
	<path class="st8" d="M543.1,406.1c-1.5,4.1-3.6,9.2-4.6,11.7c-1,2.5-5.7,1.6-5.3-0.3c0.8-3.8-4.7-1.3-4.1-4.3
		c0.5-2.5-0.5-6.6,2.3-6.6S539.5,406.1,543.1,406.1z"/>
	<path class="st7" d="M534.5,222c0.5-1.2,0.9-2.6,1.4-3.7c-1.9,1-3.6,1.9-5.3,2.9C531.7,222.8,533.3,225.3,534.5,222"/>
	<path class="st7" d="M580.4,224.6c-0.8-2.7-3.2,1.5-6.4,5.3c-3.2,3.8-7.8,1.5-8.3-0.4c-0.5-1.9-1.4-4.1-4.2-7.8
		c-2.8-3.7,2.7-8.8,5-9.4c2.3-0.6,5.2-1.1,6-1.8c0.6-0.5-0.5-4.3-1.1-7.2c-9.1,2.6-20.3,7.4-30.1,12.2c3,1.1,2.1,7,1.8,7.8
		c-0.4,0.9-1.4,6,0.9,2.9c2.3-3.1,3.2-4.2,5.6-5c2.4-0.8,5.1-0.6,5.2,2.9c0.1,3.6-1.5,3.3-2,5.6c-0.5,2.3,0,2.2,1.1,2.7
		c1.1,0.5,1.9,2,1,4.5c-0.9,2.4-4.7,2.7-8.1,2.3c-3.4-0.4-3.8,0.1-2.7,1.3c0.9,0.9,2.2,3,2.6,5.1c8.3-4,18.3-7.4,33.8-10.5
		C580.9,232.2,581.1,226.8,580.4,224.6"/>
	<path class="st7" d="M500.1,274.8c-1.1-2.3-2.8-2.7-3.4-0.9c-0.6,1.8-1.9,7.8-5.9,9.4c-1.3,0.5-2.3,0.9-3,1.1
		c1.4,1.5,2.9,2.8,4.6,4c3.1-3.3,6-6.3,8.8-9.1C501.2,277.9,500.9,276.4,500.1,274.8"/>
	<path class="st7" d="M538.1,244.4c-1.4-0.5-2.5,1.7-3.4,3.2c-0.9,1.5-2.8,4.1-6.1,3.7c-3.3-0.4-4.1-1.5-5-4.3
		c-0.9-2.8-2.9-3.7-5.3-3.7c-2.4,0-4.1-2.9-1.5-6c2.5-3.1,5.1-1.7,7.1-1.7c2,0,3.1-2.2,1.4-3.3c-1.3-0.9-3.6-3.5-4-5.5
		c-7.2,4.8-17.6,12.1-26.7,20.3c1.7,0.1,3.6,0.7,4.4,1.1c1.1,0.5,3.2,2,2.9,4.3c-0.3,2.3,0.5,2.8,1.9,1.3c1.4-1.5-0.3-6.1,4.4-7.9
		c4.7-1.8,5.3,1.8,5.1,4.2c-0.3,2.4,0,4.7,2.4,5.7c2.4,1,5.2,5-0.1,7.3c-5.3,2.3-8.3,2.8-10.4,3.4c-2.2,0.6-1.7,2.8,0.1,4.2
		c1.1,0.9,1.9,1.7,2.5,2.3c6.7-6.2,13.1-11.3,20.3-16.2c3.9-2.6,7.5-5,11.3-7.2C539.9,247.4,540.1,245.1,538.1,244.4"/>
	<path class="st7" d="M488.3,268.2c0.1-2.5-1.8-3.4-3.1-3.8c-0.9-0.3-2.7-2.1-3.4-3.6c-1.3,1.7-2.4,3.4-3.3,5
		c0.6,1.7,1.1,3.3,1.7,4.8C483.3,270.5,488.2,270.3,488.3,268.2"/>
	<path class="st7" d="M595.7,386.8c-8.3-0.5-18.2,1.2-27.7,4.8c1.7,1,3.4,3.2,6.8,2.1c4.8-1.7,6.5,3.4,4.2,4.8
		c-2.3,1.4-3.1,5,1.3,2.3c4.3-2.7,8.1,1.1,6.4,3.9c-1.8,2.8-4.1,0.6-3.6,4.6c0.5,3.9-0.4,7.5-3.9,8.1c-3.6,0.6-4.3-4.7-6-4.3
		c-1.7,0.4,0.4,9.4-0.4,9.5c-2.5,0.4-4.9,2.6-6.1,3.9c0.1,0.1,0.2,0.1,0.3,0.2c14,10,17.6,4.6,19.6-0.3c2-4.8,6.5-19.1,7.9-26.7
		C595.2,395.4,596.2,390.9,595.7,386.8"/>
	<path class="st7" d="M565.3,414.5c0.8-1.9-1.3-3.6-3.4-2.2c-2.2,1.4-5.3,3.4-7.5-0.2c-2.2-3.7,2.4-4.1,2.7-5.8c0.2-1.8-1.5-2-0.6-5
		c0.9-2.9,4-2.1,6.4-0.5c2.7,1.8,1.9-2.4,1.5-4.1c-0.3-1.2-0.5-2.5-0.2-3.5c-2.8,1.2-5.4,2.6-8,4.2c-13.1,8-13.5,14.7-10.4,17.3
		c2.7,2.3,8.3,3.3,17.8,9.5C563.5,421,564.7,416,565.3,414.5"/>
	<path class="st7" d="M523.7,406.9c-5.4-2.7-10.7-8.6-14.2-15.5c0,0,0.2-1-1.3-1s-7.1-0.5-16.5-3.8c-9.4-3.3-10.7-1.3-11.9,2.8
		c-1.3,4.1-2.3,11.4-2.5,23.7c-0.2,12.2,5.1,19.8,8.4,18.6c1.6-0.6,5.8-2.7,10.2-4.9c0.1-2.4,0.2-6.6,0.5-8.6
		c0.4-2.9-2.7-1.8-3.9-0.3c-1.3,1.5-3.7,4.1-6,3.7c-2.3-0.4-3.8-4.4-3.4-8.3c0.4-3.8-4.1-5.3-1.3-10.4c2.8-5.1,5.1,1.3,7.5,0.8
		c2.4-0.5,1.1-1.8,0-5.7c-1.1-3.9,3.6-5.1,6.6-2.3c1.9,1.8,2.8-2.2,5.6-1.7c2.8,0.5,4.4,2.4,2.8,5.2c-1.3,2.2-2.2,7.3,0.3,4.6
		c2.4-2.7,4.8-4.3,7.1-2.5c2.3,1.8,0.8,5.5,0.1,7.4c-0.6,1.9,4.1,4.2,0.8,6.5c-3.3,2.3-7-1.7-8.9-1.1c-1.9,0.5-2.3,2.8,0.3,4.6
		c1.7,1.2,3.4,2.1,4.7,2.6c5.3-1.8,11.5-5.3,13.5-6.5l3.3,0.3C525.5,410.4,525.3,407.6,523.7,406.9"/>
	<path class="st7" d="M504.9,462.8c-2-4.6-2.7-1.1-8.4,7.9c-2.9,4.5-10.1,12.9-19.1,22.4c6.3,1.3,19.7,4.6,11.7,11.2
		c-8.6,7.1-4.8,6.6-1,6.1c3.8-0.5,10.2,1.8,5.3,10.4c-4.8,8.6-8.1,14.7-12.7,17.5c-4.6,2.8-11.2,2.5-12.7-4.1
		c-1.5-6.6-5.8,0-6.1,4.3c-0.3,4.3-0.8,11.7-0.3,14.2l-9.7-0.5c-0.3-4.1-0.3-12.2,0.5-16c0.8-3.8,0.5-8.4-5.3-6.6
		c-3.8,1.2-6.4,0.2-7.8-0.6c-11.4,10.1-17.1,17.1-21,23.3c2.9,2.6,7.6,4.5,12.5,2.5c5.6-2.3,14.7,0.5,9.1,9.2
		c-5.6,8.6-5.3,13,0.3,7.6c5.6-5.3,14.6-14.5,17.3-4.8c1.8,6.4-4.1,8.4-3.8,13.5c0.2,5.1,5.3,10.2-1.8,16.3
		c-7.1,6.1-10.2-4.3-15-2.8c-2.9,0.9-3.5,3.6-3.3,6c6.3,9,15.5,21.6,18.9,27.1c5.1,8.4,5.1,18.6,7.1,17c2-1.5,6.9-6.1,8.4-7.4
		c1.5-1.3,3.1-2.8,2.3-5.6c-0.8-2.8-3.7-17.8-2.8-28.2c1-11.9,6.6-25,10.7-32.5c3.9-7.2,15.8-30.3,18.6-36.4
		c2.8-6.1,7.9-13.2,9.2-18.8c1.3-5.6,6.1-18.6,8.1-24.7C513.6,485.2,510.3,474.9,504.9,462.8"/>
	<path class="st7" d="M615.8,575.7c-6.6-10.9-7.9-15.3-8.9-26.4c-0.6-7.1-0.1-16.2,1-25.1c-2-0.2-4.6,0.2-4.8,3.2
		c-0.3,4.8-2.5,11.7-4.1,15.3c-1.5,3.6-6.6,3.3-9.7,3.6c-3.1,0.3-3.1-1.8-1-6.4c2-4.6,2.8-6.6,2.3-10.7c-0.5-4.1-2.5-0.5-4.3,3
		c-1.8,3.6-6.9,10.7-12.7,9.9c-5.8-0.8-4.3-9.7-3.8-12.7c0.5-3.1-1.3-3.6-3.6-4.1c-2.3-0.5-6.9-1.5-4.3-8.9c2.5-7.4,5.3-6.6,8.9-5.3
		c3.6,1.3,4.1-1,0.8-2.3c-3.3-1.3-6.9-4.1-6.6-7.6c0.7-9.4,6.6-8.6,11.2-7.6c4,0.9,9-1.5,12.4-5.2c-0.1-0.2-0.1-0.5-0.2-0.7
		c-6.8-25.9,6.1-57.7,9.7-66.6c3.6-8.9,17.3-33.9,22-41.4c-2.5-1.3-9.3-4.7-13-6.6c-3.7-1.9-5.7-2.8-6.7-1.4c-1,1.4-2.3,2.2-4.1,4.7
		c-3.6,5.1-0.5,4.3,0.5,4.3c1,0,5.3,5.6,6.1,6.9c0.8,1.3,0,2.3-1.8,6.4c-2.3,5.3-3.8,17.5-5.9,24.9c-6.2,22.3-15.8,20.1-20.1,17.3
		c-4.3-2.8-5.6,1.5-9.9,7.6c-1,1.5-3.6,4.2-7,7.7c4.1,1.9,9.7,7.2,3,12.4c-7.9,6.1-9.4,9.4-5.6,8.6c3.8-0.8,7.6-6.6,11.9-2.5
		c4.3,4.1-1.5,8.6-3.8,9.9c-2.3,1.3-6.9,3.6-5.6,8.4c1.3,4.8,2,11.4-4.3,13c-6.4,1.5-8.9-1.3-10.7-4.6c-1.8-3.3-3.6-1-4.3,3.1
		c-0.8,4.1-1.3,7.1-1.3,8.6c0,1.5-4.6-0.8-6.6-2.8c-2-2-4.6,3.6-6.9,0.8c-2.3-2.8,2.8-11.4,4.6-14.5c1.7-2.9,1-6.9-9.1-2.2
		c-3.3,5.5-5.9,13.4-9.9,25.8c-5.6,17-18.3,40.2-23.5,48.7c-13.7,22-16.1,42.8-14.1,55.8c2,12.9,3.8,11.9,6.6,11.9
		c2.8,0,9.7,8.6,14.2,14c4.6,5.3,6.4,3.1,8.6,1.3c7.3-5.7,22.1-15.3,43-25.2c8.9-4.2,20.7-8.7,32.3-12.4c0.2-4.8,1.3-10.6,1.8-12.7
		c0.5-2.5-2-3.3-4.6,0c-2.5,3.3-9.4,11.4-14,9.4c-4.6-2-8.4-7.1-5.8-11.4c2.5-4.3-1-5.6-2.8-7.9c-1.8-2.3-1.8-11.2,3.8-12
		c5.6-0.8,7.4,4.1,11.2,5.3c3.8,1.3,6.9,1,2-4.3c-4.8-5.3-10.7-3.3-7.6-10.7c3.1-7.4,7.4-6.9,12.5-5.3c5.1,1.5,7.6-1.3,10.9-3.6
		c3.3-2.3,9.9-5.3,14.5,0c4.6,5.3-3.3,10.2-5.1,12c-3.4,3.4-4.1,9.9-0.3,6.1c3.8-3.8,10.3-17.6,14.8-6.1c2.5,6.6-2.3,9.2-1.5,13.2
		c0.8,4.1,7.6,9.7,2,14.7c-5.6,5.1-13.5,0.8-16.8-2.3c-3.3-3-6.9-4.6-5.3,1c1.1,4.1,1.7,8.4,1.7,11.1c11.1-3.1,20.8-4.9,25.8-4.5
		c7.3,0.6,12.7,2.8,12.5-3.8C626,591.2,622.4,586.7,615.8,575.7 M525.5,621.2c-6.1,1.8-7.1-1-11.2-2.5c-4.1-1.5-4.3,2-1.5,6.4
		c2.8,4.3,5.9,8.4,2.5,8.4c-3.3,0-5.8,0.5-6.4,3c-0.5,2.6-5.8-0.5-7.1-5.8c-1.3-5.3-2.5-15.5-5.3-10.4c-2.8,5.1-5.3,13.5-12.5,9.7
		c-7.1-3.8-2.3-8.9-5.8-12.5c-3.6-3.6-6.9-8.1-3.3-14.5c3.6-6.4,6.6-1,9.9-1c3.3,0,3.8-3,0.8-5.3c-3.1-2.3-6.9-13.2,7.1-12.5
		c5.4,0.3,11.2-1.5,15.8-4.8c4.6-3.3,16.5-1.5,11.7,6.9c-4.8,8.4-3.3,10.2-0.5,7.1c2.8-3.1,6.4-8.7,11.7-7.1
		c5.3,1.5,3.1,5.6-0.2,10.2c-3.3,4.6-1.3,7.6,1.3,9.4C534.9,607.5,539.6,617.1,525.5,621.2 M551.5,561.2c-4.6,0.3-10.2-1-10.2-1
		c-0.5,4.8-5.2,11.8-9.9,18.8c-0.5,0.8-3.3,0.8-4.6-0.2c-1.3-1-4.8-2.8-2-5.9c2.8-3.1,7.4-9.4,6.6-12.2c-0.8-2.8-2.8-5.3-5.8-1.5
		c-3.1,3.8-7.9,11.7-13.2,12c-5.3,0.2-10.7-4.6-8.1-9.4c2.5-4.8,3.3-7.4-0.3-11.7c-3.6-4.3-2.2-9.9,5.3-13.2c2.3-1,6.4,0,9.2,2.3
		c2.8,2.3,4.3,0,0.5-2.3c-3.8-2.3-6.9-5.1-7.4-10.2c-0.5-4.8,2.5-9.9,9.1-7.1c6.6,2.8,10.7,0.5,13.5-1.8c2.8-2.3,14.7-5.1,13,5.3
		c-1.3,7.6-4.8,7.9-5.8,11.9c-1,4.1,2,1.5,3.8-1.5s5.8-15.5,14.2-6.1c2,2.3,1.3,6.1-1.3,10.4c-2.5,4.3-0.5,6.9,1,9.2
		C560.6,549.3,564.2,560.5,551.5,561.2"/>
	<polyline class="st4" points="785.5,343.2 778,348.5 795.3,373 785.4,380 768.5,355 760.8,360.5 776.2,383.9 766.3,390.9 
		741.4,355.6 786.5,323.6 813.9,362 803.9,369 	"/>
	<polyline class="st4" points="797.9,418.5 808.1,440.5 793.3,447.4 777.4,411.5 826.2,390.3 832.4,404.1 	"/>
	<polyline class="st4" points="803.7,484.3 802.1,470.7 834.8,466.8 833.6,447 848.2,446 852.3,493.5 837.6,494.6 836.4,480.4 	"/>
	<polyline class="st4" points="804,533.3 803.8,517 851.9,516.9 852.1,533.1 	"/>
	<path class="st4" d="M829.4,599c4.5-2.7,6.5-6.2,7.2-10.1c1.6-10-3.6-18.4-12.7-19.7c-8.6-1.3-15.7,2.6-18.2,11.3
		c-1.3,4.5-0.8,8.9,0.4,11.9l-12.7,4.3c-1.7-6-2.6-12.9-1.6-18.2c1.6-8.3,4.4-12.9,10.4-17.4c6.7-5.1,16.2-6.4,24.3-4.8
		c7.4,1.4,14.4,5.1,18.5,12.4c4.2,7.4,6.4,13.7,4.7,22.9c-1,5.4-5.9,13.2-12.3,17.1"/>
	<path class="st4" d="M804.2,641.1c-7.3,6.9-20.1,15.2-25.1,15.6c-6.6,0.6-8.6-3.1-9.7-8.9c-0.9-4.5,0-11.6,2-17.7
		c1.8-5.3,6.1-10.5,9.9-13.7l8,3.5c-4.3,2.9-7.1,7.4-8.9,12.7c-1.2,3.7-2.4,9.3,1.3,10.5c4.1,1.4,13-7.6,15.5-10
		c4.4-4.2,13.6-11.6,20.3-9.9c4.4,1.1,12.6,10.3,9.5,25.5c-1.3,6.3-3.6,13-8.1,17.4l-10.9-7.3c3.1-2.2,4.9-8,6.2-11.9
		c1-2.9,1.1-7.4-1.5-8.9C811.1,637.3,807.9,637.6,804.2,641.1"/>
	<path class="st4" d="M744.8,306.3c-0.6-5.3-1.9-8.9-5.3-11.1c-8.4-5.6-17.9-4-23.3,3.5c-4.4,6-4,15.4,2.8,21.3
		c3.6,3.1,7.8,4.4,11,4.5l-1.4,13.3c-6.2-0.9-12.9-3-17.2-6.1c-6.9-4.9-9.9-9.3-11.6-16.6c-1.9-8.2,0.8-17.4,5.5-24.1
		c4.3-6.2,12-11.5,20.3-12.6c8.1-1.1,15.8,0.5,22.3,6.1c4.2,3.6,8.3,12.2,9.2,19.6"/>
	<path class="st4" d="M253.7,577.4c0.2-14.2,7.3-21.3,11.2-22.1c6.5-1.4,9.8-0.3,14.3,3.6c4.6,4.1,6.6,8.5,7.9,14.8
		c1.2,5.4,1.7,11.8,0,16.5l-10.2,1.1c2.2-4.7,0.7-9-0.5-14.5c-0.8-3.8-3.3-7.5-7.1-6.7c-3.9,0.8-3.7,7.5-4.1,11.1
		c-1.1,11.7-4.9,19.2-12.2,20c-6.8,0.7-15.2-3.8-18.1-17.6c-1.3-6.3-0.7-14.8,0.8-20.9l10.7,0.1c-1.5,3.4-2.7,12.1-1.8,16.1
		c0.6,3,2.9,6.6,6,6.5C253.1,585.2,253.7,580.1,253.7,577.4"/>
	<polyline class="st4" points="281.6,510.5 281.8,522.5 243.8,522.9 243.9,540.1 231.8,540.3 231.3,495 243.4,494.8 243.6,511 	"/>
	<polyline class="st4" points="308.8,375.9 276.1,355.4 283.4,344.2 331.2,371.8 322,386.1 283.1,386.7 283.1,386.8 312.4,403.7 
		305.1,416.5 258.1,389.2 264.3,377.2 	"/>
	<path class="st4" d="M235.5,446.8c0-16.2,13.2-29.4,29.4-29.4c16.2,0,29.4,13.2,29.4,29.4s-13.2,29.4-29.4,29.4
		C248.6,476.2,235.5,463,235.5,446.8 M264.9,462.1c8.5,0,15.3-6.9,15.3-15.3c0-8.5-6.9-15.3-15.3-15.3c-8.5,0-15.3,6.9-15.3,15.3
		C249.6,455.3,256.4,462.1,264.9,462.1"/>
	<path class="st4" d="M254.4,640.2c0-16.2,13.2-29.4,29.4-29.4c16.2,0,29.4,13.2,29.4,29.4c0,16.2-13.2,29.4-29.4,29.4
		S254.4,656.4,254.4,640.2 M283.8,655.5c8.4,0,15.3-6.9,15.3-15.3c0-8.4-6.9-15.3-15.3-15.3c-8.5,0-15.3,6.9-15.3,15.3
		C268.5,648.6,275.4,655.5,283.8,655.5"/>
	<path class="st4" d="M316.8,693.7c-4.3-6.4-2.1-15.9,2.4-19.9c9.1-8.1,24.4,10.5,30,17.5l15.8,18.4l-39,32.3l-14.7-14.5
		c-10.5-10.5-23.4-23.8-12.8-33C302.8,690.7,312.1,691.4,316.8,693.7 M347.1,702.2l-1.3-1.5c-2.9-3.5-13.3-16.8-17.5-12.9
		c-4.5,4.3,6.4,15.8,9.7,19.7l1,1.2L347.1,702.2z M328.2,718.1c-1.4-1.7-13.1-15.9-17.8-11.5c-5,4.7,6.6,13.8,10.5,18.4L328.2,718.1
		z"/>
</g>
</svg>
