<?xml version="1.0" encoding="utf-8"?>
<!-- Generator: Adobe Illustrator 26.2.1, SVG Export Plug-In . SVG Version: 6.00 Build 0)  -->
<svg version="1.1" id="Layer_1" xmlns="http://www.w3.org/2000/svg" xmlns:xlink="http://www.w3.org/1999/xlink" x="0px" y="0px"
	 viewBox="0 0 1080 1080" style="enable-background:new 0 0 1080 1080;" xml:space="preserve">
<style type="text/css">
	.st0{fill:#FFB900;}
	.st1{fill:#562385;}
	.st2{clip-path:url(#SVGID_00000020362917262195704620000007200944308724926368_);fill:#562385;}
	.st3{clip-path:url(#SVGID_00000131328117909363447210000001200106820100684685_);fill:#562385;}
	.st4{clip-path:url(#SVGID_00000178182805234847474080000009144281168780406665_);fill:#562385;}
	.st5{clip-path:url(#SVGID_00000145057667247992146370000003962641332114060724_);fill:#562385;}
	.st6{clip-path:url(#SVGID_00000174574903209234125280000010305981611389204914_);fill:#562385;}
	.st7{clip-path:url(#SVGID_00000157305178821244156340000004725672049936306334_);fill:#562385;}
	.st8{clip-path:url(#SVGID_00000108298312726014138880000008943946712315457929_);fill:#562385;}
	.st9{clip-path:url(#SVGID_00000179644707945332581970000005306181860017549697_);fill:#562385;}
	.st10{clip-path:url(#SVGID_00000170994378405932737870000014959252340094539944_);fill:#562385;}
	.st11{clip-path:url(#SVGID_00000177456274937713395020000002447733924072475296_);fill:#562385;}
	.st12{clip-path:url(#SVGID_00000118385048892361569750000011571311169096636078_);fill:#562385;}
	.st13{clip-path:url(#SVGID_00000046303469082522246110000016736255587703891383_);fill:#562385;}
</style>
<g>
	<path class="st0" d="M511.9,845.5c167.1,0,302.6-137.5,302.6-307.2c0-169.6-135.5-307.2-302.6-307.2
		c-167.1,0-302.6,137.5-302.6,307.2C209.3,708,344.8,845.5,511.9,845.5"/>
	<path class="st1" d="M649.8,569.7c-28.3,34.3-44.3,46-73,46c-9.8,0-14.9-2.2-12.1-6.9l34-68.5h13c14.5,0,12.5,12.2,8.6,28.8
		c-0.7,2.3,1.1,2.4,2.8,0.4l32.4-56.9c1.6-3.6-2.5-4.3-4.5-1.6c-16.2,22-33.3,20.4-40.5,20.4h-5.9l36.4-69.4h14.7
		c18.5,1.1,27.1,16.8,21.7,54.6h7.7l26.7-52.7c2.2-4.4-2.4-8.5-7.4-8.5l-181.5,0c-10.5,0-11,8.1-0.9,8.1c8.2,0,7.7,11.7,0.4,17.4
		l-77,61.2l15.6,72.2c1.1,5.4,4.6,8,10.7,8h150.1c6.2,0,8.7-2.5,10.7-5.1l27.2-46.9C663.3,563.6,654.5,564,649.8,569.7 M545.3,536.8
		l-13.2-0.1c-0.9,0-1.7,0.7-1.7,1.7c0,0.9,0.8,1.7,1.7,1.7l13.4-0.1c4.5,0,8.7,0.6,7.5,2.6l-34.7,66.3c-4.3,7.9-13.4,5.9-14.9-0.4
		l-17.2-88.8l60.4-46.9c6-5.2,17.6-13.6,23.5-13.5l13.2-0.1c8,0,10.9,3.7,9,8.6l-2.3,4.5c-1.5,2.5-6.2,2.8-10.3,2.8l-7.6,0
		c-0.9,0-1.7,0.7-1.7,1.7c0,0.9,0.7,1.7,1.7,1.7h7.5c3.2,0,7.3,0.1,5.8,2.5l-28,53.4C556.1,536.4,550.2,536.8,545.3,536.8"/>
	<path class="st1" d="M420.7,614.3c-4.1-0.1-6.7-2.9-7.6-5.6c-1.3-3.9-1.2-10.7,0.4-13.7l70-124.1c1.1-2.3,4-7.1,7.5-7.1
		c6.2,0,8.9-8.1-1.6-8.1h-56.1c-10.5,0-10.6,8-0.5,8c4.1,0,5.7,4,4.6,6.5l-15.5,28.1c-1.9,3.1-6.2,3.3-10.7,3.3l-13.4,0
		c-0.9,0-1.7,0.8-1.7,1.7c0,0.9,0.7,1.7,1.7,1.7H411c3.6,0,6.4,1.1,4.4,5.2l-51.7,94.1c-3.7,5.2-11.1,6.3-10.7-3.6l18.4-137.9
		c0.7-4.3-0.4-7.2-5-7.2l-27.7,0.1c-3.3,0-5.4,1.6-7,3.8l-9.9,12.4c-1.3,1.3-4.1,1.3-7.2,1.3l-23.3,0c-0.9,0-1.7,0.7-1.7,1.7
		c0,0.9,0.7,1.7,1.7,1.7h19c3.4,0,7.3,0.8,5.9,2.4l-26.7,33.5c-0.8,0.9-3.4,1.2-5,1.2l-7.5,0c-0.9,0-1.7,0.8-1.7,1.7
		c0,0.9,0.7,1.7,1.7,1.7l6.3,0c2,0,2,1,1.2,1.8l-25.1,31.5c-1.3,1.2-3.8,1.5-6.2,1.5l-22.1,0c-0.9,0-1.7,0.7-1.7,1.7
		c0,0.9,0.8,1.7,1.7,1.7h19c2.9,0,5.1,0.5,3.6,2.5L218,602c-6.7,8.5-38.9,12.9-45.2,12.9l120.5-225.4c1.1-2.6,5.6-6.5,10.2-6.5h25.6
		c12.1,0,11.7-8,1.2-8H201.7c-10.5,0-10.9,8,1.2,8h23.8c6.8,0,8.9,4.1,7.2,7.4l-3.4,6.2c-1.1,2-2.7,2.8-9.3,2.8l-42.1,0
		c-0.9,0-1.7,0.7-1.7,1.7c0,0.9,0.7,1.7,1.7,1.7l42,0c2.3,0,5.7,0.6,3.5,4.7l-5.9,10.9c-1,1.7-3.6,2.4-6.5,2.4l-19.1,0
		c-0.9,0-1.7,0.8-1.7,1.7c0,0.9,0.7,1.7,1.7,1.7l19,0c2.7,0,2.8,1.8,1.2,4.3l-13.6,25.2c-1.2,2.1-3.4,2.4-7.7,2.4l-7.6,0
		c-0.9,0-1.7,0.7-1.7,1.7c0,0.9,0.8,1.7,1.7,1.7l7.5,0c2.9,0,3.6,1.6,2.3,4.3l-11.1,20.7c-1.7,2.9-4,4.1-11.4,4.1l-42.1,0
		c-0.9,0-1.7,0.8-1.7,1.7c0,0.9,0.7,1.7,1.7,1.7l42,0c4.7,0.1,6.5,2.2,4.6,5.5l-21.7,40.8c-1.3,1.8-4.8,2.1-10.9,2.1l-42.1-0.1
		c-0.9,0-1.7,0.8-1.7,1.7c0,0.9,0.7,1.7,1.7,1.7l42,0c5,0,8.1,0.2,6.6,2.9L137.7,570c-2.3,3.6-8.8,3.6-11.3,3.6l-13.3,0
		c-0.9,0-1.7,0.7-1.7,1.7c0,0.9,0.7,1.7,1.7,1.7l13.2,0c4.7,0,7.1,0.8,5.9,3.3l-16.7,31.4c-1.5,2.8-8,2.9-13.1,2.9l-65-0.1
		c-0.9,0-1.7,0.8-1.7,1.7c0,0.9,0.8,1.7,1.7,1.7l64.9,0c4.3,0,9.7,0.5,7.7,4l-10.6,20.1c-1,1.7-4.6,1.8-9.9,1.8l-13.3,0
		c-0.9,0-1.7,0.7-1.7,1.7c0,0.9,0.8,1.7,1.7,1.7h13.2c3.2,0,7.2,0.4,5.8,2.8l-6.7,12.8c-2.1,3.2-4.3,6-9.5,6H46.5
		c-12.1,0-11.6,8-1.2,8l191.7,0.1c5.6,0,5.8-0.8,8.4-4.9l28.4-49.6l145.3,0C429.6,622.4,426.9,614.5,420.7,614.3 M306.8,599.5
		c-1.4,8.2-9.6,13.6-20,16.3l-10.7,2.6l8.8-15.8c2.3-4.3-2.8-6.8-8.3-0.4c-37.1,43.2-48.9,63.9-106.1,64.1l-15.4,0
		c-4.7,0-9.8-1.8-6.6-6.3l20.2-37.7l76.9,0c10.5,0,7.8-7.9,1.6-8.1c-4.1-0.1-8.5-2.5-11.7-7.4c-0.9-1.4-2.8-6.8,0.2-11.1l29.4-39.1
		h48.9L306.8,599.5z M317.8,550.1h-47.7l60.4-79.7L317.8,550.1z"/>
	<path class="st1" d="M1044.3,574.7c-0.8-3.9-2.2-1.5-4.8,3.4c-0.8,1.5-3.3,1.5-5.8,1.5l-7.7,0c-0.9,0-1.7,0.7-1.7,1.7
		c0,0.9,0.8,1.6,1.7,1.6h7.6c2.9,0,2.9,1.9,1.6,4.8c-5.3,11.3-10.7,18.8-18,27.9c-1.1,1.4-4,2.7-6.3,2.7l-7.7,0
		c-0.9,0-1.7,0.7-1.7,1.7c0,0.9,0.7,1.7,1.7,1.7h7.6c3.8,0-0.1,2.3-0.7,3.2c-13.4,17.9-22.6,25.9-32.5,33.9
		c-1.2,0.9-6.7,0.6-10.6,0.6l-7.6,0c-0.9,0-1.7,0.8-1.7,1.7c0,0.9,0.8,1.7,1.7,1.7h7.5c5.7,0,1.4,3.3,0.6,4
		c-20.9,17.4-52,23-66.2,21.2c-46.2-5.8-55.7-40.9-59.1-54.9c-0.7-2.9-2.9-9-3.7-12.7c-1.4-7.3,19.4-9.4,25.2-5.6
		c8.7,5.8,29.1,11.8,45.1,11.9c14.8,0.1,45.1-10.7,53.9-36.2c9-26-13.6-54.9-23.6-64.9c-12.7-12.7-24.7-33-19.7-47.8
		c3.8-11.2,10.2-16.3,23.9-16.3c17.7,0,30.5,11.4,30.5,27.5c0,1.5-0.9,3.1-2,3.1l-6.2,0c-0.9,0-1.7,0.8-1.7,1.7
		c0,0.9,0.8,1.7,1.7,1.7l5.9,0c1.7,0,2.7,1.3,2.3,3.3c-1.1,5.4-1.5,9.2-2.7,14.6c-0.7,3.1,3.9,5.3,5.5,3l27.8-49.6
		c2-3.7-2.5-4.7-5.7-3.6c-7.6,2.6-20,4.5-24.4,1.3c-10.4-7.5-19.9-12.2-34.3-12.2c-24.7,0-42,6.1-53.1,26.4
		c-0.9,1.6-3.3,1.6-5.4,1.6h-4.7c-0.9,0-1.7,0.7-1.7,1.7c0,0.9,0.7,1.7,1.7,1.7l4,0c1.7,0,2.9,0.5,2,2.5c-0.8,1.8-1.5,3.7-2.1,5.7
		c-2.8,8.8-1.9,21.2,2.5,32.1c0.3,0.7-0.7,1.1-2.4,1.1h-7.5c-0.9,0-1.7,0.8-1.7,1.7c0,0.9,0.7,1.7,1.7,1.7h7.5
		c3.4,0,4.2,0.4,5.7,2.4c3.9,5.5,7.9,9.6,12.9,15.9c1.6,2-5.2,2.6-8.7,2.5l-29.9,0c-0.9,0-1.7,0.8-1.7,1.7c0,0.9,0.7,1.7,1.7,1.7
		l30.3,0c4.9,0,13.2-0.1,14.2,1c7.3,8.5,16.2,21.5,17.7,32.5c0.4,3.2-0.8,4.5-4.7,4.5h-4.1c-0.9,0-1.7,0.7-1.7,1.7
		c0,0.9,0.7,1.7,1.7,1.7h3.6c3.1,0,4.8,0.5,4,2.8c-3.9,12.5-9.8,21.6-33.8,21.5c-25.2-0.1-30.3-24.8-22.9-50.5
		c1.4-5.1-0.1-7.3-2.4-3.3L845,592c-0.4,0.7-2.1,2.2-4.8,2.2l-2.5,0c-0.9,0-1.7,0.8-1.7,1.7s0.8,1.7,1.7,1.7c2.2,0,3.1,1.2,2.2,2.4
		l-6.4,10c-10.6-24.2-28.3-54-37.8-64.8l0.2-0.5c23.3-1.4,57.7-23.3,63.4-42.8c9.8-33.9-23.1-46.4-41.1-46.4l-78.9,0
		c-10.5,0-11.3,8-1.2,8c5.4,0,10.2,4.7,7.8,9.6l-17.5,31.5c-1.4,2.6-6.9,2.4-13.9,2.4H707c-0.9,0-1.7,0.8-1.7,1.7
		c0,0.9,0.8,1.7,1.7,1.7h7.5c5,0,10.6,0.3,8.7,3.9l-20.6,37.3c-1,1.7-3.7,1.9-10.7,1.9l-7.6,0c-0.9,0-1.7,0.8-1.7,1.7
		c0,0.9,0.8,1.7,1.7,1.7h7.4c5.6,0,7.6,0.7,6,3.6l-27.6,49.9c-3.3,3.6-7.2,4.3-13.9,4.3c-10.1,0-10,8,0.5,8h67.5
		c10.5,0,7.8-8.1,1.6-8.1c-3.6,0-7.5-6.7-5-10.7l34.5-65.3h3.5c15.3,0,19,25.2,21.9,52.6c0.2,2-3.5,2.1-11.2,2.1l-19.2,0.1
		c-0.9,0-1.7,0.7-1.7,1.7c0,0.9,0.7,1.7,1.7,1.7h18.9c5.1,0,12.1,0.1,12.3,1.7c1.3,12.1,2.3,22.7,4.6,32.3c0.7,3-4.7,2.5-10.4,2.5
		l-24.4,0c-0.9,0-1.7,0.8-1.7,1.7c0,0.9,0.7,1.7,1.7,1.7l24.4,0c7.7,0,11.6,0,12.1,1.6c10.5,38.5,55.5,68.9,99.3,67.2
		c37.6-1.4,69.4-21.9,85.6-34.9c21.7-17.4,53.4-53.7,66.3-80.1C1041.4,585.2,1045.2,579,1044.3,574.7 M791.7,523.4
		c-5.3,4.3-13.6,9.3-15.2,7.7c-2.2-2.2-9.2-7-13-8.8l31.3-57.2c1.3-2,2.8-3.1,6.2-3.1c12.2,0,16.2,13.2,10.4,29.7
		C807.5,503.3,801,515.8,791.7,523.4"/>
	<path class="st1" d="M411.4,404.6c-6.4,8.2-14.7,10.3-24.2,10.3h-2.7l16.6-32.9c0.8-1.5,2.5-2.7,4.7-2.7c2.1,0,1.8-4.1-0.9-4.1
		h-26.2c-2.2,0-3,4.1-0.9,4.1c2.2,0,2.6,2.5,1.6,4.6l-14.9,29.3c-1,1.6-2.7,2-4.5,2.5c-2.2,0.6-3.7,4.5-1.2,4.5h41.8
		c3.2,0,4-1.2,4.8-2.3l8.4-13C415.2,403.3,412.6,403,411.4,404.6"/>
	<path class="st1" d="M537.3,376.3c-1.3,0.7-4.3,1.1-5.6,0c-3.3-2.8-9.9-4.9-13.3-4.9c-9.9,0-17,1.9-21.3,11.2
		c-3.6,7.9,0.1,14.6,8.8,18.6c3.8,1.7,8.8,4,6.8,8.5c-1.4,3.3-5.3,3.7-8.7,3.7c-4.7-0.1-11.7-3.6-12.8-10.2
		c-0.4-2.1-2.9-1.6-3.6-0.5l-6,11.9c-0.9,1.6,1.5,3.3,2.5,2.3c2-2.1,6.4-2.7,8.5-1.2c3,2,10.6,5.4,15.1,5.4
		c10-0.1,16.6-2.6,22.1-11.2c5-7.8,1.9-15.6-7.2-19.9c-4.8-2.2-8.9-6.3-6.8-10.7c1.4-2.9,5.7-2.3,7.8-1.9c4.1,0.7,9.3,4.5,9.9,7.9
		c0.3,1.4,2.1,1.7,2.9,0.4l3.1-7.3C540.4,377,538.1,375.9,537.3,376.3"/>
	<path class="st1" d="M827.4,388.1l3.6-6.7c1.6-3-1-6.3-5.2-6.3h-48.8c-3.5,0-2.5,3.7-1.1,3.7c3.1,0,4.1,3.8,2.2,7.1l-14.7,27
		c-2.2,2.6-3.6,3.7-6.7,3.7c-2.5,0-3.4,3.7,0.1,3.7h49.5c2,0,2.9-0.7,3.6-1.7l6.7-8.9c1.6-2.1-1.9-2.1-3-1.1
		c-8.5,8.5-17.7,8.3-24.3,8.3h-5.8l6.8-15.1h1.5c4.3,0,9.3-0.1,10.7,3.3c0.4,0.8,2.5,1.4,3.3,0l5.8-11.6c0.9-1.7-1.7-2-2.4-0.8
		c-2.3,4.1-12.3,3-14.9,3h-1.5l8.4-16.6h9.4c5.8,0,10.9,4.1,12.5,8.6C823.7,388.6,826.8,389.5,827.4,388.1"/>
	<path class="st1" d="M702.5,375.1h-17.4c-3.5,0-2.5,3.7-1.1,3.7c3.7,0,7.1,4.4,5.1,8.4l-7.2,13.2l-15.9-23.2
		c-1.1-1.4-3.5-2.1-5.7-2.1h-17.1c-3.5,0-2.7,3.7-1.3,3.7c3.6,0,2.7,2.7,1.8,4.7l-13.6,26.2c-0.9,2.1-4.6,2.4-5.7-0.3l-10.5-34.3
		c-0.4-1.4-6.6-1.3-8.2,0l-26.4,21.8h-13.7c-2.7,0-3.8,1.1-3.8,2.6c0,1.4,1,2.8,3.9,2.8l7.2,0l-7.2,5.9c-4,2.9-8,7-10.8,7h-1.6
		c-2.6,0-4.1,0.4-4.1,2.5c0,2.1,1.1,2.8,3.6,2.8h21.3c4,0,3.2-5.2,1.2-5.2c-2.2,0-5.9-2.8-2.5-6.8l6.5-6.2h12.8
		c7.6,0,12.9,8.8,8.4,11.5l-3.5,1.9c-1.7,0.9-2.4,4.7,0,4.7h41.6c3.1,0,2.5-4.1,1-4.1c-4.2,0-2.2-6.1-1.4-7.8l10.9-20.7l15.4,29.8
		c1,1.9,1.9,2.8,3.7,2.8h5.9c1.9,0,2.5-1.1,3.3-2.5l17.5-31.6c2.8-5.7,5-7.3,8.5-7.3C705.1,378.8,706.1,375.1,702.5,375.1
		 M586.1,396.7l16.3-13.3l0.1,13.3H586.1z"/>
	<path class="st1" d="M455.9,373.1c-14.6,0-29.7,7.2-32.7,22.6c-2.6,13.4,6.6,27.2,23,27.2c15.6,0,29.9-10.2,32.8-24.9
		C481.9,383.2,470.8,373.1,455.9,373.1 M460.1,401.3c-4.7,9.2-12.4,14.8-17.4,12.3c-4.9-2.5-5.2-12-0.5-21.3
		c4.6-9.3,12.4-14.8,17.4-12.3C464.4,382.5,464.7,392,460.1,401.3"/>
	<path class="st1" d="M752,395.5h-18.8c-3.5,0-2.5,3.7-1.1,3.7c1.5,0,2.9,0.8,2.9,3.2c0,7.6-3.2,10.5-9.8,10.5
		c-7.1,0-9.7-8.7-4.9-19.3c3.1-6.8,11.2-13.2,20.9-13.2c5.9,0,10.9,1.3,11.7,6.8c0.2,1.4,2.3,1.4,2.9,0.1l4.5-8
		c0.5-0.9-0.3-1.9-1.6-2c-1.1-0.1-3.7,1.4-5.4,0.2c-3.8-2.8-12-5.5-18.1-5.5c-10.1,0-24.2,2.3-33.7,18.8c-8.6,15,3.9,30.8,15.6,30.8
		c6.5,0,14-4.8,18.3-6.6l4.8,3.3c0.7,0.8,2.2,1.9,3.6,1.9h1.8c1.7,0,2.3-2.3,3-3.7l7.4-17.9C756.7,396.8,756.2,395.5,752,395.5"/>
	<path class="st1" d="M1009.7,376.3c-1.3,0.7-4.3,1.1-5.6,0c-3.3-2.8-9.9-4.9-13.3-4.9c-9.9,0-17,1.9-21.3,11.2
		c-3.7,7.9,0.1,14.6,8.8,18.6c3.8,1.7,8.8,4,6.9,8.5c-1.4,3.3-5.3,3.7-8.8,3.7c-4.6-0.1-11.7-3.6-12.8-10.2
		c-0.3-2.1-2.9-1.6-3.6-0.5l-6,11.9c-0.9,1.6,1.5,3.3,2.5,2.3c2-2.1,6.4-2.7,8.5-1.2c3,2,10.6,5.4,15.1,5.4c10-0.1,16.6-2.6,22-11.2
		c5-7.8,1.9-15.6-7.2-19.9c-4.8-2.2-8.9-6.3-6.8-10.7c1.4-2.9,5.7-2.3,7.8-1.9c4,0.7,9.3,4.5,9.9,7.9c0.3,1.4,2.1,1.7,2.9,0.4
		l3.1-7.3C1012.8,377,1010.5,375.9,1009.7,376.3"/>
	<path class="st1" d="M878.9,404.6c-6.3,8.2-14.7,10.3-24.2,10.3h-2.6l16.6-32.9c0.8-1.5,2.5-2.7,4.7-2.7c2.1,0,1.8-4.1-0.9-4.1
		h-26.2c-2.2,0-3,4.1-0.9,4.1c2.2,0,2.6,2.5,1.6,4.6l-14.9,29.3c-1,1.6-2.6,2-4.5,2.5c-2.2,0.6-3.7,4.5-1.2,4.5h41.8
		c3.2,0,4-1.2,4.9-2.3l8.4-13C882.7,403.3,880.2,403,878.9,404.6"/>
	<path class="st1" d="M942,378.9c5.8,0,10.9,4.1,12.5,8.6c0.4,1.1,3.5,1.9,4.2,0.6l3.6-6.7c1.6-3-1-6.3-5.2-6.3h-48.8
		c-3.5,0-2.5,3.7-1.1,3.7c3.2,0,4.1,3.8,2.2,7.1l-14.7,27c-2.2,2.6-3.6,3.7-6.7,3.7c-2.5,0-3.4,3.7,0.1,3.7h49.4
		c2,0,2.9-0.7,3.6-1.7l6.7-8.9c1.6-2.1-1.9-2.1-3-1.1c-8.5,8.5-17.7,8.3-24.3,8.3h-5.8l6.8-15.1h1.4c4.3,0,9.4-0.1,10.7,3.3
		c0.4,0.8,2.5,1.4,3.4,0l5.8-11.6c0.9-1.7-1.7-2-2.4-0.8c-2.3,4.1-12.3,3-15,3h-1.4l8.4-16.6L942,378.9L942,378.9z"/>
	<g>
		<g>
			<defs>
				<path id="SVGID_1_" d="M511.9,845.5c167.1,0,302.6-137.5,302.6-307.2c0-169.6-135.5-307.2-302.6-307.2
					c-167.1,0-302.6,137.5-302.6,307.2C209.3,708,344.8,845.5,511.9,845.5"/>
			</defs>
			<clipPath id="SVGID_00000026127883213533529860000007103517276385760673_">
				<use xlink:href="#SVGID_1_"  style="overflow:visible;"/>
			</clipPath>
			<path style="clip-path:url(#SVGID_00000026127883213533529860000007103517276385760673_);fill:#562385;" d="M649.8,569.7
				c-28.3,34.3-44.3,46-73,46c-9.8,0-14.9-2.2-12.1-6.9l34-68.5h13c14.5,0,12.5,12.2,8.6,28.8c-0.7,2.3,1.1,2.4,2.8,0.4l32.4-56.9
				c1.6-3.6-2.5-4.3-4.5-1.6c-16.2,22-33.3,20.4-40.5,20.4h-5.9l36.4-69.4h14.7c18.5,1.1,27.1,16.8,21.7,54.6h7.7l26.7-52.7
				c2.2-4.4-2.4-8.5-7.4-8.5l-181.5,0c-10.5,0-11,8.1-0.9,8.1c8.2,0,7.7,11.7,0.4,17.4l-77,61.2l15.6,72.2c1.1,5.4,4.6,8,10.7,8
				h150.1c6.2,0,8.7-2.5,10.7-5.1l27.2-46.9C663.3,563.6,654.5,564,649.8,569.7 M545.3,536.8l-13.2-0.1c-0.9,0-1.7,0.7-1.7,1.7
				c0,0.9,0.8,1.7,1.7,1.7l13.4-0.1c4.5,0,8.7,0.6,7.5,2.6l-34.7,66.3c-4.3,7.9-13.4,5.9-14.9-0.4l-17.2-88.8l60.4-46.9
				c6-5.2,17.6-13.6,23.5-13.5l13.2-0.1c8,0,10.9,3.7,9,8.6l-2.3,4.5c-1.5,2.5-6.2,2.8-10.3,2.8l-7.6,0c-0.9,0-1.7,0.7-1.7,1.7
				c0,0.9,0.7,1.7,1.7,1.7h7.5c3.2,0,7.3,0.1,5.8,2.5l-28,53.4C556.1,536.4,550.2,536.8,545.3,536.8"/>
		</g>
		<g>
			<defs>
				<path id="SVGID_00000114776316429054090820000006074911548985536903_" d="M511.9,845.5c167.1,0,302.6-137.5,302.6-307.2
					c0-169.6-135.5-307.2-302.6-307.2c-167.1,0-302.6,137.5-302.6,307.2C209.3,708,344.8,845.5,511.9,845.5"/>
			</defs>
			<clipPath id="SVGID_00000018959317219705717580000005936904387564271251_">
				<use xlink:href="#SVGID_00000114776316429054090820000006074911548985536903_"  style="overflow:visible;"/>
			</clipPath>
			<path style="clip-path:url(#SVGID_00000018959317219705717580000005936904387564271251_);fill:#562385;" d="M420.7,614.3
				c-4.1-0.1-6.7-2.9-7.6-5.6c-1.3-3.9-1.2-10.7,0.4-13.7l70-124.1c1.1-2.3,4-7.1,7.5-7.1c6.2,0,8.9-8.1-1.6-8.1h-56.1
				c-10.5,0-10.6,8-0.5,8c4.1,0,5.7,4,4.6,6.5l-15.5,28.1c-1.9,3.1-6.2,3.3-10.7,3.3l-13.4,0c-0.9,0-1.7,0.8-1.7,1.7
				c0,0.9,0.7,1.7,1.7,1.7H411c3.6,0,6.4,1.1,4.4,5.2l-51.7,94.1c-3.7,5.2-11.1,6.3-10.7-3.6l18.4-137.9c0.7-4.3-0.4-7.2-5-7.2
				l-27.7,0.1c-3.3,0-5.4,1.6-7,3.8l-9.9,12.4c-1.3,1.3-4.1,1.3-7.2,1.3l-23.3,0c-0.9,0-1.7,0.7-1.7,1.7c0,0.9,0.7,1.7,1.7,1.7h19
				c3.4,0,7.3,0.8,5.9,2.4l-26.7,33.5c-0.8,0.9-3.4,1.2-5,1.2l-7.5,0c-0.9,0-1.7,0.8-1.7,1.7c0,0.9,0.7,1.7,1.7,1.7l6.3,0
				c2,0,2,1,1.2,1.8l-25.1,31.5c-1.3,1.2-3.8,1.5-6.2,1.5l-22.1,0c-0.9,0-1.7,0.7-1.7,1.7c0,0.9,0.8,1.7,1.7,1.7h19
				c2.9,0,5.1,0.5,3.6,2.5L218,602c-6.7,8.5-38.9,12.9-45.2,12.9l120.5-225.4c1.1-2.6,5.6-6.5,10.2-6.5h25.6c12.1,0,11.7-8,1.2-8
				H201.7c-10.5,0-10.9,8,1.2,8h23.8c6.8,0,8.9,4.1,7.2,7.4l-3.4,6.2c-1.1,2-2.7,2.8-9.3,2.8l-42.1,0c-0.9,0-1.7,0.7-1.7,1.7
				c0,0.9,0.7,1.7,1.7,1.7l42,0c2.3,0,5.7,0.6,3.5,4.7l-5.9,10.9c-1,1.7-3.6,2.4-6.5,2.4l-19.1,0c-0.9,0-1.7,0.8-1.7,1.7
				c0,0.9,0.7,1.7,1.7,1.7l19,0c2.7,0,2.8,1.8,1.2,4.3l-13.6,25.2c-1.2,2.1-3.4,2.4-7.7,2.4l-7.6,0c-0.9,0-1.7,0.7-1.7,1.7
				c0,0.9,0.8,1.7,1.7,1.7l7.5,0c2.9,0,3.6,1.6,2.3,4.3l-11.1,20.7c-1.7,2.9-4,4.1-11.4,4.1l-42.1,0c-0.9,0-1.7,0.8-1.7,1.7
				c0,0.9,0.7,1.7,1.7,1.7l42,0c4.7,0.1,6.5,2.2,4.6,5.5l-21.7,40.8c-1.3,1.8-4.8,2.1-10.9,2.1l-42.1-0.1c-0.9,0-1.7,0.8-1.7,1.7
				c0,0.9,0.7,1.7,1.7,1.7l42,0c5,0,8.1,0.2,6.6,2.9L137.7,570c-2.3,3.6-8.8,3.6-11.3,3.6l-13.3,0c-0.9,0-1.7,0.7-1.7,1.7
				c0,0.9,0.7,1.7,1.7,1.7l13.2,0c4.7,0,7.1,0.8,5.9,3.3l-16.7,31.4c-1.5,2.8-8,2.9-13.1,2.9l-65-0.1c-0.9,0-1.7,0.8-1.7,1.7
				c0,0.9,0.8,1.7,1.7,1.7l64.9,0c4.3,0,9.7,0.5,7.7,4l-10.6,20.1c-1,1.7-4.6,1.8-9.9,1.8l-13.3,0c-0.9,0-1.7,0.7-1.7,1.7
				c0,0.9,0.8,1.7,1.7,1.7h13.2c3.2,0,7.2,0.4,5.8,2.8l-6.7,12.8c-2.1,3.2-4.3,6-9.5,6H46.5c-12.1,0-11.6,8-1.2,8l191.7,0.1
				c5.6,0,5.8-0.8,8.4-4.9l28.4-49.6l145.3,0C429.6,622.4,426.9,614.5,420.7,614.3 M306.8,599.5c-1.4,8.2-9.6,13.6-20,16.3
				l-10.7,2.6l8.8-15.8c2.3-4.3-2.8-6.8-8.3-0.4c-37.1,43.2-48.9,63.9-106.1,64.1l-15.4,0c-4.7,0-9.8-1.8-6.6-6.3l20.2-37.7l76.9,0
				c10.5,0,7.8-7.9,1.6-8.1c-4.1-0.1-8.5-2.5-11.7-7.4c-0.9-1.4-2.8-6.8,0.2-11.1l29.4-39.1h48.9L306.8,599.5z M317.8,550.1h-47.7
				l60.4-79.7L317.8,550.1z"/>
		</g>
		<g>
			<defs>
				<path id="SVGID_00000054960082171952905590000013814615169253873541_" d="M511.9,845.5c167.1,0,302.6-137.5,302.6-307.2
					c0-169.6-135.5-307.2-302.6-307.2c-167.1,0-302.6,137.5-302.6,307.2C209.3,708,344.8,845.5,511.9,845.5"/>
			</defs>
			<clipPath id="SVGID_00000030477620434134019810000013889720349706549930_">
				<use xlink:href="#SVGID_00000054960082171952905590000013814615169253873541_"  style="overflow:visible;"/>
			</clipPath>
			<path style="clip-path:url(#SVGID_00000030477620434134019810000013889720349706549930_);fill:#562385;" d="M1044.3,574.7
				c-0.8-3.9-2.2-1.5-4.8,3.4c-0.8,1.5-3.3,1.5-5.8,1.5l-7.7,0c-0.9,0-1.7,0.7-1.7,1.7c0,0.9,0.8,1.6,1.7,1.6h7.6
				c2.9,0,2.9,1.9,1.6,4.8c-5.3,11.3-10.7,18.8-18,27.9c-1.1,1.4-4,2.7-6.3,2.7l-7.7,0c-0.9,0-1.7,0.7-1.7,1.7
				c0,0.9,0.7,1.7,1.7,1.7h7.6c3.8,0-0.1,2.3-0.7,3.2c-13.4,17.9-22.6,25.9-32.5,33.9c-1.2,0.9-6.7,0.6-10.6,0.6l-7.6,0
				c-0.9,0-1.7,0.8-1.7,1.7c0,0.9,0.8,1.7,1.7,1.7h7.5c5.7,0,1.4,3.3,0.6,4c-20.9,17.4-52,23-66.2,21.2
				c-46.2-5.8-55.7-40.9-59.1-54.9c-0.7-2.9-2.9-9-3.7-12.7c-1.4-7.3,19.4-9.4,25.2-5.6c8.7,5.8,29.1,11.8,45.1,11.9
				c14.8,0.1,45.1-10.7,53.9-36.2c9-26-13.6-54.9-23.6-64.9c-12.7-12.7-24.7-33-19.7-47.8c3.8-11.2,10.2-16.3,23.9-16.3
				c17.7,0,30.5,11.4,30.5,27.5c0,1.5-0.9,3.1-2,3.1l-6.2,0c-0.9,0-1.7,0.8-1.7,1.7c0,0.9,0.8,1.7,1.7,1.7l5.9,0
				c1.7,0,2.7,1.3,2.3,3.3c-1.1,5.4-1.5,9.2-2.7,14.6c-0.7,3.1,3.9,5.3,5.5,3l27.8-49.6c2-3.7-2.5-4.7-5.7-3.6
				c-7.6,2.6-20,4.5-24.4,1.3c-10.4-7.5-19.9-12.2-34.3-12.2c-24.7,0-42,6.1-53.1,26.4c-0.9,1.6-3.3,1.6-5.4,1.6h-4.7
				c-0.9,0-1.7,0.7-1.7,1.7c0,0.9,0.7,1.7,1.7,1.7l4,0c1.7,0,2.9,0.5,2,2.5c-0.8,1.8-1.5,3.7-2.1,5.7c-2.8,8.8-1.9,21.2,2.5,32.1
				c0.3,0.7-0.7,1.1-2.4,1.1h-7.5c-0.9,0-1.7,0.8-1.7,1.7c0,0.9,0.7,1.7,1.7,1.7h7.5c3.4,0,4.2,0.4,5.7,2.4
				c3.9,5.5,7.9,9.6,12.9,15.9c1.6,2-5.2,2.6-8.7,2.5l-29.9,0c-0.9,0-1.7,0.8-1.7,1.7c0,0.9,0.7,1.7,1.7,1.7l30.3,0
				c4.9,0,13.2-0.1,14.2,1c7.3,8.5,16.2,21.5,17.7,32.5c0.4,3.2-0.8,4.5-4.7,4.5h-4.1c-0.9,0-1.7,0.7-1.7,1.7c0,0.9,0.7,1.7,1.7,1.7
				h3.6c3.1,0,4.8,0.5,4,2.8c-3.9,12.5-9.8,21.6-33.8,21.5c-25.2-0.1-30.3-24.8-22.9-50.5c1.4-5.1-0.1-7.3-2.4-3.3L845,592
				c-0.4,0.7-2.1,2.2-4.8,2.2l-2.5,0c-0.9,0-1.7,0.8-1.7,1.7s0.8,1.7,1.7,1.7c2.2,0,3.1,1.2,2.2,2.4l-6.4,10
				c-10.6-24.2-28.3-54-37.8-64.8l0.2-0.5c23.3-1.4,57.7-23.3,63.4-42.8c9.8-33.9-23.1-46.4-41.1-46.4l-78.9,0c-10.5,0-11.3,8-1.2,8
				c5.4,0,10.2,4.7,7.8,9.6l-17.5,31.5c-1.4,2.6-6.9,2.4-13.9,2.4H707c-0.9,0-1.7,0.8-1.7,1.7c0,0.9,0.8,1.7,1.7,1.7h7.5
				c5,0,10.6,0.3,8.7,3.9l-20.6,37.3c-1,1.7-3.7,1.9-10.7,1.9l-7.6,0c-0.9,0-1.7,0.8-1.7,1.7c0,0.9,0.8,1.7,1.7,1.7h7.4
				c5.6,0,7.6,0.7,6,3.6l-27.6,49.9c-3.3,3.6-7.2,4.3-13.9,4.3c-10.1,0-10,8,0.5,8h67.5c10.5,0,7.8-8.1,1.6-8.1
				c-3.6,0-7.5-6.7-5-10.7l34.5-65.3h3.5c15.3,0,19,25.2,21.9,52.6c0.2,2-3.5,2.1-11.2,2.1l-19.2,0.1c-0.9,0-1.7,0.7-1.7,1.7
				c0,0.9,0.7,1.7,1.7,1.7h18.9c5.1,0,12.1,0.1,12.3,1.7c1.3,12.1,2.3,22.7,4.6,32.3c0.7,3-4.7,2.5-10.4,2.5l-24.4,0
				c-0.9,0-1.7,0.8-1.7,1.7c0,0.9,0.7,1.7,1.7,1.7l24.4,0c7.7,0,11.6,0,12.1,1.6c10.5,38.5,55.5,68.9,99.3,67.2
				c37.6-1.4,69.4-21.9,85.6-34.9c21.7-17.4,53.4-53.7,66.3-80.1C1041.4,585.2,1045.2,579,1044.3,574.7 M791.7,523.4
				c-5.3,4.3-13.6,9.3-15.2,7.7c-2.2-2.2-9.2-7-13-8.8l31.3-57.2c1.3-2,2.8-3.1,6.2-3.1c12.2,0,16.2,13.2,10.4,29.7
				C807.5,503.3,801,515.8,791.7,523.4"/>
		</g>
		<g>
			<defs>
				<path id="SVGID_00000057852623754186989000000004031556553378731918_" d="M511.9,845.5c167.1,0,302.6-137.5,302.6-307.2
					c0-169.6-135.5-307.2-302.6-307.2c-167.1,0-302.6,137.5-302.6,307.2C209.3,708,344.8,845.5,511.9,845.5"/>
			</defs>
			<clipPath id="SVGID_00000021812379316089585420000003635369324296813975_">
				<use xlink:href="#SVGID_00000057852623754186989000000004031556553378731918_"  style="overflow:visible;"/>
			</clipPath>
			<path style="clip-path:url(#SVGID_00000021812379316089585420000003635369324296813975_);fill:#562385;" d="M411.4,404.6
				c-6.4,8.2-14.7,10.3-24.2,10.3h-2.7l16.6-32.9c0.8-1.5,2.5-2.7,4.7-2.7c2.1,0,1.8-4.1-0.9-4.1h-26.2c-2.2,0-3,4.1-0.9,4.1
				c2.2,0,2.6,2.5,1.6,4.6l-14.9,29.3c-1,1.6-2.7,2-4.5,2.5c-2.2,0.6-3.7,4.5-1.2,4.5h41.8c3.2,0,4-1.2,4.8-2.3l8.4-13
				C415.2,403.3,412.6,403,411.4,404.6"/>
		</g>
		<g>
			<defs>
				<path id="SVGID_00000155839093235359616250000009562679224239332519_" d="M511.9,845.5c167.1,0,302.6-137.5,302.6-307.2
					c0-169.6-135.5-307.2-302.6-307.2c-167.1,0-302.6,137.5-302.6,307.2C209.3,708,344.8,845.5,511.9,845.5"/>
			</defs>
			<clipPath id="SVGID_00000157300672535311673940000011234841721508307128_">
				<use xlink:href="#SVGID_00000155839093235359616250000009562679224239332519_"  style="overflow:visible;"/>
			</clipPath>
			<path style="clip-path:url(#SVGID_00000157300672535311673940000011234841721508307128_);fill:#562385;" d="M537.3,376.3
				c-1.3,0.7-4.3,1.1-5.6,0c-3.3-2.8-9.9-4.9-13.3-4.9c-9.9,0-17,1.9-21.3,11.2c-3.6,7.9,0.1,14.6,8.8,18.6c3.8,1.7,8.8,4,6.8,8.5
				c-1.4,3.3-5.3,3.7-8.7,3.7c-4.7-0.1-11.7-3.6-12.8-10.2c-0.4-2.1-2.9-1.6-3.6-0.5l-6,11.9c-0.9,1.6,1.5,3.3,2.5,2.3
				c2-2.1,6.4-2.7,8.5-1.2c3,2,10.6,5.4,15.1,5.4c10-0.1,16.6-2.6,22.1-11.2c5-7.8,1.9-15.6-7.2-19.9c-4.8-2.2-8.9-6.3-6.8-10.7
				c1.4-2.9,5.7-2.3,7.8-1.9c4.1,0.7,9.3,4.5,9.9,7.9c0.3,1.4,2.1,1.7,2.9,0.4l3.1-7.3C540.4,377,538.1,375.9,537.3,376.3"/>
		</g>
		<g>
			<defs>
				<path id="SVGID_00000043440465572983113630000007307846143873881257_" d="M511.9,845.5c167.1,0,302.6-137.5,302.6-307.2
					c0-169.6-135.5-307.2-302.6-307.2c-167.1,0-302.6,137.5-302.6,307.2C209.3,708,344.8,845.5,511.9,845.5"/>
			</defs>
			<clipPath id="SVGID_00000062894519469194899830000002960548148245901754_">
				<use xlink:href="#SVGID_00000043440465572983113630000007307846143873881257_"  style="overflow:visible;"/>
			</clipPath>
			<path style="clip-path:url(#SVGID_00000062894519469194899830000002960548148245901754_);fill:#562385;" d="M827.4,388.1l3.6-6.7
				c1.6-3-1-6.3-5.2-6.3h-48.8c-3.5,0-2.5,3.7-1.1,3.7c3.1,0,4.1,3.8,2.2,7.1l-14.7,27c-2.2,2.6-3.6,3.7-6.7,3.7
				c-2.5,0-3.4,3.7,0.1,3.7h49.5c2,0,2.9-0.7,3.6-1.7l6.7-8.9c1.6-2.1-1.9-2.1-3-1.1c-8.5,8.5-17.7,8.3-24.3,8.3h-5.8l6.8-15.1h1.5
				c4.3,0,9.3-0.1,10.7,3.3c0.4,0.8,2.5,1.4,3.3,0l5.8-11.6c0.9-1.7-1.7-2-2.4-0.8c-2.3,4.1-12.3,3-14.9,3h-1.5l8.4-16.6h9.4
				c5.8,0,10.9,4.1,12.5,8.6C823.7,388.6,826.8,389.5,827.4,388.1"/>
		</g>
		<g>
			<defs>
				<path id="SVGID_00000129890637198331079710000014826048880302050439_" d="M511.9,845.5c167.1,0,302.6-137.5,302.6-307.2
					c0-169.6-135.5-307.2-302.6-307.2c-167.1,0-302.6,137.5-302.6,307.2C209.3,708,344.8,845.5,511.9,845.5"/>
			</defs>
			<clipPath id="SVGID_00000034774483762258431280000016518375462412087954_">
				<use xlink:href="#SVGID_00000129890637198331079710000014826048880302050439_"  style="overflow:visible;"/>
			</clipPath>
			<path style="clip-path:url(#SVGID_00000034774483762258431280000016518375462412087954_);fill:#562385;" d="M702.5,375.1h-17.4
				c-3.5,0-2.5,3.7-1.1,3.7c3.7,0,7.1,4.4,5.1,8.4l-7.2,13.2l-15.9-23.2c-1.1-1.4-3.5-2.1-5.7-2.1h-17.1c-3.5,0-2.7,3.7-1.3,3.7
				c3.6,0,2.7,2.7,1.8,4.7l-13.6,26.2c-0.9,2.1-4.6,2.4-5.7-0.3l-10.5-34.3c-0.4-1.4-6.6-1.3-8.2,0l-26.4,21.8h-13.7
				c-2.7,0-3.8,1.1-3.8,2.6c0,1.4,1,2.8,3.9,2.8l7.2,0l-7.2,5.9c-4,2.9-8,7-10.8,7h-1.6c-2.6,0-4.1,0.4-4.1,2.5
				c0,2.1,1.1,2.8,3.6,2.8h21.3c4,0,3.2-5.2,1.2-5.2c-2.2,0-5.9-2.8-2.5-6.8l6.5-6.2h12.8c7.6,0,12.9,8.8,8.4,11.5l-3.5,1.9
				c-1.7,0.9-2.4,4.7,0,4.7h41.6c3.1,0,2.5-4.1,1-4.1c-4.2,0-2.2-6.1-1.4-7.8l10.9-20.7l15.4,29.8c1,1.9,1.9,2.8,3.7,2.8h5.9
				c1.9,0,2.5-1.1,3.3-2.5l17.5-31.6c2.8-5.7,5-7.3,8.5-7.3C705.1,378.8,706.1,375.1,702.5,375.1 M586.1,396.7l16.3-13.3l0.1,13.3
				H586.1z"/>
		</g>
		<g>
			<defs>
				<path id="SVGID_00000139254030050535382600000015621813975438618255_" d="M511.9,845.5c167.1,0,302.6-137.5,302.6-307.2
					c0-169.6-135.5-307.2-302.6-307.2c-167.1,0-302.6,137.5-302.6,307.2C209.3,708,344.8,845.5,511.9,845.5"/>
			</defs>
			<clipPath id="SVGID_00000008830723457049425580000001929003650081564302_">
				<use xlink:href="#SVGID_00000139254030050535382600000015621813975438618255_"  style="overflow:visible;"/>
			</clipPath>
			<path style="clip-path:url(#SVGID_00000008830723457049425580000001929003650081564302_);fill:#562385;" d="M455.9,373.1
				c-14.6,0-29.7,7.2-32.7,22.6c-2.6,13.4,6.6,27.2,23,27.2c15.6,0,29.9-10.2,32.8-24.9C481.9,383.2,470.8,373.1,455.9,373.1
				 M460.1,401.3c-4.7,9.2-12.4,14.8-17.4,12.3c-4.9-2.5-5.2-12-0.5-21.3c4.6-9.3,12.4-14.8,17.4-12.3
				C464.4,382.5,464.7,392,460.1,401.3"/>
		</g>
		<g>
			<defs>
				<path id="SVGID_00000085962669543831683280000004252267572250367632_" d="M511.9,845.5c167.1,0,302.6-137.5,302.6-307.2
					c0-169.6-135.5-307.2-302.6-307.2c-167.1,0-302.6,137.5-302.6,307.2C209.3,708,344.8,845.5,511.9,845.5"/>
			</defs>
			<clipPath id="SVGID_00000004534225964995441980000017130799998789543340_">
				<use xlink:href="#SVGID_00000085962669543831683280000004252267572250367632_"  style="overflow:visible;"/>
			</clipPath>
			<path style="clip-path:url(#SVGID_00000004534225964995441980000017130799998789543340_);fill:#562385;" d="M752,395.5h-18.8
				c-3.5,0-2.5,3.7-1.1,3.7c1.5,0,2.9,0.8,2.9,3.2c0,7.6-3.2,10.5-9.8,10.5c-7.1,0-9.7-8.7-4.9-19.3c3.1-6.8,11.2-13.2,20.9-13.2
				c5.9,0,10.9,1.3,11.7,6.8c0.2,1.4,2.3,1.4,2.9,0.1l4.5-8c0.5-0.9-0.3-1.9-1.6-2c-1.1-0.1-3.7,1.4-5.4,0.2
				c-3.8-2.8-12-5.5-18.1-5.5c-10.1,0-24.2,2.3-33.7,18.8c-8.6,15,3.9,30.8,15.6,30.8c6.5,0,14-4.8,18.3-6.6l4.8,3.3
				c0.7,0.8,2.2,1.9,3.6,1.9h1.8c1.7,0,2.3-2.3,3-3.7l7.4-17.9C756.7,396.8,756.2,395.5,752,395.5"/>
		</g>
		<g>
			<defs>
				<path id="SVGID_00000080199145799441327720000006971469238004362909_" d="M511.9,845.5c167.1,0,302.6-137.5,302.6-307.2
					c0-169.6-135.5-307.2-302.6-307.2c-167.1,0-302.6,137.5-302.6,307.2C209.3,708,344.8,845.5,511.9,845.5"/>
			</defs>
			<clipPath id="SVGID_00000127766581199452777040000005690165408472511903_">
				<use xlink:href="#SVGID_00000080199145799441327720000006971469238004362909_"  style="overflow:visible;"/>
			</clipPath>
			<path style="clip-path:url(#SVGID_00000127766581199452777040000005690165408472511903_);fill:#562385;" d="M1009.7,376.3
				c-1.3,0.7-4.3,1.1-5.6,0c-3.3-2.8-9.9-4.9-13.3-4.9c-9.9,0-17,1.9-21.3,11.2c-3.7,7.9,0.1,14.6,8.8,18.6c3.8,1.7,8.8,4,6.9,8.5
				c-1.4,3.3-5.3,3.7-8.8,3.7c-4.6-0.1-11.7-3.6-12.8-10.2c-0.3-2.1-2.9-1.6-3.6-0.5l-6,11.9c-0.9,1.6,1.5,3.3,2.5,2.3
				c2-2.1,6.4-2.7,8.5-1.2c3,2,10.6,5.4,15.1,5.4c10-0.1,16.6-2.6,22-11.2c5-7.8,1.9-15.6-7.2-19.9c-4.8-2.2-8.9-6.3-6.8-10.7
				c1.4-2.9,5.7-2.3,7.8-1.9c4,0.7,9.3,4.5,9.9,7.9c0.3,1.4,2.1,1.7,2.9,0.4l3.1-7.3C1012.8,377,1010.5,375.9,1009.7,376.3"/>
		</g>
		<g>
			<defs>
				<path id="SVGID_00000108294493444983524620000015860490982941037449_" d="M511.9,845.5c167.1,0,302.6-137.5,302.6-307.2
					c0-169.6-135.5-307.2-302.6-307.2c-167.1,0-302.6,137.5-302.6,307.2C209.3,708,344.8,845.5,511.9,845.5"/>
			</defs>
			<clipPath id="SVGID_00000003788112347229341470000016240899318853102227_">
				<use xlink:href="#SVGID_00000108294493444983524620000015860490982941037449_"  style="overflow:visible;"/>
			</clipPath>
			<path style="clip-path:url(#SVGID_00000003788112347229341470000016240899318853102227_);fill:#562385;" d="M878.9,404.6
				c-6.3,8.2-14.7,10.3-24.2,10.3h-2.6l16.6-32.9c0.8-1.5,2.5-2.7,4.7-2.7c2.1,0,1.8-4.1-0.9-4.1h-26.2c-2.2,0-3,4.1-0.9,4.1
				c2.2,0,2.6,2.5,1.6,4.6l-14.9,29.3c-1,1.6-2.6,2-4.5,2.5c-2.2,0.6-3.7,4.5-1.2,4.5h41.8c3.2,0,4-1.2,4.9-2.3l8.4-13
				C882.7,403.3,880.2,403,878.9,404.6"/>
		</g>
		<g>
			<defs>
				<path id="SVGID_00000025432465145137367950000016050147706201424261_" d="M511.9,845.5c167.1,0,302.6-137.5,302.6-307.2
					c0-169.6-135.5-307.2-302.6-307.2c-167.1,0-302.6,137.5-302.6,307.2C209.3,708,344.8,845.5,511.9,845.5"/>
			</defs>
			<clipPath id="SVGID_00000080923438419883575980000014147286309211573673_">
				<use xlink:href="#SVGID_00000025432465145137367950000016050147706201424261_"  style="overflow:visible;"/>
			</clipPath>
			<path style="clip-path:url(#SVGID_00000080923438419883575980000014147286309211573673_);fill:#562385;" d="M942,378.9
				c5.8,0,10.9,4.1,12.5,8.6c0.4,1.1,3.5,1.9,4.2,0.6l3.6-6.7c1.6-3-1-6.3-5.2-6.3h-48.8c-3.5,0-2.5,3.7-1.1,3.7
				c3.2,0,4.1,3.8,2.2,7.1l-14.7,27c-2.2,2.6-3.6,3.7-6.7,3.7c-2.5,0-3.4,3.7,0.1,3.7h49.4c2,0,2.9-0.7,3.6-1.7l6.7-8.9
				c1.6-2.1-1.9-2.1-3-1.1c-8.5,8.5-17.7,8.3-24.3,8.3h-5.8l6.8-15.1h1.4c4.3,0,9.4-0.1,10.7,3.3c0.4,0.8,2.5,1.4,3.4,0l5.8-11.6
				c0.9-1.7-1.7-2-2.4-0.8c-2.3,4.1-12.3,3-15,3h-1.4l8.4-16.6L942,378.9L942,378.9z"/>
		</g>
	</g>
	<path d="M749.7,339.4c-3.8-4.3-8.9-13.5-46.1-46C648.8,245.7,576.3,224,508.2,224C458,224,414,235.2,365.3,262
		c-62,34.1-87.7,73.4-94.1,81.4c-4.7,5.9-5.4,9.3-2.3,11.1c2.2,1.2,6.3-3.3,10.3-8.5c18.5-24.4,42.7-48.5,68.3-62.8
		c7.9,1.2,19.1,12.2,23.4,18.1c-16.3,8.9-43.4,29.5-53.7,37.5c-8.9,6.9-11.9,10.7-9.5,13.5c2,2.3,8.8-2.2,14.4-6.9
		c9.8-8.1,39-28.7,53.4-36.5c9.8,11.5,6.7,32.7,3.2,37.3c-1.9,2.5-2.1,5.1,0,6.3c2,1.1,4.2-1.8,7.1-5.9c6.7-9.7,4-33.1-1.7-41.5
		c17.6-10.9,42.9-18.2,58.2-21.7c1.3,2.4,19.8,56.6,23.4,66.5c1.9,5.4,3.8,11.8,7.8,10.6c2.6-0.8,0.9-6.7-1.3-12.6
		c-2.7-7.3-16.7-52.9-21.1-66.3c5.1-2.7,35.5-8.9,43.1-8.6c-3.7,19.8,10.3,27.9,26.1,38.3c8.4,5.5,62,36.3,73.2,43.2
		c6.4,4,11.3,6.5,12.7,4.6c1.6-2.1-2.8-6.6-8.7-10.1c-4.7-2.8-54.5-31.6-75.3-44.8c-14.9-9.4-22.9-19.5-19.4-32.7
		c4.9-1.4,19.9-1.5,35.5-1.4c106.2,0.9,191.4,61.7,200.9,71.5c4.8,4.9,11.5,9.2,14.1,7.2C754.9,347.6,752,342,749.7,339.4
		 M379.4,297.5c-2.9-4.8-16.4-17.1-23.7-19.5c17-12.6,56.6-30.7,71.6-33.9c2.6,4.3,9.5,22.7,11.8,30.5
		C425.9,277.4,390.7,290,379.4,297.5 M495.5,263.3c-13.8,0.9-39,6.3-47.9,8.9c-2.3-6-8.6-24.7-10.7-30.7c25.5-7.2,55.1-9.7,77.9-7.8
		C508.5,238.6,497.8,257.8,495.5,263.3 M564.4,262.4c-23-1.6-41.8-2.3-58.3-0.6c4.8-12,14.3-23.2,21.7-28.2
		c15.7,0.6,31.9,2.9,44.7,5.5c41.1,8.1,105,33.2,132.5,70.1C668.3,284.8,607.4,265.5,564.4,262.4"/>
	<path d="M772.7,703c3.9-7.2,7.1-11.4,3.8-13.2c-3.1-1.7-6.1,5-9.8,11.5c-12.4,21.6-26,39.3-56.6,67.2
		c-33.9,30.9-72.9,48.8-86.5,53.4c-11.5-32.4-55.5-170.7-56.7-174.6c-1.7-5.9-3.2-7.6-5.2-6.9c-2.2,0.8-0.9,4.1,0.3,9.2
		c1.2,5.2,53.5,168.7,55.3,174.5c-10.4,5.2-52.6,17-82.1,17.9c-26.3,0.9-57.1,0-72.7-3.6c-18.3-14.7-59.8-73.4-75.6-104.7
		c-18.6-36.8-30.9-70.6-34.1-85c-1.5-6.9-3.5-11.8-6.9-11.2c-3.7,0.7-1.6,6.1,0.6,13.5c5.6,18.9,14.7,45.7,34.1,84
		c20.5,40.5,57.1,88,67.8,100.9c-33.5-7-74.1-22.7-112.8-51.5c-33.3-24.8-61.9-56.4-76.3-79.4c-2.4-4-5.4-9.5-8.9-7.2
		c-1.6,1.1,0.4,5.6,2.9,10c20.9,37.5,71.8,90.6,137.1,119.8c76.1,34,159,32.2,233.2,3.4C688.4,806,744.8,754.3,772.7,703"/>
</g>
</svg>
