<?xml version="1.0" encoding="utf-8"?>
<!-- Generator: Adobe Illustrator 26.2.1, SVG Export Plug-In . SVG Version: 6.00 Build 0)  -->
<svg version="1.1"
	 id="Layer_1" xmlns:cc="http://creativecommons.org/ns#" xmlns:dc="http://purl.org/dc/elements/1.1/" xmlns:rdf="http://www.w3.org/1999/02/22-rdf-syntax-ns#"
	 xmlns="http://www.w3.org/2000/svg" xmlns:xlink="http://www.w3.org/1999/xlink" x="0px" y="0px" viewBox="0 0 1080 1080"
	 style="enable-background:new 0 0 1080 1080;" xml:space="preserve">
<style type="text/css">
	.st0{fill:#8C734B;}
	.st1{fill:#0A2240;}
	.st2{fill:#CE0E2D;}
	.st3{fill:#FFFFFF;}
</style>
<g>
	<path class="st0" d="M903.8,475.5l2.3,0.8v-41.5c0-6.6-1.1-13.2-3.4-19.4c-2.3-6.4-5.6-12.5-9.7-17.9c-3.8-4.9-8.2-9.4-13.1-13.3
		c-4.4-3.4-9.1-6.3-14.1-8.6c-3.2-2.1-9.5-5.1-26.5-12c-14.5-5.7-37.9-14.5-68.3-23.4c-33.7-10-68-18-102.6-24l0,0
		c-0.2-0.4-26.8-33.5-66.6-16.4c-1.3,0.6-2.7,1.3-4,1.9c-5.9,2.9-11.2,5.5-21.3,2.7c-5.9-1.7-13.5-5.3-10.5-18.5
		c0.9-3.8,3.4-7.1,6.7-9.1c2.5-1.5,5.5-1.9,8.2-1.1c5.3,1.5,7.6,4.4,6.7,8.8c-0.3,1.8-1.5,3.3-3.2,4c-1.9,0.6-3.9,0.2-5.5-1.1
		c-1.9-1.3-4.6-0.9-5.9,1.1c-1.3,1.9-0.9,4.6,1.1,5.9c3.9,3,9,3.7,13.5,1.9c4.3-1.8,7.4-5.7,8-10.3c0.6-3.4,1.5-14.3-12.6-18.3
		c-4.9-1.5-10.3-0.9-14.7,1.7c-5.3,3.2-9.1,8.5-10.5,14.5v0.4c-1.3-1.8-2.7-3.5-4.2-5.1l-13.7-14.1l-13.7,14.1
		c-1.5,1.6-2.9,3.3-4.2,5.1V284c-1.5-6-5.3-11.2-10.5-14.5c-4.5-2.6-9.8-3.3-14.7-1.7c-14.1,4.2-13.3,15.2-12.6,18.3
		c0.9,4.5,3.9,8.3,8,10.3c4.5,1.8,9.6,1.1,13.5-1.9c1.9-1.3,2.4-4,1.1-5.9c-1.3-1.9-4-2.4-5.9-1.1c-1.5,1.3-3.6,1.7-5.5,1.1
		c-1.6-0.8-2.7-2.3-3.2-4c-0.8-4.4,1.5-7.4,6.7-8.8c2.8-0.8,5.8-0.4,8.2,1.1c3.3,2.1,5.7,5.3,6.7,9.1c3.2,13.3-4.4,17.1-10.5,18.5
		c-10.1,2.7-15.4,0.2-21.3-2.7c-1.3-0.6-2.7-1.3-4-1.9c-39.8-17.1-66.4,16-66.8,16.4c0,0.1-0.1,0.2-0.2,0.2c0,0,0,0,0,0
		c-33.4,5.8-66.5,13.5-99,23c-32.3,9.5-63.9,21.2-94.6,34.8l-5.5,2.5v0.8c-2.5,0.4-4.9,1.2-7.2,2.3c-8.8,4-17.5,8.4-26.1,12.6
		l-6.5,3.4v22.5c-0.2,4.8,0.9,9.5,3.2,13.7c0.4,0.8,0.9,1.5,1.5,2.1v25.1c-2.8,5.1-4.4,10.8-4.4,16.6c-0.2,5.1,1.4,10,4.4,14.1v52.3
		l0.6,1.5c6.1,15,18.3,26.8,33.5,32.4l-0.6,0.4c0,0,13.1,21.1,33.3,25.5l-3.8,1.7c0,0,14.3,23.2,41.9,28l-4,1.9
		c12.5,12.2,28.5,20.2,45.7,22.8c38.3,119.7,166.5,185.7,286.2,147.4c70.1-22.4,125-77.3,147.4-147.4c17.3-2.6,33.3-10.5,45.7-22.8
		l-4-1.9c27.6-4.8,41.9-28,41.9-28l-3.8-1.7c20.2-4.4,33.3-25.5,33.3-25.5l1.3-1.7c21.7-9.1,36.1-30.2,36.7-53.7v-26.5
		C907.3,488.1,905.9,481.7,903.8,475.5z M654.1,314.1c-16.4-2.5-33.3-4.4-50.6-5.7c0.4-0.2,1.1-0.4,1.5-0.6
		C621.2,300.3,640.3,302.8,654.1,314.1z M474.4,307.8c0.6,0.2,1.1,0.4,1.5,0.8c-17.3,1.3-34.3,3.4-50.8,5.9
		C434.6,307.1,452,298.1,474.4,307.8L474.4,307.8z"/>
	<path class="st1" d="M884.6,457.8l12.2,4.8v-27.8c-0.1-5.5-1-11-2.7-16.2c-2-5.5-4.7-10.7-8.2-15.4c-3.3-4.3-7.1-8.2-11.4-11.6
		c-3.9-3.1-8.3-5.7-12.9-7.8c-2.3-1.7-8.6-4.8-25.5-11.4c-14.3-5.7-37.5-14.3-67.4-23.2c-49.1-14.7-123-32-200.2-33.1
		c-1.9-5.4-6.4-9.4-12-10.7c-0.6-10.1-8-17.9-9.5-19.6l-7.2-7.4l-7.2,7.4c-1.5,1.5-8.8,9.5-9.5,19.6c-5.6,1.2-10.1,5.2-12,10.5
		c-75.9,1.3-148.3,18.1-196.6,32.4c-31.8,9.5-63,20.9-93.3,34.3v5.7c0,0-0.6-0.4-1.1-0.6c-1.5-0.7-3-1-4.6-1.1
		c-2.4,0.1-4.8,0.7-7,1.7c-8.6,4-17.3,8.2-25.7,12.4l-1.5,0.6v17.1c-0.2,3.2,0.6,6.3,2.1,9.1c0.7,1.2,1.6,2.3,2.7,3.2v31
		c-2.7,4.3-4.2,9.2-4.4,14.3c-0.3,4,1.4,7.9,4.4,10.5v54.1c6.1,14.4,18.7,24.9,33.9,28.4c0.6,0.2,1.3,0.2,1.9,0.4h0.2
		c4.4,0.9,8.8,1.3,13.3,1.1l0,0c-4.6,2.3-9.1,4.4-13.7,7c0,0.2,13.7,22.5,46.1,19.4c-5.5,2.5-10.7,5.3-16.2,7.8
		c0,0.2,15.6,22.1,50.1,21.7c-8,4-12.6,6.5-12.6,6.5c11.6,10.1,26.2,16,41.5,16.9c34.6,115.6,156.4,181.1,271.9,146.5
		c70.4-21.1,125.4-76.1,146.5-146.5c15.3-1,29.9-6.9,41.5-16.9c0,0-4.8-2.5-12.6-6.5c34.3,0.6,49.9-21.3,50.1-21.7
		c-5.5-2.7-10.7-5.3-16.2-7.8c32.7,3.2,46.1-19,46.1-19.4c-4.6-2.3-9.1-4.6-13.7-7c9.5,0.7,19-1.5,27.2-6.3
		c16-8.6,26.2-25.1,26.8-43.2v-26.5C898.1,477.6,884.6,457.8,884.6,457.8z"/>
	<path class="st2" d="M685.1,668.5c4,3.2,8.2,6.3,12.2,9.5c0-0.4-48.5,13.3-83.2-1.9l-3.8-1.9c-10.8,39.1-51.2,62.1-90.3,51.3
		c-24.9-6.9-44.4-26.4-51.3-51.3c-1.3,0.6-2.3,1.3-3.8,1.9c-34.6,15.2-83.2,1.5-83.2,1.9c4-3.2,8.2-6.3,12.2-9.5
		c-14.5,1.9-29.3,0.5-43.2-4c42.8,104.1,161.9,153.9,266,111.1c50.4-20.7,90.4-60.7,111.1-111.1
		C714.1,669.2,699.4,670.5,685.1,668.5z"/>
	<path class="st3" d="M519.5,337.3c-3.7-1.8-6.5-5-8-8.8c-122.2,3.2-244.2,47-243.8,48.7c-4.4,1.4-7.6,5.1-8.2,9.7v4.4
		c83.1-32.3,171.1-49.9,260.2-52L519.5,337.3z"/>
	<path class="st3" d="M819.5,380.3c0.2-1.7-127.7-48.7-251.6-51.8c-1.5,3.8-4.4,6.9-8,8.8v1.7c91.8,2.7,182.4,21.4,267.8,55.2v-4.4
		C827,385.3,823.8,381.6,819.5,380.3z"/>
	<path class="st2" d="M553.2,315.2c-8-1.1-9.3,10.3-9.5,14.1h-2.5c0-10.7,5.3-15.2,5.3-22.3c0-7.2-6.5-13.9-6.5-13.9
		s-6.5,6.7-6.5,13.9c0,7.2,5.1,11.6,5.1,22.3h-2.5c-0.2-3.8-1.5-15.2-9.5-14.1c-8.6,1.1-7.6,12.9,0,13.9c0,0-1.5-5.3,2.7-5.3
		c3.2,0,4,3.6,4.2,5.5h-3.8v4.2h8.4c-0.5,2.2-1.8,4.1-3.8,5.3c0.7,1.4,2,2.3,3.6,2.5c0.1,1.9,0.8,3.7,2.1,5.1c1.3-1.4,2-3.2,2.1-5.1
		c1.5-0.2,2.9-1.1,3.6-2.5c-2-1.1-3.3-3.1-3.8-5.3h8.2v-4.2h-3.6c0.2-1.9,1.1-5.5,4.2-5.5c4.2,0,2.7,5.3,2.7,5.3
		C560.8,328,561.6,316.2,553.2,315.2"/>
	<path class="st3" d="M514,397.5v-26.3c0.1-3.3-0.6-6.6-2.1-9.5c-1.2-2.6-3.1-4.9-5.5-6.5c-2.4-1.8-5.3-3-8.2-3.6
		c-3.4-0.6-6.9-0.9-10.3-0.6c-3.5,0.2-7,0.9-10.3,2.1c-3,1.1-5.9,2.6-8.4,4.6c-2.4,2-4.3,4.5-5.5,7.4c-1.4,3.1-2.1,6.5-2.1,9.9v26.5
		c-2.8,0.7-4.8,3.2-4.8,6.1c-0.1,2.7,2.1,5,4.8,5.1c0,0,0,0,0,0v29.7c-0.1,3.3,0.6,6.5,2.1,9.5c1.2,2.6,3.1,4.7,5.5,6.3
		c2.5,1.7,5.4,2.9,8.4,3.4c6.9,1.3,14,0.8,20.6-1.3c3-1,5.8-2.5,8.2-4.4c2.4-1.9,4.3-4.4,5.5-7.2c1.4-3,2.1-6.3,2.1-9.7v-29.7
		c2.9-0.4,5.1-2.8,5.3-5.7C519.5,400.5,517.1,397.8,514,397.5z M499.4,438.4c0,1.7-0.3,3.3-1.1,4.8c-0.7,1.3-1.6,2.4-2.7,3.4
		c-1.1,0.8-2.3,1.5-3.6,2.1c-1.3,0.5-2.6,0.8-4,0.8c-1.4,0-2.8,0-4.2-0.2c-1.3-0.3-2.6-0.8-3.8-1.5c-1.1-0.8-2.1-1.8-2.7-2.9
		c-0.7-1.5-1.1-3.2-1.1-4.8v-66.2c0-1.7,0.3-3.3,1.1-4.8c0.7-1.3,1.6-2.4,2.7-3.4c1.1-0.9,2.4-1.7,3.8-2.1c1.4-0.5,2.8-0.8,4.2-0.8
		c1.3-0.1,2.7,0.1,4,0.4c1.3,0.3,2.5,0.8,3.6,1.7c1.1,0.8,2,1.8,2.7,2.9c0.7,1.5,1.1,3.2,1.1,4.8L499.4,438.4z"/>
	<path class="st3" d="M233.8,468.8c0,0.2,0,0.4-0.2,0.2l-0.4-0.4c-0.4-1.3-17.7-59-18.8-61.5c-0.8-2.7-1.5-4-1.5-4.2
		c-0.1-0.7-0.6-1.4-1.3-1.7c-0.9-0.3-1.8-0.1-2.5,0.4c-5.3,2.5-10.3,4.8-15.6,7.4v4.8c-0.1,1.2,0.1,2.5,0.6,3.6
		c0.4,0.7,1,1.3,1.7,1.7c0.7,0.4,1.5,0.5,2.3,0.4v44c-2.6,1.8-4.3,4.6-4.4,7.8c-0.3,1.7,0.9,3.3,2.7,3.6c0.6,0.1,1.2,0,1.8-0.2v62.2
		c4-1.9,8-3.8,12.2-5.7v-78c0-0.6,0-0.8,0.2-0.8l0.2,0.2c0.4,1.4,0.9,2.7,1.5,4c0.8,2.5,17.9,59.4,18.1,59.8
		c0.4,1.2,0.9,2.3,1.5,3.4c0.5,0.8,1.5,1.1,2.3,0.6c0.1,0,0.1-0.1,0.2-0.2c2.7-1.1,5.5-2.3,8.2-3.4c1-0.5,1.9-1.2,2.5-2.1
		c0.6-0.9,0.9-1.9,0.8-2.9v-58.4c2.3-1.6,3.8-4.1,4-7c0.2-1.9-1.2-3.6-3.2-3.8c-0.3,0-0.6,0-0.9,0v-43.2c0-0.7,0.1-1.4,0.4-2.1
		c0.2-0.4,0.6-1.1,0.8-1.5c0.9-1.1,1.6-2.2,2.3-3.4c0.8-1.3,1.1-2.9,1.1-4.4v-4.2c-5.7,2.3-11.4,4.6-17.1,7.2v77.7H233.8z"/>
	<path class="st3" d="M810.9,469.8c0,0.2,0,0.2-0.2,0s-0.2-0.4-0.4-0.6c-0.4-1.5-1.1-4.2-2.3-8.4c-1.1-4.2-2.5-9.1-4-14.5
		s-2.9-11.4-4.6-17.3c-1.7-6.1-3.2-11.6-4.6-16.6c-1.5-5.1-2.7-9.3-3.6-12.9c-0.6-1.8-1.1-3.6-1.5-5.5c-0.2-1-0.6-1.9-1.3-2.7
		c-0.7-0.7-1.6-1.3-2.5-1.7c-5.5-1.7-10.7-3.6-16.2-5.3v4.8c0,1.4,0.2,2.9,0.6,4.2c0.4,1.1,1,2.1,1.7,2.9c0.7,0.9,1.5,1.7,2.5,2.3
		v34.3c-2.2-0.4-4.2,1.1-4.6,3.3c-0.1,0.3-0.1,0.6,0,0.9c0.1,3,1.9,5.7,4.6,7v50.4c4.2,1.3,8.4,2.7,12.6,4v-68.9
		c0-0.6,0-0.8,0.2-0.6c0,0.2,0.2,0.2,0.2,0.6c0.4,1.8,0.9,3.5,1.5,5.3c1.1,3.4,2.1,7.6,3.6,12.6c1.5,5.1,2.9,10.5,4.6,16.4
		c1.7,5.9,3.2,11.4,4.6,16.6c1.5,5.3,2.7,9.7,3.8,13.3c1.1,3.8,1.7,5.9,1.9,6.3c0.4,1.6,0.9,3.1,1.5,4.6c0.5,1.1,1.4,2,2.5,2.5
		l8.2,3.2c0.8,0.5,1.8,0.4,2.5-0.2c0.6-0.6,0.9-1.5,0.8-2.3v-46.8c1.9,0.3,3.7-1,4-2.9c0-0.3,0-0.6,0-0.9c-0.2-2.8-1.6-5.4-4-7
		v-33.5c0-0.6,0.1-1.2,0.4-1.7l0.8-0.8c0.9-0.3,1.6-0.8,2.3-1.5c0.8-1,1.2-2.3,1.1-3.6v-4.2c-5.7-2.3-11.6-4.4-17.3-6.5v71.2H810.9z
		"/>
	<path class="st3" d="M882.9,480.8c-1.8-3.9-4-7.7-6.5-11.2c-2.1-2.9-4.4-5.9-7-8.8c0.2-0.4,0.2-0.8,0.2-1.3
		c-0.3-3.5-2.4-6.6-5.5-8.2c-1-0.6-2.3-0.7-3.4-0.2c-0.4-0.4-0.8-1.1-1.3-1.5c-2.3-2.6-4.5-5.4-6.5-8.2c-1.6-1.9-2.5-4.3-2.7-6.7
		v-23c-0.1-0.9,0.3-1.8,1.1-2.3c0.7-0.6,1.6-1,2.5-1.1c1.1-0.1,2.1-0.1,3.2,0c1.1,0.3,2.1,0.6,3.2,1.1c0.8,0.4,1.9,1.1,3.2,1.7
		c1.1,0.8,2.3,1.7,3.2,2.5c0.9,0.9,1.7,2,2.3,3.2c0.6,1.1,1,2.3,1.1,3.6v5.5c0.1,2.5,0.9,4.9,2.3,7c1.4,2.2,3.5,4,5.9,5.1
		c2.1,1.1,4.2,1.9,6.1,2.9V430c0-3.6-0.6-7.1-1.7-10.5c-1.3-3.3-3-6.4-5.1-9.3c-2.1-2.9-4.7-5.4-7.6-7.6c-2.9-2.3-6.1-4.2-9.5-5.7
		c-3-1.4-6.2-2.4-9.5-2.9c-2.5-0.5-5.2-0.2-7.6,0.6c-2.1,0.9-3.9,2.6-5.1,4.6c-1.4,2.9-2.1,6.1-1.9,9.3v19c0,3.9,0.8,7.8,2.5,11.4
		c1.8,3.6,4,7,6.5,10.1c2.6,3.2,5.3,6.3,8.2,9.3c-0.3,0.7-0.4,1.4-0.4,2.1c0.2,3.5,2.3,6.5,5.5,8c1.3,0.8,3,0.7,4.2-0.2
		c2.2,2.6,4.2,5.4,5.9,8.4c1.6,2.9,2.5,6.2,2.5,9.5v27.2c0,1.1-0.3,2.1-1.1,2.9c-0.8,0.7-1.7,1.2-2.7,1.5c-1.2,0.2-2.4,0.2-3.6,0
		c-1.3-0.2-2.6-0.5-3.8-1.1c-1.4-0.6-2.6-1.4-3.8-2.3c-1.3-1.1-2.5-2.1-3.6-3.2c-1-1.1-1.9-2.3-2.7-3.6c-0.6-1.2-1-2.5-1.1-3.8v-6.3
		c0.1-2.1-0.6-4.2-1.9-5.9c-1.5-1.9-3.4-3.3-5.7-4.2c-2.3-0.8-4.4-1.9-6.7-2.7v11c0,3.6,0.7,7.2,2.1,10.5c1.3,3.3,3.1,6.4,5.5,9.1
		c2.4,2.8,5,5.3,8,7.4c3.1,2.1,6.3,4,9.7,5.7c3.1,1.4,6.4,2.4,9.7,3.2c2.6,0.6,5.4,0.5,8-0.2c2.3-0.6,4.3-2.1,5.5-4.2
		c1.6-2.6,2.3-5.6,2.1-8.6v-26.1C885.4,488.2,884.6,484.3,882.9,480.8z"/>
	<path class="st3" d="M393.3,418c-0.6,5.1-1.3,10.1-1.7,15.2c-0.6,5.1-1.1,9.3-1.7,13.3c-0.4,3.8-0.8,7-1.3,9.3
		c-0.2,2.3-0.4,3.6-0.6,3.6c-1.3-6.7-2.3-12.9-3.2-18.3c-0.8-5.5-1.9-11.4-3.2-18.1c-1.1-6.7-2.3-13.3-3.4-19.8
		c-1.3-6.5-2.3-12.4-3.4-18.1c-1.1-5.5-1.9-9.9-2.7-13.1c-0.2-1.1-1.1-1.7-2.7-2.1c-1.6-0.3-3.2-0.3-4.8,0c-1.6,0.5-3.2,1.1-4.6,1.9
		c-1.4,0.6-2.4,1.9-2.7,3.4c-0.8,3.4-1.7,8-2.7,14.1c-1.1,5.9-2.1,12.4-3.4,19.6c-1.1,7-2.3,14.1-3.4,21.3s-2.1,13.9-3.2,19.8
		c-0.8,5.9-1.9,12.6-3.2,20c0,0-0.2-1.1-0.6-3.4c-0.4-2.3-0.6-5.3-1.3-8.8c-0.4-3.6-0.8-7.8-1.5-12.4c-0.6-4.6-1.3-9.5-1.7-14.3
		c-1.3-11.4-6.1-52.7-6.1-52.7l-17.7,5.1v4.4c-0.1,1.3,0.3,2.7,1.1,3.8c0.5,0.7,1.3,1.3,2.1,1.7c0.4,0.2,0.8,0.6,1.3,0.8
		c0.4,0.5,0.7,1.1,0.8,1.7c1.5,11.6,2.7,22.3,3.8,32.4c-2.1,1.4-3.5,3.8-3.6,6.3c-0.1,2.2,1.6,4.2,3.8,4.3c0.3,0,0.7,0,1-0.1v0.6
		c0.6,5.5,1.3,11,1.9,16.2s1.3,9.9,1.7,14.1c0.6,4.2,1.1,7.6,1.3,10.1c0.3,1.4,0.4,2.8,0.4,4.2c0,0.7,0.3,1.4,0.8,1.9
		c0.6,0.7,1.5,0.8,2.3,0.4l16.4-4.4c1-0.2,1.8-0.7,2.5-1.5c0.7-1,1.3-2,1.7-3.2c4.2-24.7,8.2-49.1,12.4-73.5
		c4,22.5,8,45.3,12.2,68.1c0.3,0.9,0.9,1.7,1.7,2.3c0.8,0.5,1.7,0.6,2.5,0.4l16.4-3.2c0.9-0.2,1.8-0.7,2.3-1.5
		c0.5-0.7,0.8-1.5,1.1-2.3c0-0.2,0.2-1.7,0.6-4.4c0.4-2.7,0.8-6.3,1.3-10.7c0.6-4.4,1.1-9.3,1.7-15c0.6-5.5,1.3-11.2,1.9-17.1v-0.6
		c2.8-0.9,4.7-3.4,4.8-6.3c0.1-2.2-1.4-4.2-3.6-4.6c1.3-10.5,2.5-21.9,4-34.1c0.2-0.7,0.4-1.5,0.8-2.1c0.4-0.5,0.8-1,1.3-1.5
		c0.9-0.7,1.6-1.7,2.1-2.7c0.7-1.3,1.1-2.7,1.1-4.2v-4.4c-6.1,1.1-12,1.9-17.9,3.2C399.6,362.8,394.7,406,393.3,418z"/>
	<path class="st3" d="M756.5,433.4c-0.2-3-2.1-5.7-4.8-7c-0.6-4-1.3-8-2.1-12c-0.8-5.5-1.7-10.3-2.5-14.7c-0.6-4.4-1.3-8-1.9-11
		c-0.4-2.7-0.8-4.4-0.8-4.8c-0.3-1.9-1.1-3.8-2.3-5.3c-1.4-1.7-3.3-2.9-5.5-3.4c-6.5-1.7-13.1-3.4-19.6-4.8v3.4
		c-0.3,3.3,1,6.5,3.6,8.6c0.5,0.3,0.7,0.9,0.6,1.5c0,0.7,0,1.4-0.2,2.1c0,0-0.2,1.3-0.6,3.4c-0.4,2.1-1.1,5.1-1.7,8.6
		c-0.6,3.6-1.5,7.6-2.3,12.2c-0.4,2.3-0.8,4.4-1.3,6.7c-2.3-0.7-4.8,0.6-5.5,3c-0.1,0.5-0.2,0.9-0.2,1.4c0.2,2.5,1.5,4.8,3.6,6.1
		c-2.7,14.1-9.5,48.5-9.5,48.5l13.9,3.2c0,0,4-23.6,4.2-24c0.2-1.9,1.1-2.7,2.5-2.3c5.5,1.3,11.2,2.7,16.6,4.2
		c0.8,0.2,1.5,0.5,2.1,1.1c0.7,0.7,1.1,1.7,1.1,2.7c0,0.4,3.2,25.9,3.2,25.9c4.8,1.5,9.7,2.7,14.5,4.2c0,0-5.9-35.8-9.1-53.5
		C755.2,436.9,756.5,435.5,756.5,433.4z M741.8,444.3c-0.4,0.4-0.8,0.4-1.7,0.2c-4.6-1.3-9.1-2.3-13.7-3.6c-0.6-0.1-1.1-0.5-1.5-1.1
		c-0.5-0.4-0.6-1.1-0.4-1.7c0,0,0.2-0.8,0.4-2.3s0.6-3.4,0.8-5.7c0.4-2.3,0.8-4.8,1.3-7.8s1.1-5.9,1.7-8.8c1.5-8,2.9-16,4.4-24.2
		h0.2c1.5,8.8,2.9,17.5,4.4,26.3c0.6,3.4,1.1,6.5,1.7,9.7c0.4,3.2,0.8,6.1,1.3,8.4c0.4,2.5,0.6,4.6,1.1,6.3c0.1,0.8,0.2,1.7,0.4,2.5
		C742.4,443.5,742.2,444.1,741.8,444.3z"/>
	<path class="st3" d="M579.1,448.3c-0.4-0.4-0.8-0.6-1.3-0.8c-0.4-0.2-0.4-0.8-0.4-1.9v-24.9c0-3.4-0.6-6.7-1.7-9.9
		c-0.9-2.8-2.7-5.2-5.1-7c-1.1-1.1-1.3-2.1-0.2-2.9c2.2-1.6,3.9-3.7,5.1-6.1c1.3-2.6,1.9-5.5,1.9-8.4V375c0-3.3-0.4-6.7-1.3-9.9
		c-0.8-2.9-2.2-5.5-4.2-7.8c-2.1-2.3-4.6-4.1-7.4-5.3c-3.5-1.4-7.2-2.2-11-2.1c-10.3-0.2-20.4-0.2-30.8,0v4.2
		c-0.1,1.6,0.3,3.2,1.1,4.6c0.6,0.9,1.4,1.7,2.3,2.3c0.4,0.2,0.8,0.5,1.1,0.8c0.3,0.6,0.4,1.2,0.4,1.9v33.1
		c-2.7,0.6-4.6,2.9-4.6,5.7c0,2.7,1.9,5.1,4.6,5.5v50.4h14.5v-47.8c0-1.3,0.6-2.1,1.9-2.1c3.2,0,6.1,0,9.3,0.2
		c2.7-0.2,5.2,0.9,7,2.9c1.6,2.4,2.3,5.2,2.1,8v31.8c-0.1,1.9,0.6,3.8,1.9,5.3c1.5,1.4,3.6,2.2,5.7,2.1c4.2,0.2,8.2,0.4,12.4,0.6
		v-5.7c0.1-1.3-0.3-2.7-1.1-3.8C580.8,449.6,579.9,448.9,579.1,448.3z M562.7,386.2c0.2,2.8-0.5,5.6-2.1,8c-1.7,2-4.3,3.1-7,2.9
		c-3.2,0-6.3,0-9.5-0.2c-0.4,0-0.9-0.2-1.3-0.4c-0.4-0.2-0.6-0.6-0.6-1.1v-31.2c0-1.1,0.8-2.1,2-2.1c0.1,0,0.2,0,0.3,0
		c2.9,0,5.9,0,8.8,0.2c2.7-0.2,5.3,1,7,3.2c1.5,2.4,2.3,5.2,2.1,8v12.6L562.7,386.2z"/>
	<path class="st3" d="M625.7,420.7c-1.5,0.4-2.3,1.9-2.3,4c0,0.6,0.2,25.1-0.2,25.7c-0.4,0.4-0.9,0.6-1.5,0.6
		c-4.4-0.4-8.6-0.8-13.1-1.3c-0.7,0-1.3-0.4-1.5-1.1c-0.3-0.7-0.4-1.4-0.4-2.1c0-26.5,0-53.1-0.2-79.9c0-0.7,0.1-1.4,0.4-2.1
		c0.2-0.4,0.6-0.7,1.1-0.8c0.9-0.6,1.7-1.4,2.3-2.3c0.9-1.1,1.3-2.6,1.3-4v-4.4c-8.2-0.8-16.6-1.5-24.9-1.9v4.4c0,1.5,0.4,3,1.3,4.2
		c0.7,0.9,1.5,1.7,2.3,2.5c0.4,0.4,0.8,0.6,1.3,1.1c0.3,0.7,0.5,1.4,0.4,2.1v33.1c-2.7,0.3-4.7,2.6-4.6,5.3c0.1,2.8,2,5.2,4.6,5.9
		v50.4c13.1,0.8,26.1,2.1,39.2,3.6c1.1,0.2,1.9,0.2,2.9,0.4c0.8,0,1.6-0.2,2.3-0.6c0.8-0.6,1.3-1.5,1.3-2.5v-39.8
		c-2.1-0.2-4.2-0.4-6.3-0.8C629.4,420.1,627.5,420.2,625.7,420.7z"/>
	<path class="st3" d="M302.7,386.8c-0.2,0-0.5,0-0.6,0.2h-0.2c-15.2,4.8-30.3,10.1-45.3,16v4.2c-0.1,1.5,0.2,2.9,0.8,4.2
		c0.5,0.8,1.2,1.3,2.1,1.5l1.3,0.6c0.5,0.5,0.7,1.2,0.6,1.9v32.9c-2.6,1.5-4.3,4.3-4.4,7.4c-0.3,1.9,1.1,3.7,3,3.9
		c0.5,0.1,1,0,1.4-0.1v50.1c1.2-0.4,2.4-0.9,3.6-1.5c6.5-2.5,13.1-4.8,19.4-7c2.7-1.1,5.5-1.9,8.4-2.7c2.1-0.6,4.2-1.5,6.3-2.1
		c0.8-0.2,1.7-0.6,2.5-0.8h0.2c0.4-0.1,0.8-0.3,1.1-0.6c0.5-0.4,0.9-0.8,1.3-1.3c0.7-0.8,1-1.9,1.1-2.9v-14.7l0,0v-15.8
		c-2.1,0.6-4,1.3-6.1,1.9c-2.1,0.6-4,1.6-5.7,2.9c-1.5,1.2-2.3,3.1-2.1,5.1c0,0.6,0.2,15.8-0.2,16.4c-0.3,0.6-0.8,1-1.5,1.3
		c-1.9,0.6-3.6,1.3-5.5,1.9l-7.6,2.5c-1.1,0.4-1.7,0-1.7-1.5V457c-0.1-1.3,0.8-2.5,2.1-2.7c5.7-2.1,11.4-4,17.1-5.9
		c1.3-0.3,2.2-1.4,2.1-2.7v-8.2c0-0.8-0.2-1.3-0.8-1.5c-0.5-0.2-1-0.2-1.5,0c-5.7,1.9-11.4,3.8-17.1,5.9c-1.5,0.4-2.1,0-2.1-1.3
		v-30.3c0-0.6,0.2-1.2,0.6-1.7c0.4-0.6,0.8-1.1,1.3-1.1c4.6-1.7,9.1-3.2,13.7-4.6c0.2,0,0.4,0.2,0.6,0.4c0.4,0.4,0.2,15.8,0.2,16.4
		c0,2.3,0.6,3.4,2.1,3.6c1.9,0.1,3.9-0.2,5.7-0.8c2.1-0.6,4-1.3,6.1-1.9v-15.8l0,0v-15.4c0-0.8-0.4-1.5-1.1-1.9
		C303.9,387,303.3,386.8,302.7,386.8z"/>
	<path class="st3" d="M691.6,365.1c-0.2-0.2-0.4-0.2-0.6-0.2h-0.2c-15.6-2.9-31.2-5.7-46.8-7.8v4.2c-0.1,1.6,0.2,3.2,0.8,4.6
		c0.5,1.1,1.3,2,2.3,2.5l1.3,1.3c0.5,0.6,0.7,1.4,0.6,2.1v32.9c-2.6,0-4.7,2.2-4.6,4.8c0,0,0,0,0,0c0.1,2.8,2,5.2,4.6,6.1v50.1
		l3.8,0.6l20.2,3.2c2.9,0.4,5.7,1.1,8.6,1.5c2.1,0.4,4.2,0.8,6.5,1.3c0.9,0.3,1.8,0.4,2.7,0.4h1.3c0.6,0,1.1-0.2,1.5-0.6
		c0.7-0.6,1.1-1.4,1.1-2.3V439c-2.1-0.4-4.2-0.8-6.1-1.3c-1.9-0.4-3.8-0.4-5.7,0c-1.5,0.4-2.1,1.7-2.1,4c0,0.6,0.2,16-0.2,16.4
		c-0.3,0.4-0.9,0.6-1.5,0.4c-1.9-0.4-3.8-0.6-5.7-1.1c-2.5-0.4-5.3-0.8-7.8-1.3c-1.3-0.2-1.7-1.1-1.7-2.3v-33.7
		c0-1.3,0.8-1.9,2.3-1.7c5.9,1.1,11.8,1.9,17.7,3.2c1.5,0.2,2.1-0.2,2.1-1.7v-8c0.1-0.7-0.2-1.5-0.8-1.9c-0.5-0.3-1-0.6-1.5-0.8
		c-5.9-1.1-11.6-2.1-17.5-3.2c-1.5-0.2-2.3-1.1-2.3-2.3v-30.3c0-0.6,0.2-1.1,0.6-1.5c0.4-0.4,0.9-0.5,1.5-0.4
		c4.6,0.8,9.5,1.5,14.1,2.5l0.6,0.6c0.4,0.6,0.2,15.8,0.2,16.4c-0.1,1.9,0.7,3.7,2.1,4.8c1.7,1.1,3.7,1.8,5.7,2.1
		c2.1,0.4,4.2,0.8,6.1,1.3v-31.2c-0.1-0.9-0.4-1.7-1.1-2.3C693.1,365.7,692.4,365.3,691.6,365.1z"/>
	<path class="st3" d="M420.9,695.5l10.3,9.9c2.3,1.7,3.6,4.3,3.6,7.2c-0.3,1.6-1.1,3.1-2.3,4.2c-1.1,1.3-2.7,2.1-4.4,2.3
		c-2.9,0.4-5.1-1.5-7.2-3.6l-5.9-5.7l-6.1,6.3l-4.2-4L420.9,695.5z M417.7,706.8l5.3,5.1c1.3,1.3,3.2,3.2,5.3,0.8
		c0.7-0.7,1.1-1.6,1.1-2.5c0-1.1-0.6-1.7-2.5-3.4l-4.6-4.6L417.7,706.8z"/>
	<path class="st3" d="M448.5,719.5l18.5,11.2l-2.1,3.6l-13.5-8.2l-2.7,4.4l13.1,7.8l-2.1,3.6l-13.1-7.8l-2.9,4.8l14.1,8.4l-2.1,3.6
		l-19.2-11.4L448.5,719.5z"/>
	<path class="st3" d="M480.7,736.8l5.5,1.9l-5.9,17.9l12.2,4l-1.3,4l-17.7-5.9L480.7,736.8z"/>
	<path class="st3" d="M512.5,745.4l5.7,0.8l-3.6,23l-5.7-0.8L512.5,745.4z"/>
	<path class="st3" d="M561.8,762.3c-0.4,1.9-1.4,3.7-2.7,5.1c-2.9,2.6-6.8,4.1-10.7,4c-8.2,0.4-14.1-3.8-14.5-11.8
		c-0.4-8.6,6.5-12.6,13.7-12.9c2.7-0.2,10.3,0.2,13.7,6.7l-6.3,1.1c-1.5-2.4-4.3-3.7-7.2-3.4c-4.5,0.1-8.1,3.7-8,8.2s3.7,8.1,8.2,8
		c0.1,0,0.3,0,0.4,0c3.1,0.2,6-1.7,7.2-4.6L561.8,762.3z"/>
	<path class="st3" d="M582.5,742l6.1-1.7l17.3,19.2l-6.3,1.9l-3.2-3.6l-11.4,3.4l-0.6,4.8l-6.1,1.9L582.5,742z M587.9,747.7
		c-0.3-0.2-0.5-0.5-0.6-0.8c-0.3-0.2-0.4-0.5-0.4-0.8v1.9l-1.3,8.4l7.8-2.3L587.9,747.7z"/>
	<path class="st3" d="M610.9,731.7l5.1-2.9l16.4,5.3c2.1,0.6,2.3,0.8,4.6,1.7c-1.3-1.9-1.7-2.3-2.7-4l-6.1-10.1l4.8-2.9l12,20
		l-5.3,2.7l-16.6-5.3c-1.7-0.6-2.5-0.8-4.4-1.7c0.8,1,1.5,2.2,2.1,3.4l6.5,11l-4.8,2.7L610.9,731.7z"/>
	<path class="st3" d="M658.7,717.6c3,0.7,6.2-0.4,8.2-2.7c1.1-1.1,4-4.2,2.1-6.3c-1.3-1.3-2.5-0.4-3.6,0.4c-0.8,0.4-4.8,3.4-5.7,4
		c-1.9,1.3-6.3,4.2-10.1,0.4c-0.8-0.8-1.4-1.8-1.7-2.9c-0.8-3.6,1.7-7.2,4.4-9.7c2.1-2.1,4.6-3.7,7.4-4.6c1.7-0.4,3.5-0.4,5.3,0
		l-2.9,4.8c-0.9-0.3-1.9-0.3-2.7,0c-1.4,0.6-2.8,1.5-4,2.5c-1.9,1.7-3.4,4-1.9,5.5c1.1,1.1,2.3,0.4,3.8-0.4c0.8-0.4,4.8-3.2,5.7-3.8
		c2.3-1.5,6.3-4,9.9-0.4c5.3,5.3-1.1,11.8-3.2,13.7c-2.7,2.7-7.4,6.3-13.7,4.2L658.7,717.6z"/>
	<path class="st3" d="M512.9,606.3c0,0-83.2-27.8-47-116.5c0,0-88.1,3.6-208.6,52.3c0,0-8.4,3.6-13.5,5.3
		c-7.8,3.4-16.7,3.2-24.2-0.6c0,0,110.2-57.7,252-71c18.8-1.7,21.1,1.1,16.2,8C483.9,489.8,433.3,554.1,512.9,606.3z"/>
	<path class="st0" d="M439,514.9c-71.2,9.3-141,34.1-141,34.1c11.8,21.1,44,12.2,44,12.2c60.5-17.1,87.4-23,96.1-24.7
		C437.7,529.4,438,522.1,439,514.9z"/>
	<path class="st0" d="M439.4,549.7c-38.1,7.6-75.6,18.1-112.1,31.4c0,0,15.8,18.1,47.4,9.1c26.5-7.6,60.5-18.3,70.6-21.7
		C442.6,562.4,440.7,556.1,439.4,549.7z"/>
	<path class="st0" d="M450.6,578.5c-10.7,3.4-64.5,20.9-87.2,29.7c0,0,13.1,17.5,50.6,2.7c26.1-10.3,40.7-16.4,47-19
		C457,587.9,453.5,583.4,450.6,578.5z"/>
	<path class="st0" d="M469.3,599.4c-9.5,4-44.2,19.4-64.5,29.1c0,0,25.5,12.4,57.3-7.2l19.8-13.1
		C477.5,605.6,473.3,602.7,469.3,599.4z"/>
	<path class="st0" d="M491.7,613.3c-6.3,4-32.9,20.6-45.7,30.1c0,0,21.9,9.1,44.5-12.2c7.4-7,11.4-10.7,13.5-13.1
		C499.7,616.8,495.6,615.1,491.7,613.3z"/>
	<path class="st3" d="M566.5,606.3c0,0,83.2-27.8,47-116.5c0,0,88.1,3.6,208.6,52.3c0,0,8.4,3.6,13.5,5.3c7.8,3.4,16.7,3.2,24.2-0.6
		c0,0-110.2-57.7-252-71c-18.8-1.7-21.1,1.1-16.2,8C595.5,489.8,646.1,554.1,566.5,606.3z"/>
	<path class="st0" d="M640.4,514.9c71.2,9.3,141,34.1,141,34.1c-11.8,21.1-44,12.2-44,12.2c-60.5-17.1-87.4-23-96.1-24.7
		C641.7,529.4,641.4,522.1,640.4,514.9z"/>
	<path class="st0" d="M640,549.7c38.1,7.6,75.6,18.1,112.1,31.4c0,0-15.8,18.1-47.4,9.1c-26.5-7.6-60.5-18.3-70.6-21.7
		C636.7,562.4,638.7,556.1,640,549.7z"/>
	<path class="st0" d="M628.8,578.5c10.7,3.4,64.5,20.9,87.2,29.7c0,0-13.1,17.5-50.6,2.7c-26.1-10.3-40.7-16.4-47-19
		C622.4,587.9,625.8,583.4,628.8,578.5z"/>
	<path class="st0" d="M610.1,599.4c9.5,4,44.2,19.4,64.5,29.1c0,0-25.5,12.4-57.3-7.2l-19.8-13.1
		C601.9,605.6,606.1,602.7,610.1,599.4z"/>
	<path class="st0" d="M587.7,613.3c6.3,4,32.9,20.6,45.7,30.1c0,0-21.9,9.1-44.5-12.2c-7.4-7-11.4-10.7-13.5-13.1
		C579.3,616.9,583.5,615.2,587.7,613.3z"/>
	<path class="st3" d="M607.7,654.6c0,37.6-30.5,68.1-68.1,68.1s-68.1-30.5-68.1-68.1c0-37.6,30.5-68.1,68.1-68.1l0,0
		C577.3,586.5,607.7,617,607.7,654.6C607.7,654.5,607.7,654.6,607.7,654.6z"/>
	<path class="st0" d="M593.6,668.7c0,29.8-24.1,53.9-53.9,53.9c-29.8,0-53.9-24.1-53.9-53.9s24.1-53.9,53.9-53.9
		C569.4,614.8,593.5,639,593.6,668.7z"/>
	<path class="st1" d="M539.7,581.3c-40.6,0-73.5,32.9-73.5,73.5c0,40.6,32.9,73.5,73.5,73.5s73.5-32.9,73.5-73.5l0,0
		C613.2,614.2,580.3,581.3,539.7,581.3z M601.4,642.8c-4.6,17.8-16.7,32.9-33.1,41.3c1.3-9.1,5.3-17.9,9.3-27.2
		c5.9-13.5,12.4-28,9.5-43.6C594.3,621.7,599.3,631.9,601.4,642.8L601.4,642.8z M507.5,600.9c8.4-5,17.9-8,27.6-8.8v98.8
		c-4.9-0.4-9.8-1.3-14.5-2.7c-0.4-12.2-5.5-23.6-10.5-34.8C502,634.8,495,618.8,507.5,600.9z M520.1,697.4c5,1.3,10,2.1,15.2,2.5
		v17.5c-8.1-0.6-15.9-2.7-23.2-6.3C516.2,707.5,519,702.7,520.1,697.4L520.1,697.4z M544.3,699.9c5.1-0.2,10.2-1,15.2-2.5
		c1.1,5.3,3.9,10.1,8,13.7c-7.3,3.5-15.1,5.6-23.2,6.3L544.3,699.9z M558.9,688.1c-4.7,1.6-9.6,2.5-14.5,2.7V592
		c9.8,0.6,19.3,3.7,27.6,8.8c12.4,17.9,5.5,34.1-2.7,52.5C564.3,664.5,559.3,675.9,558.9,688.1L558.9,688.1z M492.3,613.5
		c-2.7,15.6,3.6,30.1,9.5,43.6c4,9.3,8,18.3,9.3,27.4c-16.6-8.3-28.7-23.5-33.1-41.5C480,632.1,484.9,621.9,492.3,613.5L492.3,613.5
		z M477.7,665.8c7.9,12.8,19.6,22.9,33.5,28.7c0,0.4,0,0.9-0.2,1.3c-0.6,4.6-4.6,8.4-7.4,10.5C490,696.7,480.7,682.1,477.7,665.8z
		 M575.5,706.2c-3.6-2.5-6.2-6.3-7.4-10.5c0-0.4,0-0.9-0.2-1.3c13.9-5.9,25.6-15.9,33.5-28.7C598.5,682.2,589.2,696.7,575.5,706.2
		L575.5,706.2z"/>
	<path class="st1" d="M561.6,485.8c0,0-0.6,2.3-1.9,2.3c-5-1.7-9.9-3.9-14.5-6.5c-1.9-1.1-4.4-2.5-5.3-2.9c0,0-3.8,1.9-5.5,2.9
		c-4.6,2.6-9.5,4.8-14.5,6.5c-1.5,0-1.9-2.3-1.9-2.3s-23.2,13.9-23.2,52.5c0,28.7,15,41.7,15,41.7l2.1,8.2h56l2.1-8.2
		c0,0,15-13.1,15-41.7C584.6,499.9,561.6,485.8,561.6,485.8z"/>
	<path class="st3" d="M572.6,528.8c0.1-10.1-3.5-19.8-10.1-27.4c0,0-0.2,3.4-5.9-0.4c-5-3.4-10.8-5.3-16.9-5.3
		c-6.1,0-12,1.8-17.1,5.3c-5.5,3.8-5.7,0.4-5.7,0.4c-6.6,7.6-10.2,17.3-10.1,27.4c0,9.9,2.5,14.7,3.4,16.2
		c5.2,16.3,22.6,25.2,38.9,20c9.4-3,16.7-10.3,19.9-19.6C569.4,544.8,572.6,540.2,572.6,528.8z"/>
	<path class="st1" d="M552.1,555.6L552.1,555.6c-2-3.5-1.2-8,1.9-10.5c0,0,12.2,2.5,12.4-13.5c0-1.8,0.5-3.5,1.5-5.1
		c0,0-3.2-2.7-9.9,2.3c-6.7,5.1-10.3,19.4-14.1,16c-3.6-3.4-2.3-22.1-4.2-22.8l0,0c-1.9,0.6-0.6,19.4-4.2,22.8
		c-3.6,3.4-7.4-11-14.1-16c-6.7-5.1-9.9-2.3-9.9-2.3c0.9,1.5,1.4,3.3,1.5,5.1c0.2,16,12.4,13.5,12.4,13.5c3,2.5,3.9,6.8,2.1,10.3
		c0,0.1-0.1,0.2-0.2,0.2c0,0,0,0,0,0c-14.5-15.6-23-13.5-18.8,4c4,17.1,19.8,90.4,22.1,107.5c-0.4,15.4-2.1,20.9-2.5,21.9l-1.5,3.2
		l1.7,3.6c2.1,3.2,3.9,6.6,5.3,10.1l5.9,15.2l5.9-15.2c1.4-3.6,3.1-7.1,5.3-10.3l1.9-3.4l-1.7-3.4c-0.4-1.1-2.1-6.3-2.5-21.1
		c2.1-15.2,18.1-90.8,22.1-108.3C574.9,542.3,566.5,540.2,552.1,555.6z"/>
	<path class="st2" d="M529.8,632c-5.3-27.4-9.3-47.4-12.6-62.2c-2.5-11.2,4.2-6.7,7.8,0.2L529.8,632z"/>
	<path class="st2" d="M549.6,632c5.3-27.4,9.3-47.4,12.6-62.2c2.5-11.2-4.2-6.7-7.8,0.2L549.6,632z"/>
	<path class="st2" d="M521.8,539.8c-0.9-0.2-1.5-1-1.4-2c0-0.1,0.1-0.2,0.1-0.4c0.2-0.4,0.4-0.6,0.6-1.1c-0.7-0.9-1.6-1.7-2.5-2.3
		c0,0-1.7,7.8,5.3,7c-0.2-0.6-0.5-1.2-0.8-1.7C522.8,539.8,522.2,539.8,521.8,539.8z"/>
	<path class="st2" d="M560.8,534.1c-0.9,0.7-1.8,1.4-2.5,2.3c0.3,0.3,0.6,0.6,0.6,1.1c0.2,1-0.3,2-1.3,2.3c-0.5,0.1-1,0.1-1.5-0.2
		c-0.3,0.5-0.6,1.1-0.8,1.7C562.4,542.1,560.8,534.1,560.8,534.1z"/>
	<path class="st2" d="M543.1,642.2c2.3-42.1,5.7-72.1,5.7-75.9c0-1.6-0.3-3.3-0.6-4.8l-2.5,8l-0.8-14.1c-1.4-1.8-3.1-3.4-5.1-4.6
		h-0.2c-1.8,1.3-3.4,2.9-4.8,4.6l-0.8,14.1l-2.5-8c-0.5,1.6-0.7,3.2-0.6,4.8c0,3.8,3.4,33.5,5.7,75.9c2.3,42.1-2.9,49.9-2.9,49.9
		c2.4,3.9,4.5,8,6.3,12.2c1.8-4.2,3.9-8.3,6.3-12.2C546,692.3,540.7,684.5,543.1,642.2z"/>
</g>
</svg>
