<?xml version="1.0" encoding="utf-8"?>
<!-- Generator: Adobe Illustrator 25.0.0, SVG Export Plug-In . SVG Version: 6.00 Build 0)  -->
<svg version="1.1" id="Layer_1" xmlns="http://www.w3.org/2000/svg" xmlns:xlink="http://www.w3.org/1999/xlink" x="0px" y="0px"
	 viewBox="0 0 800 600" style="enable-background:new 0 0 800 600;" xml:space="preserve">
<style type="text/css">
	.st0{fill:#C4CED4;}
	.st1{fill:#0A1B23;}
	.st2{fill:#FFFFFF;}
	.st3{fill:none;stroke:#231F20;stroke-width:0.2662;stroke-miterlimit:3.864;}
	.st4{clip-path:url(#SVGID_2_);fill:#0A1B23;}
	.st5{clip-path:url(#SVGID_4_);fill:none;stroke:#231F20;stroke-width:0.2662;stroke-miterlimit:3.864;}
	.st6{clip-path:url(#SVGID_6_);fill:#0A1B23;}
	.st7{clip-path:url(#SVGID_8_);fill:none;stroke:#231F20;stroke-width:0.2662;stroke-miterlimit:3.864;}
	.st8{clip-path:url(#SVGID_10_);fill:#0A1B23;}
	.st9{clip-path:url(#SVGID_12_);fill:none;stroke:#231F20;stroke-width:0.2662;stroke-miterlimit:3.864;}
	.st10{clip-path:url(#SVGID_14_);fill:#0A1B23;}
	.st11{clip-path:url(#SVGID_16_);fill:none;stroke:#231F20;stroke-width:0.2662;stroke-miterlimit:3.864;}
	.st12{clip-path:url(#SVGID_18_);fill:#0A1B23;}
	.st13{clip-path:url(#SVGID_20_);fill:none;stroke:#231F20;stroke-width:0.2662;stroke-miterlimit:3.864;}
</style>
<g>
	<g>
		<path class="st0" d="M737.5,233.3c2.4-8,6-20.5,6-20.5l-27.1-11c-1.1-0.5-2.3-0.9-3.5-1.4l4.7-13.7l-25.7-8.3
			c2-6.8,3.2-10.8,3.2-11l3-10.3l-10.1-3.4c-95.7-32.5-184.5-46.9-288.1-46.9c-103.6,0-192.4,14.5-288,46.9l-10.1,3.4l3,10.3
			c0.1,0.1,1.2,4.2,3.3,11l-25.7,8.3l4.7,13.7c-1.2,0.5-2.4,0.9-3.5,1.4l-27.1,11c0,0,3.7,12.5,6,20.5c-7.6,2.7-23.5,8.5-23.5,8.5
			l58,177c0,0,15.5-5.5,24-8.6c3.5,9.2,7.8,20.3,7.8,20.3l30.7-12.7c1-0.4,1.9-0.8,2.9-1.2l3.2,10l11.3-5c9.2-4,37.4-15.4,75.8-25.5
			C239,416.4,224.5,438,224.5,438s79.9-26.1,87.8-28.7c2.8,6.9,34.9,83.9,34.9,83.9s23.2-79.6,25.3-87
			c6.5,1.7,100.2,25.8,100.2,25.8s-26.6-30.7-46.1-53.3c90.4,0.7,172.1,32.5,196.6,43l11.3,4.8l3.1-9.9c1,0.4,1.9,0.8,2.9,1.2
			l30.7,12.7c0,0,4.3-11.2,7.8-20.3c8.5,3.1,24,8.6,24,8.6l58.1-177C761,241.8,745.1,236,737.5,233.3"/>
		<path class="st1" d="M723,240.6c0.2-0.8,6.1-21,6.1-21l-17.2-6.9c-4.4-1.8-8.9-3.5-13.3-5.2l4.7-13.7l-25.2-8.1
			c4-13.2,6.3-21.4,6.3-21.4C596.3,134.4,509.3,118,400,118c-109.3,0-196.3,16.4-284.5,46.3c0,0,2.4,8.2,6.3,21.4l-25.2,8.1
			l4.7,13.7c-4.5,1.7-8.9,3.4-13.3,5.2l-17.2,6.9c0,0,5.9,20.2,6.1,21c-1.4,0.5-23.2,8.4-23.2,8.4l50.7,154.6c0,0,22.5-8.1,23.5-8.5
			c0,0,7.5,19.9,7.5,19.9l19.5-8c4.8-2,9.5-3.8,14.2-5.7c1.7,5.5,2.9,9,3.3,10.2c11.1-4.7,50.6-20.9,103-32.3
			c-12,17.9-27.7,41.3-27.7,41.3s68.9-22.5,70-22.9c0.5,1.3,27.9,67.1,27.9,67.1s20-68.6,20.4-70c1.7,0.4,79.6,20.5,79.6,20.5
			s-25.6-29.6-40.9-47.3c106-5.1,204,35.5,222.8,43.5c0.4-1.1,1.5-4.7,3.3-10.2c4.7,1.9,9.4,3.7,14.2,5.7l19.5,8l7.5-19.9
			c1,0.4,23.5,8.5,23.5,8.5L746.2,249C746.2,249,724.4,241.1,723,240.6"/>
		<path class="st2" d="M701.7,251.5c0,0,5.1-17.4,6.3-21.6c-1.3-0.5-2.6-1.1-2.6-1.1c-94.1-38.1-202.5-59.1-305-59.1
			c-103.1,0-211.7,21-305.8,59.1c0,0-1.3,0.5-2.6,1.1c1.2,4.2,6.3,21.6,6.3,21.6S80,258,75.6,259.6c1.8,5.5,38,115.7,39.9,121.5
			c4.6-1.6,22.7-8.2,22.7-8.2s5.6,14.8,7.3,19.1c1.5-0.6,3-1.2,3-1.2c51.5-21.2,100.7-35.7,150.2-43.9c6.4,4.5,11.6,8.2,11.6,8.2
			s-21.7,32.4-24.6,36.6c4.8-1.6,40.9-13.3,40.9-13.3s14.6,35.2,16.5,39.7c1.4-4.8,12.3-42.2,12.3-42.2s40.8,10.5,46.2,11.9
			c-3.7-4.2-30.1-34.7-30.1-34.7s8.2-7,16.7-14.3c3.9-0.1,7.8-0.1,11.8-0.1c85.4,0,165.4,16.6,251.6,52.2c0,0,1.5,0.6,2.9,1.2
			c1.6-4.3,7.3-19.1,7.3-19.1s18.1,6.5,22.7,8.2c1.9-5.8,38-116,39.9-121.5C720,258,701.7,251.5,701.7,251.5"/>
		<path class="st3" d="M701.7,251.5c0,0,5.1-17.4,6.3-21.6c-1.3-0.5-2.6-1.1-2.6-1.1c-94.1-38.1-202.5-59.1-305-59.1
			c-103.1,0-211.7,21-305.8,59.1c0,0-1.3,0.5-2.6,1.1c1.2,4.2,6.3,21.6,6.3,21.6S80,258,75.6,259.6c1.8,5.5,38,115.7,39.9,121.5
			c4.6-1.6,22.7-8.2,22.7-8.2s5.6,14.8,7.3,19.1c1.5-0.6,3-1.2,3-1.2c51.5-21.2,100.7-35.7,150.2-43.9c6.4,4.5,11.6,8.2,11.6,8.2
			s-21.7,32.4-24.6,36.6c4.8-1.6,40.9-13.3,40.9-13.3s14.6,35.2,16.5,39.7c1.4-4.8,12.3-42.2,12.3-42.2s40.8,10.5,46.2,11.9
			c-3.7-4.2-30.1-34.7-30.1-34.7s8.2-7,16.7-14.3c3.9-0.1,7.8-0.1,11.8-0.1c85.4,0,165.4,16.6,251.6,52.2c0,0,1.5,0.6,2.9,1.2
			c1.6-4.3,7.3-19.1,7.3-19.1s18.1,6.5,22.7,8.2c1.9-5.8,38-116,39.9-121.5C720,258,701.7,251.5,701.7,251.5z"/>
		<path class="st2" d="M94.5,228.9L94.5,228.9c0,0-1.3,0.5-2.6,1.1c1.2,4.2,6.3,21.6,6.3,21.6S80,258,75.6,259.6
			c1.8,5.5,38,115.7,39.9,121.5c4.6-1.7,22.7-8.2,22.7-8.2s5.6,14.8,7.3,19.1c1.5-0.6,3-1.2,3-1.2c86.2-35.6,166.2-52.1,251.6-52.1
			c85.4,0,165.4,16.5,251.6,52.1c0,0,1.5,0.6,2.9,1.2c1.6-4.3,7.3-19.1,7.3-19.1s18.1,6.5,22.7,8.2c1.9-5.8,38.1-116,39.9-121.5
			c-4.5-1.6-22.7-8.1-22.7-8.1s5.1-17.4,6.3-21.6c-1.3-0.5-2.6-1.1-2.6-1.1c-94.1-38.1-202.5-59.2-305-59.2
			C297.3,169.7,188.7,190.7,94.5,228.9"/>
		<path class="st0" d="M678.6,369c-6.5-2.4-22.3-8-22.3-8s-5,13.2-7.2,18.8c-85.1-34.3-164.5-50.5-249.2-50.5
			c-84.7,0-164.1,16.2-249.2,50.5c-2.1-5.6-7.2-18.8-7.2-18.8s-15.8,5.7-22.3,8c-3.4-10.5-30.7-93.7-34-103.6
			c6.4-2.3,22.4-8.1,22.4-8.1s-4.6-15.7-6.3-21.8c91.8-36.4,197-56.4,297-56.4c99.5,0,204.4,20.1,296.2,56.4
			c-1.8,6.2-6.3,21.8-6.3,21.8s16,5.8,22.4,8.1C709.4,275.3,682.1,358.6,678.6,369"/>
		<path class="st2" d="M557.1,312.2l14.3-80.9c0,0,0.3-2.8,0.3-2.8c0-3.7-1.1-7.3-3.3-10.4c-2.7-3.8-6.8-6.4-11.5-7.2l-91-15.4
			l-6.3,37.4c0,0-12.1,71.6-12.7,75.2c5.1,0.9,36.4,6.1,41.4,7c0.9-5.3,6.4-37.3,6.4-37.3l25.7,4.3l-0.6,3.2c0,0-3.5,21.4-3.7,22.8
			c-0.6,5.1,0.4,6.5,1.9,8.7c1.5,2.2,4.1,3.7,7.2,4.6c-0.4-0.1,43,10.5,43,10.5L557.1,312.2z M529.1,248.3l-33.2-5.6l1-5.7l33.2,5.6
			L529.1,248.3z"/>
		<path class="st2" d="M242,310.1l-24.3-74.9c-3-9.3-13-14.4-22.3-11.4l0,0l-68.3,22.2c-4.5,1.5-8.2,4.6-10.3,8.8
			c-1.3,2.5-1.9,5.2-1.9,8c0,1.9,0.3,3.7,0.9,5.5l24.3,74.9c3,9.3,13,14.4,22.3,11.4c0,0-0.2,0.1-0.3,0.1c0.6-0.2,5.7-1.9,68.6-22.3
			c7.3-2.4,12.2-9.2,12.2-16.9C242.8,313.8,242.5,311.9,242,310.1 M159.5,279.6l-1.8-5.5l30.1-9.9l1.8,5.5L159.5,279.6z
			 M171.1,314.4l-1.8-5.5l30.1-9.9l1.8,5.5L171.1,314.4z"/>
		<path class="st2" d="M342.1,252.7c0,0-7.7-40.2-7.7-40.2c-0.9-4.6-3.5-8.6-7.4-11.3c-3.9-2.7-8.6-3.6-13.3-2.8
			c0,0-84.8,16.1-90.7,17.2c0.8,4.2,17.2,90.7,17.2,90.7l2.3,12.2l1.7,9.2c0,0,36.3-6.9,41.3-7.9c-1-5.2-7.1-37.2-7.1-37.2l49.5-9.4
			c4.7-0.9,8.7-3.5,11.3-7.4c2.1-3.1,3.2-6.8,3.1-10.5L342.1,252.7z M267.4,249.1l-1.1-5.7l33.1-6.3l1.1,5.7L267.4,249.1z"/>
		<path class="st2" d="M316.1,293.5c0.1,2.9,2.5,35,2.5,35s-38.6,1.6-43.8,1.8c4.2,3,35.3,24.9,35.3,24.9s-21.7,32.4-24.6,36.6
			c4.8-1.6,40.9-13.4,40.9-13.4s14.6,35.2,16.5,39.8c1.4-4.8,12.3-42.2,12.3-42.2s40.8,10.5,46.2,11.9c-3.6-4.2-30.1-34.7-30.1-34.7
			s32.1-27.3,35.8-30.4c-4.4,0-24.8-0.3-24.8-0.3l5.2-5.7h33.8l40.1-70.9v-50.8h-35.2L411.1,222c0,0-1.7,13.7-2,16.6
			c-1.4,2.6-13.4,23.8-17.3,30.7h-5.6c5.9-10.5,13.7-24.2,13.7-24.2v-50.4h-36.3l-14.8,27.1c0,0-1.6,13.8-1.9,16.7
			C345.4,241.3,316.1,293.5,316.1,293.5"/>
	</g>
	<g>
		<g>
			<defs>
				<polygon id="SVGID_1_" points="431.9,204.3 420.2,225 418.2,241.6 397.3,278.8 370,278.8 390.4,242.7 390.4,204.3 369.1,204.3 
					357.9,224.9 356.1,241.6 326.3,294.7 331.3,307.2 349.8,307.2 341.4,328.5 325.6,311.5 327.4,336.5 300,337.7 321.8,353 
					306.3,376.1 331.3,367.9 341.6,392.7 349.5,365.7 377.4,372.9 359.4,352.1 381.6,333.7 358.7,335.2 383.5,307.2 416.1,307.2 
					452.2,243.2 452.2,204.3 				"/>
			</defs>
			<clipPath id="SVGID_2_">
				<use xlink:href="#SVGID_1_"  style="overflow:visible;"/>
			</clipPath>
			<polygon class="st4" points="431.9,204.3 420.2,225 418.2,241.6 397.3,278.8 369.9,278.8 390.4,242.7 390.4,204.3 369.1,204.3 
				357.9,224.8 356.1,241.6 326.3,294.7 331.3,307.2 349.8,307.2 341.4,328.5 325.6,311.5 327.4,336.5 300,337.7 321.8,353 
				306.3,376.1 331.3,367.9 341.6,392.7 349.5,365.7 377.4,372.9 359.4,352.1 381.6,333.7 358.7,335.2 383.5,307.2 416.1,307.2 
				452.2,243.2 452.2,204.3 			"/>
		</g>
		<g>
			<defs>
				<polygon id="SVGID_3_" points="431.9,204.3 420.2,225 418.2,241.6 397.3,278.8 370,278.8 390.4,242.7 390.4,204.3 369.1,204.3 
					357.9,224.9 356.1,241.6 326.3,294.7 331.3,307.2 349.8,307.2 341.4,328.5 325.6,311.5 327.4,336.5 300,337.7 321.8,353 
					306.3,376.1 331.3,367.9 341.6,392.7 349.5,365.7 377.4,372.9 359.4,352.1 381.6,333.7 358.7,335.2 383.5,307.2 416.1,307.2 
					452.2,243.2 452.2,204.3 				"/>
			</defs>
			<clipPath id="SVGID_4_">
				<use xlink:href="#SVGID_3_"  style="overflow:visible;"/>
			</clipPath>
			<polygon class="st5" points="431.9,204.3 420.2,225 418.2,241.6 397.3,278.8 369.9,278.8 390.4,242.7 390.4,204.3 369.1,204.3 
				357.9,224.8 356.1,241.6 326.3,294.7 331.3,307.2 349.8,307.2 341.4,328.5 325.6,311.5 327.4,336.5 300,337.7 321.8,353 
				306.3,376.1 331.3,367.9 341.6,392.7 349.5,365.7 377.4,372.9 359.4,352.1 381.6,333.7 358.7,335.2 383.5,307.2 416.1,307.2 
				452.2,243.2 452.2,204.3 			"/>
		</g>
	</g>
	<g>
		<path class="st2" d="M682.9,254.5c-2.2-4.2-5.8-7.3-10.3-8.8l-68.2-22.2c-4.5-1.5-9.3-1.1-13.5,1.1c-4.2,2.1-7.3,5.8-8.8,10.3
			l-24.3,74.9c-0.6,1.8-0.9,3.7-0.9,5.5c0,2.8,0.6,5.5,1.9,8c2.1,4.2,5.8,7.4,10.3,8.8l68.2,22.2c4.5,1.5,9.3,1.1,13.5-1.1
			c4.2-2.1,7.3-5.8,8.8-10.3L684,268c0.6-1.8,0.9-3.7,0.9-5.5C684.8,259.8,684.2,257,682.9,254.5 M630.3,313.7l-30-9.9l1.8-5.5
			l30.1,9.9L630.3,313.7z M641.8,278.9l-30.1-9.9l1.8-5.5l30,9.9L641.8,278.9z"/>
		<polygon class="st0" points="434.8,209.8 427.5,222.8 437.4,222.8 444.3,209.8 		"/>
		<polygon class="st0" points="382.8,209.8 372.5,209.8 365.4,222.8 376,222.8 		"/>
		<path class="st0" d="M401.1,283.8h-52l21.7-38.1h-10.2l-26.1,46.1h29l-21.2,48.4l-9.5-10.3l1,13l-14.3,0.6l11.3,8l-8.1,12l13-4.2
			l5.3,12.9l4.1-14.1l14.5,3.8l-9.4-10.8l11.5-9.5l-16.2,1h-1.1l33.5-50.6h29l25.7-46.1h-10L401.1,283.8z M339.2,354
			c-1.9,0-3.6-1.6-3.6-3.6c0-1.9,1.6-3.6,3.6-3.6c2,0,3.6,1.6,3.6,3.6C342.8,352.4,341.2,354,339.2,354"/>
		<polygon class="st0" points="373.3,228 364,228 362.8,239.1 372.4,239.1 		"/>
		<polygon class="st0" points="424.8,239.1 434.4,239.1 435.3,228 426,228 		"/>
		<path class="st2" d="M154.8,187.5c1.3,4.8,4.1,5.3,10.2,3.6l8.2-2.2c9-2.4,10.8-3.9,9.2-9.9c-1.7-6.5-4.3-6.4-14.9-3.6
			c-7.3,2-8.1,2.2-8.6,0.2c-0.3-1.2,0.6-2,2.1-2.4l7.5-2c3.1-0.8,3.5-0.2,3.9,1.4l6.8-1.8l-0.2-0.7c-1.1-3.9-2.5-6.3-10.3-4.2
			l-9.5,2.5c-8.6,2.3-8.1,5.5-7,9.5c1.4,5.5,3,6.4,13.2,3.6c8.7-2.3,9.6-2.4,10.1-0.5c0.4,1.7-1,2.3-2.4,2.6l-8.3,2.2
			c-1.9,0.5-2.9,0.6-3.6-1.7l-6.8,1.8L154.8,187.5z"/>
		<path class="st3" d="M154.8,187.5c1.3,4.8,4.1,5.3,10.2,3.6l8.2-2.2c9-2.4,10.8-3.9,9.2-9.9c-1.7-6.5-4.3-6.4-14.9-3.6
			c-7.3,2-8.1,2.2-8.6,0.2c-0.3-1.2,0.6-2,2.1-2.4l7.5-2c3.1-0.8,3.5-0.2,3.9,1.4l6.8-1.8l-0.2-0.7c-1.1-3.9-2.5-6.3-10.3-4.2
			l-9.5,2.5c-8.6,2.3-8.1,5.5-7,9.5c1.4,5.5,3,6.4,13.2,3.6c8.7-2.3,9.6-2.4,10.1-0.5c0.4,1.7-1,2.3-2.4,2.6l-8.3,2.2
			c-1.9,0.5-2.9,0.6-3.6-1.7l-6.8,1.8L154.8,187.5z"/>
		<path class="st2" d="M203.4,180.8l7.7-1.6l1.1-4.4l13.9-3l3,3.5l7.6-1.7l-17-19.7l-9,1.9L203.4,180.8z M216.3,160.1l6.2,7.4
			l-8.8,1.9L216.3,160.1z"/>
		<path class="st3" d="M203.4,180.8l7.7-1.6l1.1-4.4l13.9-3l3,3.5l7.6-1.7l-17-19.7l-9,1.9L203.4,180.8 M216.3,160.1l6.2,7.4
			l-8.8,1.9L216.3,160.1z"/>
		<polygon class="st2" points="256.7,170.2 263.6,169.1 261,152.7 261.1,152.7 276.7,167.1 287.4,165.4 283.9,142.7 276.9,143.8 
			279.5,160.3 279.5,160.3 263.8,145.9 253.1,147.6 		"/>
		<polygon class="st3" points="256.7,170.2 263.6,169.1 261,152.7 261.1,152.7 276.7,167.1 287.4,165.4 283.9,142.7 276.9,143.8 
			279.5,160.3 279.5,160.3 263.8,145.9 253.1,147.6 		"/>
		<path class="st2" d="M329.7,161.2l7.8-0.4l1.8-4.1l14.2-0.7l2.4,3.9l7.8-0.4L350,137.2l-9.1,0.5L329.7,161.2z M345.7,142.8l5,8.3
			l-9,0.5L345.7,142.8z"/>
		<path class="st3" d="M329.7,161.2l7.8-0.4l1.8-4.1l14.2-0.7l2.4,3.9l7.8-0.4L350,137.2l-9.1,0.5L329.7,161.2 M345.7,142.8l5,8.3
			l-9,0.5L345.7,142.8z"/>
		<polygon class="st2" points="384,158.8 391,158.8 391,142.1 391,142.1 404.2,158.8 415.1,158.8 415.1,135.9 408.1,135.9 
			408.1,152.5 408,152.5 394.8,135.9 384,135.9 		"/>
		<polygon class="st3" points="384,158.8 391,158.8 391,142.1 391,142.1 404.2,158.8 415.1,158.8 415.1,135.9 408.1,135.9 
			408.1,152.5 408,152.5 394.8,135.9 384,135.9 		"/>
		<polygon class="st2" points="436.8,142 446.6,142.5 445.7,159.7 452.7,160 453.6,142.8 463.5,143.4 463.7,137.7 437.1,136.3 		"/>
		<polygon class="st3" points="436.8,142 446.6,142.5 445.7,159.7 452.7,160 453.6,142.8 463.5,143.4 463.7,137.7 437.1,136.3 		"/>
		<path class="st2" d="M483.6,154.2c-0.7,6.7,2.9,8.6,9.2,9.3l11.2,1.2c6.3,0.7,10.2-0.5,10.9-7.2l0.7-6.8c0.7-6.7-2.9-8.6-9.2-9.3
			l-11.2-1.2c-6.3-0.6-10.2,0.5-10.9,7.2L483.6,154.2 M491.3,150.4c0.3-2.8,1.2-4.5,4.8-4.1l8.2,0.9c3.7,0.4,4.2,2.2,3.9,5l-0.3,2.4
			c-0.4,3.3-1.2,4.5-4.5,4.1l-8.9-0.9c-3.3-0.3-3.9-1.7-3.5-5L491.3,150.4z"/>
		<path class="st3" d="M483.6,154.2c-0.7,6.7,2.9,8.6,9.2,9.3l11.2,1.2c6.3,0.7,10.2-0.5,10.9-7.2l0.7-6.8c0.7-6.7-2.9-8.6-9.2-9.3
			l-11.2-1.2c-6.3-0.6-10.2,0.5-10.9,7.2L483.6,154.2 M491.3,150.4c0.3-2.8,1.2-4.5,4.8-4.1l8.2,0.9c3.7,0.4,4.2,2.2,3.9,5l-0.3,2.4
			c-0.4,3.3-1.2,4.5-4.5,4.1l-8.9-0.9c-3.3-0.3-3.9-1.7-3.5-5L491.3,150.4z"/>
		<polygon class="st2" points="535.9,168.6 542.8,169.8 545.6,153.4 545.7,153.5 555.8,172.1 566.5,174 570.5,151.5 563.5,150.3 
			560.7,166.6 560.6,166.6 550.5,148 539.8,146.1 		"/>
		<polygon class="st3" points="535.9,168.6 542.8,169.8 545.6,153.4 545.7,153.5 555.8,172.1 566.5,174 570.5,151.5 563.5,150.3 
			560.7,166.6 560.6,166.6 550.5,148 539.8,146.1 		"/>
		<polygon class="st2" points="588.8,178.5 595.6,180 600.4,157.6 593.5,156.1 		"/>
		<polygon class="st3" points="588.8,178.5 595.6,180 600.4,157.6 593.5,156.1 		"/>
		<path class="st2" d="M619.4,177.5c-1.7,6.5,1.5,9,7.6,10.6l10.9,2.9c6.1,1.6,10.1,1.1,11.9-5.4l1.8-6.6c1.7-6.5-1.5-9-7.6-10.6
			l-10.9-2.9c-6.1-1.6-10.2-1.1-11.9,5.4L619.4,177.5 M627.6,174.9c0.7-2.8,1.9-4.2,5.4-3.3l7.9,2.1c3.6,1,3.8,2.8,3.1,5.6l-0.6,2.4
			c-0.9,3.2-1.9,4.2-5.1,3.4l-8.7-2.3c-3.2-0.9-3.5-2.3-2.7-5.5L627.6,174.9z"/>
		<path class="st3" d="M619.4,177.5c-1.7,6.5,1.5,9,7.6,10.6l10.9,2.9c6.1,1.6,10.1,1.1,11.9-5.4l1.8-6.6c1.7-6.5-1.5-9-7.6-10.6
			l-10.9-2.9c-6.1-1.6-10.2-1.1-11.9,5.4L619.4,177.5 M627.6,174.9c0.7-2.8,1.9-4.2,5.4-3.3l7.9,2.1c3.6,1,3.8,2.8,3.1,5.6l-0.6,2.4
			c-0.9,3.2-1.9,4.2-5.1,3.4l-8.7-2.3c-3.2-0.9-3.5-2.3-2.7-5.5L627.6,174.9z"/>
		<path class="st2" d="M154.8,187.5c1.3,4.8,4.1,5.3,10.2,3.6l8.2-2.2c9-2.4,10.8-3.9,9.2-9.9c-1.7-6.5-4.3-6.4-14.9-3.6
			c-7.3,2-8.1,2.2-8.6,0.2c-0.3-1.2,0.6-2,2.1-2.4l7.5-2c3.1-0.8,3.5-0.2,3.9,1.4l6.8-1.8l-0.2-0.7c-1.1-3.9-2.5-6.3-10.3-4.2
			l-9.5,2.5c-8.6,2.3-8.1,5.5-7,9.5c1.4,5.5,3,6.4,13.2,3.6c8.7-2.3,9.6-2.4,10.1-0.5c0.4,1.7-1,2.3-2.4,2.6l-8.3,2.2
			c-1.9,0.5-2.9,0.6-3.6-1.7l-6.8,1.8L154.8,187.5z"/>
		<path class="st2" d="M203.4,180.8l7.7-1.6l1.1-4.4l13.9-3l3,3.5l7.6-1.7l-17-19.7l-9,1.9L203.4,180.8z M216.3,160.1l6.2,7.4
			l-8.8,1.9L216.3,160.1z"/>
		<polygon class="st2" points="256.7,170.2 263.6,169.1 261,152.7 261.1,152.7 276.7,167.1 287.4,165.4 283.9,142.7 276.9,143.8 
			279.5,160.3 279.5,160.3 263.8,145.9 253.1,147.6 		"/>
		<path class="st2" d="M329.7,161.2l7.8-0.4l1.8-4.1l14.2-0.7l2.4,3.9l7.8-0.4L350,137.2l-9.1,0.5L329.7,161.2z M345.7,142.8l5,8.3
			l-9,0.5L345.7,142.8z"/>
		<polygon class="st2" points="384,158.8 391,158.8 391,142.1 391,142.1 404.2,158.8 415.1,158.8 415.1,135.9 408.1,135.9 
			408.1,152.5 408,152.5 394.8,135.9 384,135.9 		"/>
		<polygon class="st2" points="436.8,142 446.6,142.5 445.7,159.7 452.7,160 453.6,142.8 463.5,143.4 463.7,137.7 437.1,136.3 		"/>
		<path class="st2" d="M483.6,154.2c-0.7,6.7,2.9,8.6,9.2,9.3l11.2,1.2c6.3,0.7,10.2-0.5,10.9-7.2l0.7-6.8c0.7-6.7-2.9-8.6-9.2-9.3
			l-11.2-1.2c-6.3-0.6-10.2,0.5-10.9,7.2L483.6,154.2 M491.3,150.4c0.3-2.8,1.2-4.5,4.8-4.1l8.2,0.9c3.7,0.4,4.2,2.2,3.9,5l-0.3,2.4
			c-0.4,3.3-1.2,4.5-4.5,4.1l-8.9-0.9c-3.3-0.3-3.9-1.7-3.5-5L491.3,150.4z"/>
		<polygon class="st2" points="535.9,168.6 542.8,169.8 545.6,153.4 545.7,153.5 555.8,172.1 566.5,174 570.5,151.5 563.5,150.3 
			560.7,166.6 560.6,166.6 550.5,148 539.8,146.1 		"/>
		<polygon class="st2" points="588.8,178.5 595.6,180 600.4,157.6 593.5,156.1 		"/>
		<path class="st2" d="M619.4,177.5c-1.7,6.5,1.5,9,7.6,10.6l10.9,2.9c6.1,1.6,10.1,1.1,11.9-5.4l1.8-6.6c1.7-6.5-1.5-9-7.6-10.6
			l-10.9-2.9c-6.1-1.6-10.2-1.1-11.9,5.4L619.4,177.5 M627.6,174.9c0.7-2.8,1.9-4.2,5.4-3.3l7.9,2.1c3.6,1,3.8,2.8,3.1,5.6l-0.6,2.4
			c-0.9,3.2-1.9,4.2-5.1,3.4l-8.7-2.3c-3.2-0.9-3.5-2.3-2.7-5.5L627.6,174.9z"/>
	</g>
	<g>
		<g>
			<defs>
				<path id="SVGID_5_" d="M531.5,253.6l-40.9-6.9l2.7-16.1l40.9,6.9c1.8,0.3,3,2,2.7,3.8l-1.5,9.6c-0.3,1.6-1.7,2.8-3.3,2.8
					C531.9,253.6,531.7,253.6,531.5,253.6 M457.7,300.3l22.9,3.9l6.4-37.3l29.6,5l11.4,1.9c1.8,0.3,3,2,2.7,3.8l-4.8,28.1
					c-1,5.9,2.4,6.3,3.9,6.6c1.7,0.3,19.7,3.5,19.7,3.5c-0.5-0.5-1.7-2.6-0.8-6.6l5.7-33c0.5-3.2-1.1-6.1-3.8-7.4
					c3.9-0.4,5.6-3.4,6.2-6.6l0.5-2.8l4.9-29.6c0.8-4.5-2.3-8.8-6.8-9.6l-81.7-13.8L457.7,300.3z"/>
			</defs>
			<clipPath id="SVGID_6_">
				<use xlink:href="#SVGID_5_"  style="overflow:visible;"/>
			</clipPath>
			<path class="st6" d="M555.4,220.2l-81.7-13.8l-15.9,94l22.9,3.9l6.4-37.3l29.6,5l11.4,1.9c1.8,0.3,3,2,2.7,3.8l-4.8,28.1
				c-1,5.9,2.4,6.3,3.9,6.6c1.6,0.3,19.7,3.5,19.7,3.5c-0.5-0.5-1.6-2.6-0.8-6.6l5.7-33c0.5-3.2-1.1-6.1-3.8-7.4
				c3.9-0.4,5.6-3.4,6.2-6.6l0.5-2.8l4.9-29.6C563,225.2,559.9,220.9,555.4,220.2 M536.9,241.2l-1.5,9.6c-0.3,1.8-2,3-3.8,2.7
				l-41-6.9l2.7-16.1l40.9,6.9C535.9,237.7,537.2,239.4,536.9,241.2"/>
		</g>
		<g>
			<defs>
				<path id="SVGID_7_" d="M531.5,253.6l-40.9-6.9l2.7-16.1l40.9,6.9c1.8,0.3,3,2,2.7,3.8l-1.5,9.6c-0.3,1.6-1.7,2.8-3.3,2.8
					C531.9,253.6,531.7,253.6,531.5,253.6 M457.7,300.3l22.9,3.9l6.4-37.3l29.6,5l11.4,1.9c1.8,0.3,3,2,2.7,3.8l-4.8,28.1
					c-1,5.9,2.4,6.3,3.9,6.6c1.7,0.3,19.7,3.5,19.7,3.5c-0.5-0.5-1.7-2.6-0.8-6.6l5.7-33c0.5-3.2-1.1-6.1-3.8-7.4
					c3.9-0.4,5.6-3.4,6.2-6.6l0.5-2.8l4.9-29.6c0.8-4.5-2.3-8.8-6.8-9.6l-81.7-13.8L457.7,300.3z"/>
			</defs>
			<clipPath id="SVGID_8_">
				<use xlink:href="#SVGID_7_"  style="overflow:visible;"/>
			</clipPath>
			<path class="st7" d="M555.4,220.2l-81.7-13.8l-15.9,94l22.9,3.9l6.4-37.3l29.6,5l11.4,1.9c1.8,0.3,3,2,2.7,3.8l-4.8,28.1
				c-1,5.9,2.4,6.3,3.9,6.6c1.6,0.3,19.7,3.5,19.7,3.5c-0.5-0.5-1.6-2.6-0.8-6.6l5.7-33c0.5-3.2-1.1-6.1-3.8-7.4
				c3.9-0.4,5.6-3.4,6.2-6.6l0.5-2.8l4.9-29.6C563,225.2,559.9,220.9,555.4,220.2z M536.9,241.2l-1.5,9.6c-0.3,1.8-2,3-3.8,2.7
				l-41-6.9l2.7-16.1l40.9,6.9C535.9,237.7,537.2,239.4,536.9,241.2z"/>
		</g>
	</g>
	<g>
		<g>
			<defs>
				<path id="SVGID_9_" d="M260.7,239l40.8-7.8c1.8-0.3,3.5,0.8,3.9,2.7l1.9,9.5c0.3,1.8-0.8,3.6-2.7,3.9l-40.9,7.8L260.7,239z
					 M315.5,207.7l-81.4,15.4l17.8,93.7l22.8-4.3l-7-37.2l58.6-11.1c4.5-0.8,7.5-5.2,6.6-9.7l-7.7-40.1c-0.8-4-4.3-6.8-8.2-6.8
					C316.5,207.5,316,207.6,315.5,207.7"/>
			</defs>
			<clipPath id="SVGID_10_">
				<use xlink:href="#SVGID_9_"  style="overflow:visible;"/>
			</clipPath>
			<path class="st8" d="M263.8,255.1l40.9-7.7c1.8-0.3,3-2.1,2.7-3.9l-1.9-9.5c-0.4-1.8-2.1-3-3.9-2.7l-40.8,7.8L263.8,255.1
				 M274.7,312.5l-22.8,4.3l-17.8-93.7l81.4-15.4c4.5-0.8,8.9,2.1,9.7,6.6l7.7,40.1c0.9,4.5-2.1,8.9-6.6,9.7l-58.7,11.1L274.7,312.5
				z"/>
		</g>
		<g>
			<defs>
				<path id="SVGID_11_" d="M260.7,239l40.8-7.8c1.8-0.3,3.5,0.8,3.9,2.7l1.9,9.5c0.3,1.8-0.8,3.6-2.7,3.9l-40.9,7.8L260.7,239z
					 M315.5,207.7l-81.4,15.4l17.8,93.7l22.8-4.3l-7-37.2l58.6-11.1c4.5-0.8,7.5-5.2,6.6-9.7l-7.7-40.1c-0.8-4-4.3-6.8-8.2-6.8
					C316.5,207.5,316,207.6,315.5,207.7"/>
			</defs>
			<clipPath id="SVGID_12_">
				<use xlink:href="#SVGID_11_"  style="overflow:visible;"/>
			</clipPath>
			<path class="st9" d="M263.8,255.1l40.9-7.7c1.8-0.3,3-2.1,2.7-3.9l-1.9-9.5c-0.4-1.8-2.1-3-3.9-2.7l-40.8,7.8L263.8,255.1
				 M274.7,312.5l-22.8,4.3l-17.8-93.7l81.4-15.4c4.5-0.8,8.9,2.1,9.7,6.6l7.7,40.1c0.9,4.5-2.1,8.9-6.6,9.7l-58.7,11.1L274.7,312.5
				z"/>
		</g>
	</g>
	<g>
		<g>
			<defs>
				<path id="SVGID_13_" d="M590.9,237.8l-11.7,36l-1,3.2c-1.4,4.4,1,9.1,5.3,10.5l26.1,8.5l24.9,8.1c1.8,0.6,2.6,2.8,2,4.5l-3,9.4
					c-0.6,1.7-2.4,2.7-4.2,2.1l-33.7-11c-1.7-0.5-2.7-2.4-2.1-4.2l1.9-5.9l-22.1-7.2l-6.8,21c-1.4,4.3,1,9,5.3,10.4l68.3,22.2
					c4.3,1.4,9.1-1,10.5-5.3l11.6-35.8l1.3-3.9c1.4-4.4-1-9.1-5.3-10.5l-43.1-14l-7.9-2.6c-1.7-0.6-2.7-2.5-2.1-4.2l3-9.3
					c0.6-1.8,2.4-2.7,4.2-2.1l33.7,10.9c1.7,0.6,2.7,2.5,2.1,4.2l-1.9,5.3l22.1,7.2l6.5-20.1c1.4-4.4-1-9-5.3-10.5l-68.3-22.2
					c-0.8-0.3-1.7-0.4-2.6-0.4C595.3,232,592.1,234.3,590.9,237.8"/>
			</defs>
			<clipPath id="SVGID_14_">
				<use xlink:href="#SVGID_13_"  style="overflow:visible;"/>
			</clipPath>
			<path class="st10" d="M634.6,303.9c1.8,0.6,2.6,2.7,2.1,4.5l-3.1,9.4c-0.6,1.7-2.4,2.7-4.2,2.1l-33.7-11
				c-1.8-0.5-2.7-2.4-2.2-4.2l2-5.9l-22.1-7.2l-6.8,21c-1.4,4.3,1,9,5.3,10.5l68.3,22.2c4.3,1.4,9.1-1,10.5-5.3l11.6-35.8l1.3-3.9
				c1.4-4.4-1-9-5.3-10.5l-43.1-14l-7.9-2.6c-1.7-0.6-2.7-2.4-2.1-4.2l3-9.3c0.6-1.8,2.4-2.7,4.2-2.1l33.7,10.9
				c1.7,0.6,2.7,2.5,2.1,4.2l-1.9,5.3l22.1,7.2l6.6-20.1c1.4-4.4-1-9-5.4-10.5l-68.2-22.2c-4.4-1.4-9.1,0.9-10.5,5.3l-11.7,36
				l-1,3.2c-1.4,4.4,1,9.1,5.4,10.5l26,8.5L634.6,303.9z"/>
		</g>
		<g>
			<defs>
				<path id="SVGID_15_" d="M590.9,237.8l-11.7,36l-1,3.2c-1.4,4.4,1,9.1,5.3,10.5l26.1,8.5l24.9,8.1c1.8,0.6,2.6,2.8,2,4.5l-3,9.4
					c-0.6,1.7-2.4,2.7-4.2,2.1l-33.7-11c-1.7-0.5-2.7-2.4-2.1-4.2l1.9-5.9l-22.1-7.2l-6.8,21c-1.4,4.3,1,9,5.3,10.4l68.3,22.2
					c4.3,1.4,9.1-1,10.5-5.3l11.6-35.8l1.3-3.9c1.4-4.4-1-9.1-5.3-10.5l-43.1-14l-7.9-2.6c-1.7-0.6-2.7-2.5-2.1-4.2l3-9.3
					c0.6-1.8,2.4-2.7,4.2-2.1l33.7,10.9c1.7,0.6,2.7,2.5,2.1,4.2l-1.9,5.3l22.1,7.2l6.5-20.1c1.4-4.4-1-9-5.3-10.5l-68.3-22.2
					c-0.8-0.3-1.7-0.4-2.6-0.4C595.3,232,592.1,234.3,590.9,237.8"/>
			</defs>
			<clipPath id="SVGID_16_">
				<use xlink:href="#SVGID_15_"  style="overflow:visible;"/>
			</clipPath>
			<path class="st11" d="M634.6,303.9c1.8,0.6,2.6,2.7,2.1,4.5l-3.1,9.4c-0.6,1.7-2.4,2.7-4.2,2.1l-33.7-11
				c-1.8-0.5-2.7-2.4-2.2-4.2l2-5.9l-22.1-7.2l-6.8,21c-1.4,4.3,1,9,5.3,10.5l68.3,22.2c4.3,1.4,9.1-1,10.5-5.3l11.6-35.8l1.3-3.9
				c1.4-4.4-1-9-5.3-10.5l-43.1-14l-7.9-2.6c-1.7-0.6-2.7-2.4-2.1-4.2l3-9.3c0.6-1.8,2.4-2.7,4.2-2.1l33.7,10.9
				c1.7,0.6,2.7,2.5,2.1,4.2l-1.9,5.3l22.1,7.2l6.6-20.1c1.4-4.4-1-9-5.4-10.5l-68.2-22.2c-4.4-1.4-9.1,0.9-10.5,5.3l-11.7,36
				l-1,3.2c-1.4,4.4,1,9.1,5.4,10.5l26,8.5L634.6,303.9z"/>
		</g>
	</g>
	<g>
		<g>
			<defs>
				<path id="SVGID_17_" d="M198.2,232.9L130,255c-4.3,1.4-6.7,6.1-5.3,10.5l11.7,35.9l1,3.2c1.4,4.4,6.1,6.8,10.5,5.3l26-8.4
					l25-8.1c1.7-0.5,3.7,0.7,4.3,2.4l3,9.4c0.6,1.7-0.4,3.6-2.1,4.2l-33.7,10.9c-1.7,0.6-3.6-0.4-4.2-2.1l-1.9-6l-22.1,7.1l6.8,21
					c1.4,4.3,6.1,6.7,10.5,5.3l68.3-22.2c4.4-1.4,6.7-6.1,5.3-10.4l-11.6-35.8l-1.3-3.9c-1.4-4.3-6.1-6.7-10.4-5.3l-43.1,14
					l-7.9,2.6c-1.7,0.6-3.6-0.4-4.2-2.2l-3-9.3c-0.6-1.7,0.4-3.6,2.1-4.2l33.7-11c1.7-0.6,3.6,0.4,4.2,2.2l1.7,5.3l22-7.1l-6.5-20.1
					c-1.1-3.5-4.4-5.7-7.9-5.7C200,232.5,199.1,232.6,198.2,232.9"/>
			</defs>
			<clipPath id="SVGID_18_">
				<use xlink:href="#SVGID_17_"  style="overflow:visible;"/>
			</clipPath>
			<path class="st12" d="M173.9,301.5l-26,8.5c-4.4,1.4-9.1-1-10.5-5.4l-1-3.1l-11.7-36c-1.4-4.4,1-9.1,5.3-10.5l68.3-22.2
				c4.4-1.4,9.1,0.9,10.5,5.3l6.5,20.2l-22,7.1l-1.7-5.3c-0.6-1.8-2.4-2.7-4.2-2.2l-33.7,11c-1.8,0.6-2.7,2.5-2.1,4.2l3,9.3
				c0.6,1.8,2.4,2.7,4.2,2.1l7.9-2.6l43.1-14c4.4-1.4,9.1,1,10.4,5.3l1.3,3.9l11.6,35.8c1.4,4.4-1,9-5.3,10.5l-68.3,22.2
				c-4.4,1.4-9.1-1-10.5-5.3l-6.8-21l22.1-7.2l1.9,6c0.6,1.8,2.5,2.7,4.2,2.1l33.7-10.9c1.7-0.6,2.7-2.4,2.1-4.2l-3-9.4
				c-0.6-1.7-2.6-3-4.3-2.5L173.9,301.5z"/>
		</g>
		<g>
			<defs>
				<path id="SVGID_19_" d="M198.2,232.9L130,255c-4.3,1.4-6.7,6.1-5.3,10.5l11.7,35.9l1,3.2c1.4,4.4,6.1,6.8,10.5,5.3l26-8.4
					l25-8.1c1.7-0.5,3.7,0.7,4.3,2.4l3,9.4c0.6,1.7-0.4,3.6-2.1,4.2l-33.7,10.9c-1.7,0.6-3.6-0.4-4.2-2.1l-1.9-6l-22.1,7.1l6.8,21
					c1.4,4.3,6.1,6.7,10.5,5.3l68.3-22.2c4.4-1.4,6.7-6.1,5.3-10.4l-11.6-35.8l-1.3-3.9c-1.4-4.3-6.1-6.7-10.4-5.3l-43.1,14
					l-7.9,2.6c-1.7,0.6-3.6-0.4-4.2-2.2l-3-9.3c-0.6-1.7,0.4-3.6,2.1-4.2l33.7-11c1.7-0.6,3.6,0.4,4.2,2.2l1.7,5.3l22-7.1l-6.5-20.1
					c-1.1-3.5-4.4-5.7-7.9-5.7C200,232.5,199.1,232.6,198.2,232.9"/>
			</defs>
			<clipPath id="SVGID_20_">
				<use xlink:href="#SVGID_19_"  style="overflow:visible;"/>
			</clipPath>
			<path class="st13" d="M173.9,301.5l-26,8.5c-4.4,1.4-9.1-1-10.5-5.4l-1-3.1l-11.7-36c-1.4-4.4,1-9.1,5.3-10.5l68.3-22.2
				c4.4-1.4,9.1,0.9,10.5,5.3l6.5,20.2l-22,7.1l-1.7-5.3c-0.6-1.8-2.4-2.7-4.2-2.2l-33.7,11c-1.8,0.6-2.7,2.5-2.1,4.2l3,9.3
				c0.6,1.8,2.4,2.7,4.2,2.1l7.9-2.6l43.1-14c4.4-1.4,9.1,1,10.4,5.3l1.3,3.9l11.6,35.8c1.4,4.4-1,9-5.3,10.5l-68.3,22.2
				c-4.4,1.4-9.1-1-10.5-5.3l-6.8-21l22.1-7.2l1.9,6c0.6,1.8,2.5,2.7,4.2,2.1l33.7-10.9c1.7-0.6,2.7-2.4,2.1-4.2l-3-9.4
				c-0.6-1.7-2.6-3-4.3-2.5L173.9,301.5z"/>
		</g>
	</g>
</g>
</svg>
